<?xml version="1.0" standalone="no"?>
<!DOCTYPE svg PUBLIC "-//W3C//DTD SVG 1.1//EN" "http://www.w3.org/Graphics/SVG/1.1/DTD/svg11.dtd" >
<svg>
<metadata>
Created by FontForge 20110222 at Tue Jun 24 10:30:08 2014
 By deploy user
Copyright (c) 2013 by Mans Greba:ck. All rights reserved.
</metadata>
<defs>
<font id="StainyPersonalUseOnly" horiz-adv-x="397" >
  <font-face 
    font-family="Stainy Personal Use Only"
    font-weight="400"
    font-stretch="normal"
    units-per-em="1000"
    panose-1="2 0 0 0 0 0 0 0 0 0"
    ascent="750"
    descent="-250"
    x-height="350"
    cap-height="671"
    bbox="-236.031 -241.529 1381 869.615"
    underline-thickness="50"
    underline-position="-50"
    unicode-range="U+0020-FB06"
  />
<missing-glyph horiz-adv-x="350" 
 />
    <glyph glyph-name="fi" unicode="fi" horiz-adv-x="398" 
d="M71 272q21 4 55 15q6 9 11.5 17t10.5 15q43 63 90.5 129.5t96.5 119.5t97 83t92 19q47 -12 41.5 -42t-48 -75t-113 -103t-152.5 -125l69 17q28 6 53 8.5t65 1.5q14 0 16.5 -9.5t-8.5 -23.5q-4 -5 -19 -24t-33.5 -45.5t-38.5 -55t-35 -52.5q-19 -30 -21 -43.5t6 -15.5
q10 -3 33.5 13t52 42t57.5 56t49 55q14 16 23.5 20.5t14 0t3.5 -14.5t-9 -22q-7 -10 -23 -30t-38.5 -44t-49.5 -50t-54.5 -48t-53.5 -38.5t-48 -20.5q-29 -6 -45.5 3t-21 28t2 44.5t21.5 52.5q10 17 25.5 41t33 48.5t33.5 47.5t27 37q-26 -3 -56 -7t-62 -11l-295 -455
q-12 -15 -29 -24.5t-31 -9.5h-29q-14 0 -16 10t9 24l96 150q20 32 42.5 66.5l45 69t44 67t40.5 61.5q-17 -4 -29 -1.5t-16.5 7.5t-0.5 11t19 10zM579 480q0 -20 -14 -33.5t-34 -13.5t-33.5 13.5t-13.5 33.5t13.5 33.5t33.5 13.5t34 -13.5t14 -33.5zM510 616q-9 11 -30 -3.5
t-48 -44t-56.5 -67.5t-56.5 -74q38 32 75 62.5t64.5 56t42.5 44t9 26.5z" />
    <glyph glyph-name="fl" unicode="fl" horiz-adv-x="398" 
d="M146 316q0 1 2 3q29 42 60 86.5t63 87t65 78.5t65 61.5t63 36t60 1.5q20 -7 26 -17.5t2 -19.5t-14 -13t-21 2q-12 6 -29.5 -4t-39 -30t-45 -48t-46.5 -58q-54 -70 -114 -163l-2 -3h25q22 0 39 -4t30 -10q37 54 77.5 111.5t75 106t58 81t27.5 37.5q12 15 29 24.5t31 9.5
h29q14 0 16 -10t-9 -24q-2 -3 -26 -36.5t-59.5 -83t-77.5 -109t-80 -113.5t-67 -96t-38 -58q-19 -30 -21.5 -43.5t5.5 -15.5q10 -3 34 13t52.5 42t57.5 56t49 55q13 16 22.5 20.5t14 0t3.5 -14.5t-8 -22q-7 -10 -23.5 -30t-39 -44t-49 -50t-54 -48t-53.5 -38.5t-48 -20.5
q-29 -6 -45.5 3t-21 28t2 44.5t21.5 52.5q7 12 30 46.5t56 82.5h-102l-278 -428q-12 -15 -29 -24.5t-31 -9.5h-29q-14 0 -16 10t9 24q51 80 101 158q21 33 44.5 69t46.5 71.5t44.5 68.5t40.5 61q-24 1 -41 10.5t-24 19.5t-3.5 18.5t20.5 8.5h87z" />
    <glyph glyph-name="t_h" unicode="th" horiz-adv-x="583" 
d="M554 350q26 4 43 -2t18 -25.5t-17.5 -55t-63.5 -91.5q-23 -27 -34 -45t-14.5 -28.5t-1.5 -14.5t6 -5q10 -3 33.5 13t52 42t57.5 56t50 55q13 16 22.5 20.5t14 0t3.5 -14.5t-9 -22q-7 -10 -23 -30t-38.5 -44t-49.5 -50t-54 -48t-53.5 -38.5t-47.5 -20.5q-29 -6 -48 4
t-23 32.5t9.5 57.5t49.5 80q41 53 61 77.5t9 29.5q-9 4 -34.5 -12t-57.5 -43.5t-66.5 -62.5t-61.5 -68l-44 -63q-12 -15 -29 -24.5t-31 -9.5h-29q-14 0 -16 10t9 24l18 26q-27 -22 -53 -37.5t-48 -20.5q-30 -6 -46 3t-20.5 28t1.5 44.5t21 52.5q7 12 29.5 45.5t53.5 77
t66 93t67 94.5q-68 -3 -118.5 -5t-66.5 -2q-26 -1 -29 13t8 30.5t32.5 31t44.5 14.5q24 0 75 0.5t115 1.5l43 58q11 14 28 23.5t31 9.5h29q14 0 16.5 -9.5t-8.5 -23.5q-2 -2 -13.5 -17.5t-28.5 -38.5l38 3q20 1 23.5 -8t-4.5 -21.5t-24.5 -24t-36.5 -14.5l-47 -6
q-31 -43 -66.5 -92t-67 -93t-55.5 -79t-33 -49q-18 -30 -20 -43.5t5 -15.5q10 -3 32.5 12t49.5 39t55 53.5t49 54.5l277 396q11 15 28 24.5t31 9.5h29q14 0 16.5 -10t-8.5 -24l-259 -370q38 32 76 54.5t73 27.5z" />
    <glyph glyph-name="t_t" unicode="tt" horiz-adv-x="394" 
d="M106 522q24 0 75 0.5t115 1.5l43 58q11 14 28 23.5t31 9.5h29q14 0 16.5 -9.5t-8.5 -23.5q-2 -2 -13.5 -17.5t-28.5 -38.5q23 0 48.5 0.5t53.5 0.5l41 55q11 14 28 23.5t31 9.5h29q14 0 16.5 -9.5t-8.5 -23.5q-2 -2 -13 -17t-28 -38h69.5t61 0.5t47 1t27.5 0.5
q25 1 47.5 -9t34.5 -22.5t9 -23.5t-28 -11q-11 0 -41.5 -1t-75 -2.5t-98 -3.5t-108.5 -4q-44 -60 -80.5 -111t-65 -91t-47.5 -68t-26 -40q-18 -30 -20 -43.5t5 -15.5q10 -3 33.5 13t52 42t57.5 56t49 55q14 16 24 20.5t14.5 0t3 -14.5t-8.5 -22q-7 -10 -23.5 -30t-39 -44
t-49 -50t-54 -48t-53.5 -38.5t-48 -20.5q-24 -5 -39.5 0.5t-22.5 18t-7 30.5t7 39q-35 -32 -70.5 -57t-64.5 -31q-30 -6 -46 3t-20.5 28t1.5 44.5t21 52.5q7 12 29.5 45.5t53.5 77t66 93t67 94.5q-68 -3 -118.5 -5t-66.5 -2q-26 -1 -29 13t8 30.5t32.5 31t44.5 14.5z
M293 244q33 48 71 102t73 102l-104 -4q-31 -43 -65 -90t-64 -89.5t-52.5 -75.5t-31.5 -47q-18 -30 -20 -43.5t5 -15.5q10 -3 32.5 12t50 40t56 54.5t49.5 54.5z" />
    <glyph glyph-name="t_i" unicode="ti" 
d="M445 319q-4 -5 -19 -24t-33.5 -45.5t-38.5 -55t-35 -52.5q-19 -30 -21 -43.5t6 -15.5q10 -3 33.5 13t52 42t57.5 56t50 55q13 16 22.5 20.5t14 0t3.5 -14.5t-9 -22q-7 -10 -23 -30t-38.5 -44t-49.5 -50t-54.5 -48t-53.5 -38.5t-48 -20.5q-24 -5 -39 0.5t-22 18.5
t-6.5 31.5t8.5 40.5q-36 -33 -73 -59t-66 -32q-30 -6 -46 3t-20.5 28t1.5 44.5t21 52.5q7 12 29.5 45.5t53.5 77t66 93t67 94.5q-68 -3 -118.5 -5t-66.5 -2q-26 -1 -29 13t8 30.5t32.5 31t44.5 14.5q24 0 75 0.5t115 1.5l43 58q11 14 28 23.5t31 9.5h29q14 0 16.5 -9.5
t-8.5 -23.5q-2 -2 -13.5 -17.5t-28.5 -38.5l38 3q20 1 23.5 -8t-4.5 -21.5t-24.5 -24t-36.5 -14.5l-47 -6q-31 -43 -66.5 -92t-67 -93t-55.5 -79t-33 -49q-18 -30 -20 -43.5t5 -15.5q10 -3 33.5 13t52 41.5t57 55.5t48.5 55q18 26 33 45t20 26q11 15 28 24t31 9h29
q14 0 16.5 -9.5t-8.5 -23.5zM568 478q0 -21 -14.5 -35.5t-34.5 -14.5t-35 14.5t-15 35.5q0 20 15 34.5t35 14.5t34.5 -14.5t14.5 -34.5z" />
    <glyph glyph-name="t_l" unicode="tl" horiz-adv-x="396" 
d="M667 638q-2 -3 -26 -36.5t-59.5 -83t-77.5 -109t-80 -113.5t-67 -96t-38 -58q-19 -30 -21.5 -43.5t5.5 -15.5q10 -3 34 13t52.5 42t57.5 56t49 55q13 16 22.5 20.5t14 0t3.5 -14.5t-8 -22q-7 -10 -23.5 -30t-39 -44t-49 -50t-54 -48t-53.5 -38.5t-48 -20.5
q-24 -5 -39.5 0.5t-22.5 18.5t-6.5 31.5t8.5 39.5q-36 -33 -72.5 -58.5t-65.5 -31.5q-30 -6 -46 3t-20.5 28t1.5 44.5t21 52.5q7 12 29.5 45.5t53.5 77t66 93t67 94.5q-68 -3 -118.5 -5t-66.5 -2q-26 -1 -29 13t8 30.5t32.5 31t44.5 14.5q24 0 75 0.5t115 1.5l43 58
q11 14 28 23.5t31 9.5h29q14 0 16.5 -9.5t-8.5 -23.5q-2 -2 -13.5 -17.5t-28.5 -38.5l38 3q20 1 23.5 -8t-4.5 -21.5t-24.5 -24t-36.5 -14.5l-47 -6q-31 -43 -66.5 -92t-67 -93t-55.5 -79t-33 -49q-18 -30 -20 -43.5t5 -15.5q10 -3 33.5 13t52 41.5t57 55.5t48.5 55
q25 37 55 79.5t59.5 84.5t57 81.5t50 70.5t36.5 50.5t17 23.5q12 15 29 24.5t31 9.5h29q14 0 16 -10t-9 -24z" />
    <glyph glyph-name="f_t" unicode="ft" horiz-adv-x="396" 
d="M524 670q28 -6 32 -20.5t-3.5 -26t-21.5 -16t-21 8.5q-6 10 -21.5 1.5t-37.5 -30.5t-48.5 -54.5t-53.5 -69t-53.5 -74.5t-48.5 -71q30 0 52.5 -4t36.5 -11l98 137l-37 -7q-21 -4 -21.5 9t11 30.5t30 33t36.5 16.5l42 2l43 58q11 14 28 23.5t31 9.5h29q14 0 16.5 -9.5
t-8.5 -23.5q-2 -2 -13.5 -17.5t-28.5 -38.5q50 0 99 0.5t90.5 1t72 1t44.5 0.5q25 1 47.5 -9t34.5 -22.5t9 -23.5t-28 -11q-15 0 -58.5 -2t-103 -5t-129 -6t-138.5 -6q-31 -43 -65 -90t-64 -89.5t-52.5 -75.5t-31.5 -47q-18 -30 -20 -43.5t5 -15.5q10 -3 33.5 13t52 42
t57.5 56t49 55q14 16 24 20.5t14.5 0t3 -14.5t-8.5 -22q-7 -10 -23.5 -30t-39 -44t-49 -50t-54 -48t-53.5 -38.5t-48 -20.5q-30 -6 -46 3t-20.5 28t1.5 44.5t21 52.5q8 13 31.5 47.5t55.5 81.5h-101l-278 -428q-12 -15 -29 -24.5t-31 -9.5h-29q-14 0 -16 10t9 24
q51 80 101 158q21 33 44.5 69t46.5 71.5t44.5 68.5t40.5 61q-24 1 -41 10.5t-24 19.5t-3.5 18.5t20.5 8.5h87q43 63 91 129.5t96.5 120t97 84t93.5 20.5z" />
    <glyph glyph-name="i_t" unicode="it" 
d="M248 319q-4 -5 -19 -24t-33.5 -45.5t-38.5 -55t-35 -52.5q-19 -30 -21 -43.5t6 -15.5q10 -3 32.5 12t50.5 40t56.5 54.5t49.5 54.5l139 196l-37 -7q-21 -4 -21.5 9t11 30.5t30 33t36.5 16.5l42 2l43 58q11 14 28 23.5t31 9.5h29q14 0 16.5 -9.5t-8.5 -23.5
q-2 -2 -13.5 -17.5t-28.5 -38.5q50 0 99 0.5t90.5 1t72 1t44.5 0.5q25 1 47.5 -9t34.5 -22.5t9 -23.5t-28 -11q-15 0 -58.5 -2t-103 -5t-129 -6t-138.5 -6q-31 -43 -65 -90t-64 -89.5t-52.5 -75.5t-31.5 -47q-18 -30 -20 -43.5t5 -15.5q10 -3 33.5 13t52 42t57.5 56t49 55
q14 16 24 20.5t14.5 0t3 -14.5t-8.5 -22q-7 -10 -23.5 -30t-39 -44t-49 -50t-54 -48t-53.5 -38.5t-48 -20.5q-25 -5 -40 0.5t-22 18.5t-6.5 31.5t7.5 39.5q-36 -33 -72.5 -58.5t-65.5 -31.5t-45 3t-20.5 28t1.5 44.5t22 52.5q11 20 30.5 49.5t39.5 58t37 51.5t23 30
q11 15 28 24t31 9h29q14 0 16.5 -9.5t-8.5 -23.5zM346 473q0 -23 -15.5 -39t-38.5 -16t-39 16t-16 39t16 38.5t39 15.5t38.5 -15.5t15.5 -38.5z" />
    <glyph glyph-name="l_t" unicode="lt" horiz-adv-x="396" 
d="M470 638q-2 -3 -26 -36.5t-59.5 -83t-77.5 -109t-80 -113.5t-67 -96t-38 -58q-19 -30 -21.5 -43.5t5.5 -15.5q10 -3 32.5 12t50.5 40t56.5 54.5t49.5 54.5l139 196l-37 -7q-21 -4 -21.5 9t11 30.5t30 33t36.5 16.5l42 2l43 58q11 14 28 23.5t31 9.5h29q14 0 16.5 -9.5
t-8.5 -23.5q-2 -2 -13.5 -17.5t-28.5 -38.5q50 0 99 0.5t90.5 1t72 1t44.5 0.5q25 1 47.5 -9t34.5 -22.5t9 -23.5t-28 -11q-15 0 -58.5 -2t-103 -5t-129 -6t-138.5 -6q-31 -43 -65 -90t-64 -89.5t-52.5 -75.5t-31.5 -47q-18 -30 -20 -43.5t5 -15.5q10 -3 33.5 13t52 42
t57.5 56t49 55q14 16 24 20.5t14.5 0t3 -14.5t-8.5 -22q-7 -10 -23.5 -30t-39 -44t-49 -50t-54 -48t-53.5 -38.5t-48 -20.5q-24 -5 -39.5 0.5t-22.5 18t-6.5 31t7.5 39.5q-36 -32 -72 -57.5t-65 -31.5t-45.5 3t-21 28t2 44.5t21.5 52.5q6 10 23.5 36.5t42.5 63t55 80
t61 87.5t60.5 86t53 75t39 54.5t18.5 25.5q12 15 29 24.5t31 9.5h29q14 0 16 -10t-9 -24z" />
    <glyph glyph-name="f_j" unicode="fj" horiz-adv-x="359" 
d="M74 -230q-8 -14 -21.5 -11t-24.5 15t-15.5 30.5t4.5 36.5q3 6 19.5 31t41 61t55.5 80t62 88.5t60 85.5t51 72h-102l-278 -428q-12 -15 -29 -24.5t-31 -9.5h-29q-14 0 -16 10t9 24q51 80 101 158q21 33 44.5 69t46.5 71.5t44.5 68.5t40.5 61q-24 1 -41 10.5t-24 19.5
t-3.5 18.5t20.5 8.5h87q43 63 91 129.5t96.5 120t97 84t93.5 20.5q28 -6 32 -20.5t-3.5 -26t-21.5 -16t-21 8.5q-6 10 -21.5 1.5t-37.5 -30.5t-48.5 -54.5t-53.5 -69t-53.5 -74.5t-48.5 -71q31 0 53.5 -4.5t36.5 -11.5l12 17q12 15 28.5 24t30.5 9h29q14 0 16.5 -9.5
t-8.5 -23.5q-3 -3 -19.5 -25.5t-43.5 -60.5t-62.5 -89.5t-75.5 -111.5t-83.5 -126.5t-86.5 -135.5zM537 473q0 -23 -16 -39t-39 -16t-38.5 16t-15.5 39t15.5 38.5t38.5 15.5t39 -15.5t16 -38.5z" />
    <glyph glyph-name=".notdef" horiz-adv-x="350" 
 />
    <glyph glyph-name=".null" horiz-adv-x="0" 
 />
    <glyph glyph-name="nonmarkingreturn" horiz-adv-x="350" 
 />
    <glyph glyph-name="space" unicode=" " horiz-adv-x="228" 
 />
    <glyph glyph-name="space" unicode="&#xa0;" horiz-adv-x="228" 
 />
    <glyph glyph-name="X" unicode="X" horiz-adv-x="756" 
d="M661 80q15 -2 40 15t52.5 43t55 56t47.5 55q13 16 22.5 20.5t14 0t3.5 -14.5t-8 -22q-7 -10 -23.5 -31t-39 -46t-49.5 -52t-54.5 -49.5t-54 -38t-48.5 -17.5q-29 -3 -46 19t-26 60t-10 89t2 107q-81 -70 -138.5 -122t-104 -86t-89 -50.5t-92.5 -16.5q-34 0 -55.5 13.5
t-33 30t-14.5 30t0 12.5q5 0 13 -6t20 -12.5t29.5 -12t43.5 -5.5q42 0 94 28.5t108 72.5t113.5 96t111.5 99q5 47 11.5 92.5t13.5 85t13 70t11 47.5q3 11 14 14.5t33 3.5q49 0 45 -23q-7 -29 -17 -83t-20 -119l236 194q19 14 41.5 26t45.5 12t18.5 -10t-21.5 -24
q-5 -3 -40 -32t-84.5 -69.5t-105 -86.5t-101.5 -85q-6 -52 -9.5 -101.5t-2 -88t9.5 -63t25 -25.5z" />
    <glyph glyph-name="W" unicode="W" horiz-adv-x="669" 
d="M717 636q-2 -3 -17.5 -24t-38.5 -53.5t-51 -71.5l-56 -78t-52.5 -74.5t-41.5 -58.5q-31 -44 -55 -83t-35.5 -68t-8.5 -46t25 -17q32 0 71 28t82.5 75t89.5 107.5t92 125t89.5 128.5t82.5 118q10 14 21 19t18.5 2t8.5 -12.5t-9 -23.5q-43 -61 -89.5 -131.5t-95 -140.5
t-98.5 -135t-101 -114.5t-101.5 -79t-99.5 -29.5q-56 0 -75 26t-8 72q-42 -42 -86 -70t-89 -28q-47 0 -65 22t-11 61t35.5 93t73.5 118q20 28 45 63.5t50.5 72t50 71.5t44.5 64t33.5 48t17.5 24q11 15 28.5 24.5t31.5 9.5h42q14 0 16.5 -10t-8.5 -24q-3 -3 -18.5 -24
t-38 -53.5t-50.5 -71.5t-55.5 -78t-52 -74.5t-41.5 -58.5q-32 -45 -56 -83t-36 -66t-11 -44t20 -16q23 0 47.5 14.5t50 39.5t51.5 57.5t52 67.5q8 11 15.5 23t16.5 24q20 28 45 63.5t51 72t51.5 71.5t46.5 64t35 48t18 24q12 15 25 24.5t27 9.5h44q14 0 16 -10t-9 -24z" />
    <glyph glyph-name="V" unicode="V" horiz-adv-x="438" 
d="M467 636q-3 -3 -18 -24t-38 -53.5t-51 -71.5t-55.5 -78t-52.5 -74.5t-42 -58.5q-31 -44 -55 -83t-35.5 -68t-8.5 -46t25 -17q38 0 84 29.5t95.5 78t100.5 110t99.5 126.5t92 127t78.5 111q10 14 21.5 19t19 2.5t8.5 -12t-9 -24.5q-29 -43 -71.5 -106.5t-94.5 -133.5
t-110 -139.5t-118.5 -125.5t-120 -90.5t-114.5 -34.5q-51 0 -71 22t-14.5 61.5t33 93.5t72.5 117q20 28 44.5 63.5t50 72t49.5 71.5t44 64t34 48t18 24q12 15 28.5 24.5t30.5 9.5h44q14 0 16 -10t-9 -24z" />
    <glyph glyph-name="U" unicode="U" horiz-adv-x="488" 
d="M759 636q-2 -3 -26.5 -36.5t-60 -83.5t-77 -109t-79.5 -113.5t-67 -96.5t-39 -58q-18 -30 -20.5 -43t5.5 -15q10 -3 34 13t52.5 42.5t57.5 57t49 55.5q14 16 23.5 20.5t14 0t3.5 -14.5t-9 -22q-7 -10 -23 -30t-38.5 -44.5t-49.5 -51t-54.5 -49t-53.5 -38.5t-48 -20
q-28 -5 -44 2.5t-21.5 24t-1.5 39t17 48.5q-54 -48 -109.5 -81.5t-105.5 -33.5q-47 0 -64.5 22t-11 61t35.5 93t74 118q20 28 44.5 63.5t50 72t50 71.5t44.5 64t33.5 48t17.5 24q11 15 28.5 24.5t31.5 9.5h42q14 0 16.5 -10t-8.5 -24q-3 -3 -18 -24t-38 -53.5t-50.5 -71.5
t-55.5 -78t-52.5 -74.5t-41.5 -58.5q-32 -45 -56 -83t-36 -66t-11 -44t20 -16q30 0 71 25t85 64t86 86.5t75 92.5l5 6q35 51 71 101.5t65 92.5t49 69.5t23 31.5q12 15 29 24.5t31 9.5h28q14 0 16.5 -10t-8.5 -24z" />
    <glyph glyph-name="T" unicode="T" horiz-adv-x="500" 
d="M284 326q-52 0 -85.5 25.5t-45 64t0 83.5t47.5 83.5t97.5 64t151.5 25.5h546q23 0 23.5 -15t-12 -32.5t-34 -32.5t-42.5 -15q-11 0 -32 2.5t-49 7t-61.5 10t-70.5 11.5q-12 -17 -31 -43.5t-41.5 -57.5t-46 -64.5t-45 -64t-38.5 -55t-26 -37.5q-49 -74 -93 -128t-89 -89.5
t-94 -53t-108 -17.5t-89 38q-7 9 -6.5 18.5t8.5 9.5q6 -1 14.5 -5t20.5 -8.5t26.5 -8t31.5 -3.5q37 0 70 19t64 51t61 75t62 90q8 12 28 40.5t45.5 64.5t54 75.5t53 74t43 60t24.5 33.5q-46 6 -89.5 10t-79.5 4q-64 0 -105.5 -18.5t-64 -46.5t-26 -61t9 -61t39 -46.5
t65.5 -18.5q25 0 26.5 -9t-13 -20t-40.5 -20t-55 -9z" />
    <glyph glyph-name="S" unicode="S" horiz-adv-x="445" 
d="M322 554q46 60 117 88.5t180 28.5q28 0 44 -9t2 -36q-9 -16 -28 -34t-42 -26q-11 -3 -24 -4.5t-23 0.5t-14 7.5t3 14.5q4 5 10.5 11.5t11.5 13t7.5 12t-1.5 8.5q-28 5 -54 1.5t-49 -14t-41.5 -27t-30.5 -35.5q-16 -25 -14 -55.5t12.5 -65t24 -73t19.5 -79t-1 -83.5
t-36 -87q-49 -72 -112.5 -96t-137.5 -18q-35 3 -61.5 19.5t-43.5 40t-24.5 52t-5 55.5t15.5 49t37 33q15 7 33 7.5t32 -3t20 -10.5t-3 -15q-21 -20 -30.5 -46.5t-7.5 -52.5t16 -48.5t40 -32.5q17 -7 36 -8.5t37.5 3.5t36.5 19t33 38q21 34 22 70.5t-7.5 74t-21 76.5
t-17.5 78t2 78.5t38 79.5z" />
    <glyph glyph-name="R" unicode="R" horiz-adv-x="787" 
d="M712 673q98 -2 152 -27t71 -61t1 -78t-57.5 -80t-105.5 -66t-142 -36q-6 -35 -2 -77.5t13 -80.5t22 -64.5t26 -27.5q15 -2 40.5 16t53.5 45t55.5 57.5t47.5 55.5q14 16 23.5 20.5t14 0t3.5 -14.5t-9 -22q-7 -10 -23.5 -31t-39 -47t-50 -53.5t-55 -50.5t-54.5 -39t-49 -18
q-25 -2 -44.5 15t-35 45.5t-26 65t-16.5 73.5t-7 71.5t3 58.5h-7l-25 -37q-49 -74 -93 -128t-89 -89.5t-94 -53t-109 -17.5q-29 0 -51.5 10.5t-36.5 27.5q-8 9 -7 19t9 9q5 -1 14 -5t20.5 -8.5t26 -8t31.5 -3.5q37 0 70 19t64 51t61.5 75t61.5 90q8 13 25 36.5t37 52
t41.5 59t40 56t31.5 44t17 23.5q11 14 27 27t46 21q17 5 27.5 7t21.5 4q11 3 14.5 -8.5t-7.5 -25.5q-3 -3 -17.5 -23.5t-35.5 -50t-45.5 -64.5t-46.5 -67h45q64 0 110.5 20t75.5 50t40.5 65t5.5 65t-28.5 50t-62.5 20q-71 0 -113.5 -13t-73 -40t-57.5 -69t-66 -100
q-40 12 -54 36.5t-6 54t36.5 60t74 55.5t107 40.5t134.5 13.5z" />
    <glyph glyph-name="Q" unicode="Q" horiz-adv-x="535" 
d="M408 6q-31 -5 -55 5.5t-44 28.5q-41 -21 -80 -32t-73.5 -11t-63 11.5t-47.5 34.5q-29 34 -33.5 86.5t14.5 114.5t59.5 128.5t100.5 128.5q60 61 126 103.5t126.5 61.5t110.5 12t80 -44q26 -33 25 -84t-20.5 -108t-52 -115.5t-69.5 -107.5q-28 -37 -57.5 -67t-60.5 -55
q19 -14 38 -14t45.5 16.5t54.5 41.5t55 54t48 54q14 16 24 20t14.5 -0.5t3.5 -14.5t-10 -21q-30 -39 -64.5 -78t-69 -71t-67 -53.5t-58.5 -24.5zM484 272q40 56 67.5 111.5t40 103.5t8.5 83.5t-28 51.5t-64.5 8.5t-87.5 -34t-95.5 -70t-88.5 -99.5q-48 -68 -73 -132
t-29 -115q41 24 73.5 26.5t58.5 -8t47 -29t40 -36.5q34 26 67 61t64 78zM169 81q18 -12 44 -11.5t56 13.5q-11 13 -22 25.5t-22 22t-23 15.5t-25 6q-9 0 -20 -3.5t-22 -8.5q6 -40 34 -59z" />
    <glyph glyph-name="P" unicode="P" horiz-adv-x="734" 
d="M714 673q93 -3 142.5 -38t61 -86t-12 -109t-76 -108t-131.5 -83t-177 -33h-79q-40 -56 -78 -97t-78 -68t-84 -40t-96 -13q-30 0 -52.5 10.5t-36.5 27.5q-7 9 -6 19t9 9q5 -1 13.5 -5t20.5 -8.5t26.5 -8t31.5 -3.5q37 0 70 19t64 51t61 75t62 90q8 13 25 36.5t37 52
t41.5 59t40 56t31.5 44t17 23.5q11 14 26.5 27t46.5 21q17 5 27 7t21 4q11 3 15 -8.5t-7 -25.5q-2 -3 -15 -20.5t-32 -44t-41 -58.5t-43.5 -62.5t-39.5 -57t-28 -41.5l-19 -28h57q64 0 116.5 28t90 70t58.5 90.5t22 90.5t-19.5 70t-65.5 28q-71 0 -113.5 -13t-73 -40
t-57 -69t-65.5 -100q-40 12 -54.5 36.5t-6 54t37 60.5t74 56t107 40t134.5 13z" />
    <glyph glyph-name="O" unicode="O" horiz-adv-x="523" 
d="M628 631q26 -33 25 -83.5t-20.5 -107.5t-52 -115.5t-69.5 -107.5q-60 -79 -128.5 -130.5t-133 -74t-119 -16t-86.5 44.5q-29 34 -33 86.5t14.5 114.5t59 128.5t100.5 127.5t126 104t126.5 62t111 12t79.5 -45zM483 269q40 56 68 112t40.5 103.5t8 83.5t-28.5 52t-64 8.5
t-87.5 -34t-96 -70t-88.5 -99.5q-40 -57 -64 -112t-32.5 -102t-1.5 -82t31 -51t61.5 -9t80.5 33t88 68.5t85 98.5z" />
    <glyph glyph-name="N" unicode="N" horiz-adv-x="778" 
d="M631 182l310 455q11 15 28 24.5t31 9.5h43q14 0 16.5 -10t-8.5 -24l-422 -605q-12 -14 -26.5 -23t-28.5 -9h-1h-18q-14 0 -21 10t-2 24l79 425q-19 -27 -38 -53.5t-35 -49.5t-28.5 -41.5t-19.5 -28.5q-49 -74 -93 -128t-89 -89.5t-94 -53t-108 -17.5q-30 0 -52.5 10.5
t-36.5 27.5q-7 9 -6.5 19t8.5 9q6 -1 14.5 -5t20 -8.5t26 -8t31.5 -3.5q37 0 70 19t64 51t61.5 75t61.5 90q9 13 30.5 43.5t48.5 68.5t57 80t56 77.5t43.5 60.5t21.5 30q9 12 21 22t32 14q2 1 8 1h18q14 0 14 -11.5t-2 -22.5z" />
    <glyph glyph-name="M" unicode="M" horiz-adv-x="855" 
d="M490 286q-49 -74 -93 -128t-89 -89.5t-94 -53t-108 -17.5q-30 0 -52.5 10.5t-36.5 27.5q-7 9 -6.5 19t8.5 9q6 -1 14.5 -5t20 -8.5t26 -8t31.5 -3.5q37 0 75.5 19t76 51t73 75t66.5 90q8 13 29 43.5t48 69t56 80t54.5 77t43 60.5t21.5 30q10 14 22 24.5t35 12.5q2 1 5 1
h6h9h4h13q14 0 19 -10t-2 -24l-193 -468l428 468q16 15 36.5 24t34.5 9h13h5h29q14 0 16.5 -10t-8.5 -24q-3 -3 -27 -36.5t-60 -83.5t-77.5 -109t-79.5 -113.5t-67 -96.5t-39 -58q-18 -30 -20.5 -43.5t5.5 -15.5q10 -3 34 13.5t53 42.5t58 56.5t49 55.5q13 16 22.5 20.5
t14 0t3.5 -14.5t-8 -22q-7 -10 -23.5 -30t-39 -44.5t-49 -50.5t-54 -48.5t-54 -38.5t-48.5 -20q-29 -6 -45.5 3t-21 27.5t2 44t21.5 53.5q6 11 26.5 42t49.5 73t63.5 91.5t68.5 97.5l-351 -399q-15 -15 -34 -24.5t-33 -9.5h-18h-4q-11 2 -15.5 11t2.5 23l153 388
q-32 -44 -57.5 -81.5t-36.5 -54.5z" />
    <glyph glyph-name="L" unicode="L" horiz-adv-x="400" 
d="M271 1q-21 -3 -33.5 2.5t-22.5 13t-19.5 15.5t-22.5 11q-11 2 -24.5 -2t-26.5 -11q-15 -8 -30 -19q5 9 11 19q5 8 11.5 16.5t13.5 15.5l17 12l-30 -42q-12 -15 -28.5 -24.5t-30.5 -9.5h-29q-14 0 -16.5 10t8.5 24l423 604q11 15 28 24.5t31 9.5h29q14 0 16 -10t-9 -24
l-392 -562q41 30 65.5 35t40 -1t26 -15.5t24.5 -9.5q19 0 44.5 16.5t53 41.5t54 54t47.5 54q13 16 23 20t14.5 -0.5t3.5 -14.5t-10 -21q-30 -39 -64.5 -78.5t-69.5 -72.5t-68 -55t-58 -26z" />
    <glyph glyph-name="K" unicode="K" horiz-adv-x="715" 
d="M491 286q-49 -74 -93 -128t-89 -89.5t-94 -53t-109 -17.5q-30 0 -52.5 10.5t-36.5 27.5q-7 9 -6 19t9 9q5 -1 13.5 -5t20.5 -8.5t26.5 -8t31.5 -3.5q37 0 70 19t64 51t61 75t62 90q9 13 29.5 42.5t47 67t56 78t54 75.5t42 59t21.5 29q11 15 26 27t42 12h40q14 0 16 -10
t-9 -24q-3 -3 -23 -31t-48 -67.5t-60 -84.5t-59 -83q24 4 58 20.5t73 41t80 55t80 61.5t72.5 61t57.5 54q11 11 27.5 13.5t44.5 2.5q13 0 25.5 -0.5t18 -4t1.5 -13t-22 -27.5q-26 -25 -62.5 -53.5t-78.5 -57t-87 -55.5t-86.5 -50.5t-77 -41.5t-58.5 -27q-6 -26 -10 -69.5
t-4 -86t5.5 -74t18.5 -32.5q15 -2 40 15t52.5 42.5t55 55.5t47.5 55q14 16 23.5 20.5t14 0t3.5 -14.5t-9 -22q-7 -10 -23.5 -31t-39 -46t-49.5 -52t-54.5 -49.5t-54 -37.5t-48.5 -17q-23 -2 -38.5 13t-24.5 41.5t-13 60.5t-3.5 70t3.5 70t8 60l-19 -29v0z" />
    <glyph glyph-name="J" unicode="J" horiz-adv-x="485" 
d="M505 286q-49 -74 -92 -128t-87 -89.5t-92 -53t-107 -17.5q-44 0 -71.5 21.5t-38 53.5t-5 70t25.5 71t54 56t82 25q29 1 41 -14.5t12.5 -34t-8 -33.5t-20.5 -13q-39 6 -67.5 -4t-46.5 -27.5t-24.5 -40t-1 -42.5t23.5 -33.5t49 -13.5q37 0 70 19t64.5 51t61.5 75t62 90
q8 13 28.5 42.5t47 67t55.5 78t54 75.5t43 59t22 29q-55 0 -96.5 -7.5t-73 -16.5t-55 -16.5t-41.5 -7.5q-16 0 -15 13.5t11.5 30t28 30t34.5 13.5h308q14 0 16.5 -10t-8.5 -24q-3 -3 -19 -25.5t-40 -55.5t-52 -72.5t-54 -76.5t-47.5 -68t-31.5 -46z" />
    <glyph glyph-name="I" unicode="I" horiz-adv-x="215" 
d="M485 637q-2 -2 -16.5 -22t-37 -51.5t-51 -72t-59 -83.5t-60.5 -86t-55 -79.5t-43.5 -63.5t-25.5 -39q-20 -30 -22 -43.5t6 -15.5q10 -3 34 13.5t53 42.5t58 56.5t49 55.5q14 16 23.5 20.5t14 0t3.5 -14.5t-9 -22q-7 -10 -23.5 -30t-39 -44.5t-49.5 -50.5t-54.5 -48.5
t-54 -38.5t-48.5 -20q-29 -6 -45 3t-20.5 27.5t1.5 44t22 53.5q6 10 23.5 36.5t42.5 62.5t55 79.5t61 88t60.5 86t53 75t39 55t18.5 25.5q-23 0 -34 5.5t-12.5 11.5t6.5 11.5t24 5.5h105q14 0 16 -10t-9 -24z" />
    <glyph glyph-name="H" unicode="H" horiz-adv-x="728" 
d="M401 323q17 24 39 54.5t45 63t46 63.5t41.5 56.5t31 43t15.5 21.5q11 15 25.5 27t41.5 12h40q14 0 16 -10t-9 -24q-2 -3 -14.5 -20t-31 -43t-42 -58.5t-47 -66t-45.5 -64.5t-39 -55h53q35 0 58.5 -9.5t33.5 -20.5q38 54 79 113t76.5 108.5t59.5 83.5t28 39
q11 15 28.5 24.5t31.5 9.5h28q14 0 16.5 -10t-8.5 -24q-3 -3 -27 -36.5t-59.5 -83.5t-77.5 -109t-79.5 -113.5t-66.5 -96.5t-39 -58q-19 -30 -21 -43.5t6 -15.5q10 -3 34 13.5t52.5 42.5t57.5 56.5t50 55.5q13 16 22.5 20.5t14 0t3.5 -14.5t-9 -22q-7 -10 -23.5 -30
t-39 -44.5t-49 -50.5t-54 -48.5t-54 -38.5t-48.5 -20q-29 -6 -45 3t-20.5 27.5t1.5 44t21 53.5q8 12 32.5 49.5t59.5 87.5h-164q-47 -69 -89 -119.5t-85.5 -83.5t-91.5 -49t-105 -16q-29 0 -51.5 10.5t-36.5 27.5q-8 9 -7 19t9 9q5 -1 14 -5t20.5 -8.5t26 -8t31.5 -3.5
q36 0 68.5 18t63 49t60 72.5t59.5 87.5h-27q-26 0 -44.5 9t-26.5 19.5t-5 19.5t21 9h121z" />
    <glyph glyph-name="G" unicode="G" horiz-adv-x="458" 
d="M409 318q-15 0 -22.5 5t-7.5 11.5t8.5 11.5t25.5 5h84q14 0 16 -9.5t-9 -23.5q-4 -5 -18.5 -24t-33 -45.5t-38.5 -55t-35 -52.5q-19 -31 -21 -44t6 -16q10 -3 33.5 13.5t52.5 42.5t58 56.5t50 55.5q13 16 22.5 20.5t14 0t3.5 -14.5t-9 -22q-7 -10 -23.5 -30t-39 -44.5
t-49 -50.5t-54 -48.5t-54 -38.5t-48.5 -20q-35 -7 -51 6t-17 38q-25 -23 -51 -35t-55 -9q-58 5 -90.5 37t-42 80t3 108t44 121.5t81.5 120t115.5 104t145 73t170.5 27.5q14 0 26 -2t18.5 -7t7.5 -14t-7 -22q-8 -16 -26.5 -34t-41.5 -26q-11 -3 -24 -4.5t-23 0.5t-14.5 7
t3.5 14q4 6 8.5 11.5t7.5 10.5t4 9.5t-3 7.5q-71 -14 -132.5 -56t-109 -98.5t-80 -120t-45.5 -119.5t-5 -98.5t40 -55.5q26 -11 54 11.5t59 64.5q14 22 32 48.5t35 50t31 42t20 26.5z" />
    <glyph glyph-name="F" unicode="F" horiz-adv-x="620" 
d="M337 362q-47 0 -76.5 23t-40 57.5t-0.5 74.5t42.5 74.5t87.5 57.5t136 23h614q15 0 20 -7.5t2 -19.5t-12 -25t-21.5 -25t-27 -19.5t-28.5 -7.5q-13 0 -45 3t-75.5 8.5t-95 11.5t-103.5 12q-17 -23 -43.5 -60t-55.5 -78.5t-57.5 -81t-47.5 -67.5h54q33 0 56.5 -9
t34.5 -19.5t7.5 -19.5t-23.5 -9h-167q-45 -67 -87 -116t-85 -81.5t-90.5 -48t-103.5 -15.5q-59 0 -89 38q-7 9 -6.5 18.5t8.5 9.5q6 -1 14.5 -5t20.5 -8.5t26.5 -8t31.5 -3.5q36 0 68.5 18.5t63 50t60.5 73t61 88.5q-13 6 -20.5 14t-9 15.5t3.5 12.5t18 5h41q22 32 53.5 76
t62.5 88t57.5 80.5t38.5 53.5q-38 4 -70 6t-54 2q-52 0 -86.5 -12.5t-53 -31.5t-22 -41.5t7 -41.5t33.5 -31.5t57 -12.5q19 0 18 -14t-15 -30.5t-37.5 -30.5t-50.5 -14z" />
    <glyph glyph-name="E" unicode="E" horiz-adv-x="459" 
d="M353 524q-40 -60 -10 -98.5t121 -38.5q25 0 36.5 -6.5t9.5 -14.5t-18.5 -15.5t-46.5 -8.5q-72 -3 -127.5 -21.5t-93.5 -45.5t-57 -58.5t-18.5 -61t22 -52.5t65.5 -33q46 -11 91.5 4.5t87.5 44.5t79 64.5t65 65.5q14 15 24.5 18t15.5 -0.5t3.5 -13t-11.5 -20.5
q-32 -36 -70 -77t-84.5 -75.5t-102 -57.5t-121.5 -23q-75 0 -122 21t-66.5 54t-12.5 74t40.5 81t92.5 75t144 57q-48 10 -69.5 32.5t-20.5 51t21.5 59.5t56.5 58q66 51 154.5 80t185.5 29q14 0 26 -2t19 -7t7.5 -14t-6.5 -22q-8 -16 -27 -34t-42 -26q-11 -3 -24 -4.5
t-23 0.5t-14 7t3 14q8 11 16.5 21.5t1.5 17.5q-25 -1 -53.5 -8t-56 -19t-51.5 -30t-40 -42z" />
    <glyph glyph-name="D" unicode="D" horiz-adv-x="834" 
d="M717 673q79 -2 127 -32t69 -77.5t16.5 -107.5t-31 -122.5t-73 -122.5t-110 -106.5t-141.5 -75t-168 -28.5q-54 0 -82.5 15.5t-42.5 32.5q-39 -26 -81.5 -38.5t-93.5 -12.5q-30 0 -52.5 10.5t-36.5 27.5q-7 9 -6.5 19t8.5 9q6 -1 14.5 -5t20.5 -8.5t26.5 -8t31.5 -3.5
q37 0 70 19t64 51t61 75t62 90q8 13 24.5 36.5t37 52t42 59t40 56t31.5 44t17 23.5q11 14 26.5 27t46.5 21q17 5 27 7t21 4q11 3 15 -8.5t-7 -25.5q-2 -3 -15 -20.5t-32 -44t-41 -58.5t-43.5 -62.5t-40 -57t-28.5 -41.5q-48 -72 -90 -124.5t-86 -88.5q15 -10 36.5 -17.5
t49.5 -7.5q53 0 107.5 25t105 66t94 93.5t75 107.5t48.5 107.5t13 93.5t-30.5 66t-81.5 25q-71 0 -113 -12.5t-71.5 -39t-56 -68t-65.5 -99.5q-40 12 -54 36.5t-6 54t36.5 60t74 55.5t107 40.5t134.5 13.5z" />
    <glyph glyph-name="C" unicode="C" horiz-adv-x="416" 
d="M551 567q-11 -3 -24 -4.5t-23 0.5t-14.5 7t3.5 14q4 6 8.5 11.5t7.5 10.5t4 9.5t-3 7.5q-74 -14 -136.5 -58.5t-110.5 -103t-79 -123.5t-42 -122t1 -97.5t50 -48.5q45 -11 91 4.5t88 44.5t79 64.5t65 65.5q14 15 24.5 18t15.5 -0.5t3.5 -13t-11.5 -20.5q-32 -36 -70 -77
t-84.5 -75.5t-102 -57.5t-121.5 -23q-65 0 -102 29t-50 76t-3 107.5t41 123.5t81 123.5t116 107.5t147 76t174 29q14 0 26 -2t19 -7t7.5 -14t-6.5 -22q-9 -16 -27.5 -34t-41.5 -26z" />
    <glyph glyph-name="B" unicode="B" horiz-adv-x="830" 
d="M714 673q82 -2 133 -21t74.5 -47.5t22 -63.5t-23.5 -69t-63.5 -63t-97.5 -46q40 -27 55.5 -64t9 -77.5t-33.5 -80t-73 -70.5t-109.5 -50.5t-142.5 -19.5q-68 0 -108 5t-61.5 11.5t-28 12t-6.5 6.5q-69 -38 -155 -38q-61 0 -89 38q-8 9 -7 19t9 9q6 -1 14.5 -5t20.5 -8.5
t26.5 -8t31.5 -3.5q37 0 70 19t64 51t61 75t62 90q8 13 24.5 36.5t37 52t42 59t40 56t31.5 44t17 23.5q11 14 26.5 27t46.5 21q17 5 27 7t21 4q11 3 15 -8.5t-7 -25.5q-3 -3 -17.5 -23.5t-36 -50t-46 -64.5t-46.5 -67h47q64 0 110.5 20t75.5 50t40.5 65t6 65t-28 50
t-62.5 20q-71 0 -113.5 -13t-73.5 -40t-57.5 -69t-65.5 -100q-40 12 -54.5 36.5t-6.5 54t36.5 60t74 55.5t107 40.5t134.5 13.5zM490 286q-51 -76 -95.5 -131t-91.5 -91q16 -8 52 -14.5t110 -6.5q61 0 107.5 20.5t77 52t43 67.5t5.5 67.5t-35 52t-80 20.5h-68zM286 93
q-1 0 -1 -1v-2z" />
    <glyph glyph-name="z" unicode="z" horiz-adv-x="334" 
d="M355 333q7 10 17.5 12.5t19.5 0t13.5 -8.5t-0.5 -14q-16 -25 -41.5 -53t-57 -56.5t-67.5 -57t-72 -54.5q12 1 20 -2t14.5 -6.5t13 -6.5t15.5 -3q19 0 45.5 16.5t55 41t56 53.5t47.5 54q13 16 23 20t15 -0.5t4 -14.5t-10 -21q-30 -39 -65.5 -78.5t-71.5 -72t-69.5 -54.5
t-59.5 -26q-21 -3 -31.5 2t-17.5 13l-14 16t-20 11q-12 3 -27.5 -2.5t-29.5 -13.5q-7 -5 -13.5 -9t-13.5 -8q-15 -9 -25.5 -8t-14 8.5t1 18t19.5 20.5q35 23 72 48.5t73.5 53t70.5 55.5t63 55q-43 -13 -76 -5t-51 27q-12 -26 -36 -54q-12 -13 -22 -16.5t-15 0t-4 13t11 22.5
q15 19 29 40.5t18 36.5v6q0 12 15.5 18.5t35 7.5t37 -3.5t21.5 -15.5q4 -10 13 -19t22 -12t29.5 2t34.5 23z" />
    <glyph glyph-name="y" unicode="y" horiz-adv-x="355" 
d="M73 -230q-8 -14 -21 -11t-24 15t-15.5 30.5t4.5 36.5q4 10 21 35t41.5 58.5t54.5 73t60 77.5q-34 -31 -68.5 -54.5t-61.5 -28.5q-29 -6 -45 3t-20.5 28t1.5 44.5t22 52.5q11 20 30.5 49.5t39.5 58t37 51.5t23 30q11 15 28 24t31 9h29q14 0 16.5 -9.5t-8.5 -23.5
q-4 -5 -19 -24t-33.5 -45.5t-38.5 -55t-35 -52.5q-19 -30 -21 -43.5t6 -15.5q9 -3 31 11.5t49 38t55 52.5t49 54q23 33 38.5 54.5t19.5 25.5q11 15 28 24t31 9h29q14 0 16 -9.5t-9 -23.5q-3 -3 -19.5 -25.5t-43.5 -60.5t-62.5 -89.5t-75.5 -111.5t-83.5 -126.5t-86.5 -135.5
z" />
    <glyph glyph-name="x" unicode="x" horiz-adv-x="324" 
d="M-2 11q-15 -9 -25.5 -7.5t-14 9t1 18t20.5 19.5q32 19 60 36t53 34q0 1 -0.5 1.5t-0.5 1.5q-3 22 -1.5 47t4.5 47.5t7 39.5t6 24q8 29 20.5 48.5t37.5 20.5h16q24 0 33 -5t-2 -29q-10 -21 -18 -54t-10 -68q31 29 60.5 62.5t61.5 76.5q9 12 27.5 16t34.5 2t25.5 -8.5
t0.5 -16.5q-38 -42 -93 -91.5t-117 -97.5q1 -2 0.5 -3t0.5 -3q2 -15 5.5 -27.5t9 -21t14 -10.5t21.5 4q19 9 43 27.5t49.5 42.5t50.5 51t45 52q14 16 23.5 20t14 0t3.5 -14t-9 -22q-11 -16 -40.5 -50.5t-67.5 -72t-79 -68.5t-74 -40q-23 -6 -39 -2.5t-27 14t-18 26.5t-11 35
q-26 -18 -51.5 -34t-50.5 -30z" />
    <glyph glyph-name="w" unicode="w" horiz-adv-x="504" 
d="M416 316q-3 -3 -11 -14t-17.5 -23.5t-18.5 -25t-13 -18.5q-56 -91 -66.5 -130t18.5 -39q23 0 51.5 28t58.5 69q-15 22 -7 60.5t52 92.5q10 12 26 18.5t32 8t28.5 -0.5t16.5 -7q5 -6 1 -19.5t-15 -33t-28.5 -44t-39.5 -51.5v-1q9 -2 21.5 -0.5t27.5 8t33 19.5t38 36
q13 15 23 19t14.5 -0.5t2 -15.5t-15.5 -27q-45 -55 -93.5 -74.5t-82.5 -10.5q-20 -27 -41.5 -52.5t-44.5 -45t-48 -31.5t-51 -12q-45 0 -63 25t-4 79q-35 -37 -71 -66t-66 -35q-29 -6 -46.5 2t-23 25.5t1 43.5t25.5 57q12 20 31.5 49.5t39.5 58t36.5 51.5t22.5 30
q12 15 29 24t31 9h29q14 0 16 -9.5t-9 -23.5q-4 -5 -18.5 -24t-33 -45.5t-38.5 -55t-35 -52.5q-19 -30 -21 -43.5t6 -15.5q9 -3 27 11t40.5 37t46.5 51.5t43 54.5q6 9 14 20.5t16 22.5t15.5 21t11.5 15q10 15 26 24.5t30 9.5h29q14 0 17 -10t-6 -24z" />
    <glyph glyph-name="v" unicode="v" horiz-adv-x="361" 
d="M244 316q-3 -3 -11 -14t-17 -23.5l-18 -25t-13 -18.5q-56 -91 -66.5 -130t18.5 -39q12 0 27.5 8t33 21.5t36.5 32t38 39.5q-12 23 -2.5 60.5t51.5 88.5q10 12 25.5 18.5t31.5 8t28.5 -0.5t16.5 -7q5 -6 1 -20t-15 -33.5t-29 -44t-40 -51.5q9 -2 21.5 -0.5t28 8t33.5 19.5
t38 36q13 15 23 19t14.5 -0.5t2 -15.5t-15.5 -27q-47 -57 -97 -76t-84 -7q-23 -27 -48 -53t-52 -46t-54.5 -32t-53.5 -12q-33 0 -52 14t-20.5 43t14.5 73.5t54 105.5q5 9 13.5 21t16.5 23.5t15.5 21.5t10.5 15q11 15 27 24.5t30 9.5h29q14 0 17 -10t-7 -24z" />
    <glyph glyph-name="u" unicode="u" 
d="M246 319q-4 -5 -18.5 -24t-33 -45.5t-38.5 -55t-35 -52.5q-19 -30 -21 -43.5t6 -15.5q10 -3 33 12.5t51 41t56.5 55.5t49.5 55q18 26 33 45.5t20 26.5q12 15 29 24t31 9h28q14 0 16.5 -9.5t-8.5 -23.5q-4 -5 -18.5 -24t-33.5 -45.5t-39 -55t-34 -52.5q-19 -30 -21 -43.5
t5 -15.5q10 -3 34 13t52.5 42t57.5 56t49 55q13 16 22.5 20.5t14 0t3.5 -14.5t-8 -22q-7 -10 -23 -30t-38.5 -44t-49.5 -50t-54.5 -48t-53.5 -38.5t-48 -20.5q-24 -5 -39.5 1t-22.5 19t-6.5 31.5t8.5 40.5q-36 -34 -73 -60t-66 -32t-46.5 2t-23 25.5t1 43.5t25.5 57
q12 20 31.5 49.5t39.5 58t36.5 51.5t22.5 30q12 15 29 24t31 9h29q14 0 16 -9.5t-9 -23.5z" />
    <glyph glyph-name="t" unicode="t" horiz-adv-x="197" 
d="M106 522q24 0 75 0.5t115 1.5l43 58q11 14 28 23.5t31 9.5h29q14 0 16.5 -9.5t-8.5 -23.5q-2 -2 -13.5 -17.5t-28.5 -38.5q50 0 99 0.5t90.5 1t72 1t44.5 0.5q25 1 47.5 -9t34.5 -22.5t9 -23.5t-28 -11q-15 0 -58.5 -2t-103 -5t-129 -6t-138.5 -6q-31 -43 -65 -90
t-64 -89.5t-52.5 -75.5t-31.5 -47q-18 -30 -20 -43.5t5 -15.5q10 -3 33.5 13t52 42t57.5 56t49 55q14 16 24 20.5t14.5 0t3 -14.5t-8.5 -22q-7 -10 -23.5 -30t-39 -44t-49 -50t-54 -48t-53.5 -38.5t-48 -20.5q-30 -6 -46 3t-20.5 28t1.5 44.5t21 52.5q7 12 29.5 45.5
t53.5 77t66 93t67 94.5q-68 -3 -118.5 -5t-66.5 -2q-26 -1 -29 13t8 30.5t32.5 31t44.5 14.5z" />
    <glyph glyph-name="s" unicode="s" horiz-adv-x="284" 
d="M122 282q25 32 69 50t102 18q28 0 44 -9t1 -36q-9 -16 -27.5 -34t-41.5 -26q-11 -3 -24 -4.5t-23 0.5t-14 7t3 14q4 5 10 11.5t11 13.5t7.5 12.5t-0.5 9.5q-14 2 -34 -7t-31 -26q-10 -15 -3.5 -26.5t20.5 -21.5t31.5 -21.5t29.5 -26.5t14.5 -36t-13.5 -51
q-13 -24 -34 -42.5t-46 -30t-53.5 -16t-56.5 -2.5q-40 3 -57.5 22t-18 41.5t12 43.5t31.5 30q10 5 25.5 5t27.5 -3t18 -9t-3 -14q-7 -7 -16 -17.5t-14.5 -22t-5.5 -21t11 -13.5q11 -5 26 -4t30 7.5t28 18t20 29.5t-1 31t-21.5 24.5t-29 23t-24 26t-5.5 34.5t25 48z" />
    <glyph glyph-name="r" unicode="r" horiz-adv-x="298" 
d="M398 249q11 10 21 13.5t16 1.5t5.5 -10t-10.5 -21q-37 -45 -79 -71t-78 -36.5t-61.5 -7.5t-28.5 16q-2 8 8.5 25t25.5 37.5t31.5 40.5t26.5 34q-16 -4 -38.5 -19.5t-45.5 -36t-44.5 -43.5t-35.5 -43t-26 -37.5t-21 -30.5q-11 -15 -19 -27q-12 -15 -29 -24.5t-31 -9.5h-29
q-14 0 -16 10t9 24l201 285q11 15 28 24t31 9h29q14 0 16.5 -9.5t-8.5 -23.5l-35 -47q31 27 61 45.5t54.5 28.5t42 11t24.5 -6q13 -14 1 -38.5t-33 -50.5t-42 -49t-25 -34q32 11 55.5 28t48.5 42z" />
    <glyph glyph-name="q" unicode="q" horiz-adv-x="374" 
d="M89 240q46 45 88 71t78 35.5t64.5 4t46.5 -21.5q26 23 50 23h29q14 0 16.5 -9.5t-8.5 -23.5q-3 -3 -24 -32t-54.5 -76t-76.5 -110.5t-91 -135.5h27q33 0 56.5 -9t34 -19.5t7 -19.5t-23.5 -9h-139q-22 -33 -43.5 -68t-43.5 -70q-8 -14 -21.5 -11t-24.5 15t-15.5 30.5
t4.5 36.5q4 8 15.5 25.5t28.5 41.5h-68q-26 0 -44.5 9t-27 19.5t-5 19.5t21.5 9h165q26 35 55.5 73.5t58.5 74.5q-18 -18 -40 -37.5t-46 -36.5t-49 -28t-47 -11q-28 0 -43 19t-12 51.5t27 76t74 93.5zM137 200q-23 -27 -36 -53.5t-12.5 -44t15 -20.5t46.5 17q24 15 53.5 43
t57 59t50.5 58.5t34 42.5q-23 13 -51.5 7t-57 -23t-55 -40.5t-44.5 -45.5z" />
    <glyph glyph-name="p" unicode="p" horiz-adv-x="363" 
d="M71 28q-9 14 -10 30q-44 -65 -91 -138t-95 -150q-8 -14 -21.5 -11t-24.5 15t-15.5 30.5t4.5 36.5q3 6 18.5 29.5t39 58t52.5 76t59.5 84.5t59 84t51 73t37 52t15.5 21q11 15 28 24t31 9h29q14 0 16.5 -9.5t-8.5 -23.5l-17 -22q53 36 98.5 49.5t68.5 -9.5q15 -16 13.5 -44
t-16.5 -62t-41.5 -71t-59.5 -71q-34 -34 -68 -54.5t-64 -27.5t-53.5 -1.5t-35.5 22.5zM159 195q-26 -33 -40 -57.5t-18.5 -42t-2 -28.5t9.5 -16q18 -12 54.5 7.5t74.5 69.5q19 25 35 49.5t25.5 46t11 37t-6.5 22.5t-24 3.5t-36 -15.5t-42 -31.5t-41 -44.5z" />
    <glyph glyph-name="o" unicode="o" horiz-adv-x="337" 
d="M356 330q16 -18 18 -45.5t-10 -60.5t-36 -68t-59 -67q-34 -32 -70.5 -53.5t-69.5 -31t-61 -6.5t-44 21q-17 18 -18.5 45.5t10.5 60.5t35.5 68t58.5 67q34 33 70.5 54.5t70 31t61 6t44.5 -21.5zM255 154q19 25 32 49t19 45t4.5 36.5t-10.5 22.5q-10 7 -25.5 4t-34 -15
t-39 -31t-39.5 -44t-31.5 -49t-18.5 -44.5t-4.5 -36t10.5 -22.5q10 -7 25.5 -4t34 14.5t38.5 30.5t39 44z" />
    <glyph glyph-name="n" unicode="n" horiz-adv-x="387" 
d="M358 350q26 4 43 -2t18 -25.5t-17.5 -55t-63.5 -91.5q-23 -27 -33.5 -45t-14 -28.5t-1.5 -14.5t6 -5q10 -3 33.5 13t52 42t57.5 56t49 55q14 16 23.5 20.5t14 0t3.5 -14.5t-9 -22q-7 -10 -23.5 -30t-39 -44t-49 -50t-53.5 -48t-53.5 -38.5t-47.5 -20.5q-30 -6 -49 4
t-22.5 32.5t10 57.5t48.5 80q42 53 61.5 77.5t8.5 29.5q-9 5 -37.5 -14t-64.5 -50.5t-72.5 -70t-60.5 -72.5q-2 -4 -4 -5l-26 -37q-12 -15 -29 -24.5t-31 -9.5h-29q-14 0 -16 10t9 24l201 285q11 15 28 24t31 9h29q14 0 16.5 -9.5t-8.5 -23.5l-36 -51q38 32 75.5 54.5
t72.5 27.5z" />
    <glyph glyph-name="m" unicode="m" horiz-adv-x="582" 
d="M554 350q26 4 43 -2t18 -25.5t-18 -55t-64 -91.5q-23 -27 -33.5 -45t-14 -28.5t-1.5 -14.5t6 -5q10 -3 33.5 13t52 42t57.5 56t49 55q14 16 23.5 20.5t14 0t3.5 -14.5t-8 -22q-7 -10 -23.5 -30t-39 -44t-49 -50t-54 -48t-53.5 -38.5t-48 -20.5q-30 -6 -49 4t-22.5 32.5
t10 57.5t48.5 80q42 53 61.5 77.5t8.5 29.5q-8 4 -31.5 -10.5t-54.5 -40.5t-64 -59t-60 -65l-54 -74q-10 -14 -27.5 -24t-31.5 -10h-29q-14 0 -16 10t9 24q15 22 32 47q14 21 32 46t38 49q42 52 61.5 77t8.5 30q-6 3 -22 -4.5t-37.5 -23t-47 -37t-50.5 -46t-47.5 -49.5
t-38.5 -47q-2 -4 -4 -5l-26 -37q-12 -15 -29 -24.5t-31 -9.5h-29q-14 0 -16 10t9 24l201 285q11 15 28 24t31 9h29q14 0 16.5 -9.5t-8.5 -23.5l-42 -60q42 35 84 60.5t79 30.5q19 3 33 0.5t20.5 -11.5t4 -25.5t-15.5 -42.5q37 31 74 52.5t71 26.5z" />
    <glyph glyph-name="l" unicode="l" horiz-adv-x="199" 
d="M470 638q-2 -3 -26 -36.5t-59.5 -83t-77.5 -109t-80 -113.5t-67 -96t-38 -58q-19 -30 -21.5 -43.5t5.5 -15.5q10 -3 34 13t52.5 42t57.5 56t49 55q13 16 22.5 20.5t14 0t3.5 -14.5t-8 -22q-7 -10 -23.5 -30t-39 -44t-49 -50t-54 -48t-53.5 -38.5t-48 -20.5
q-29 -6 -45.5 3t-21 28t2 44.5t21.5 52.5q6 10 23.5 36.5t42.5 63t55 80t61 87.5t60.5 86t53 75t39 54.5t18.5 25.5q12 15 29 24.5t31 9.5h29q14 0 16 -10t-9 -24z" />
    <glyph glyph-name="k" unicode="k" horiz-adv-x="386" 
d="M284 76q15 -2 41 16t55 44.5t57 57t49 55.5q13 16 22.5 20.5t14 0t3.5 -14.5t-9 -22q-7 -10 -23 -30.5t-38.5 -45.5t-49 -51.5t-53.5 -48.5t-53.5 -37.5t-48.5 -17.5q-26 -3 -45.5 13t-33.5 41.5t-22.5 55t-12.5 53.5l-92 -131q-12 -15 -28.5 -24.5t-30.5 -9.5h-29
q-14 0 -16.5 10t8.5 24l423 604q11 15 28 24.5t31 9.5h29q14 0 16.5 -10t-8.5 -24l-288 -411q30 5 56.5 20.5t48 33t37 33.5t22.5 22q7 7 13.5 10t13 4.5t15.5 1.5h23q13 0 26 -1t19 -5t2.5 -13.5t-23.5 -25.5t-46 -34t-53.5 -34.5t-55 -30t-51.5 -19.5q2 -15 6.5 -34.5
t11 -36.5t16.5 -29t23 -13z" />
    <glyph glyph-name="j" unicode="j" horiz-adv-x="160" 
d="M-125 -230q-8 -14 -21.5 -11t-24.5 15t-15.5 30.5t4.5 36.5q4 8 29.5 46t62 90.5t78 112t77.5 110t60 84t25 35.5q12 15 28.5 24t30.5 9h29q14 0 16.5 -9.5t-8.5 -23.5q-3 -3 -19.5 -25.5t-43.5 -60.5t-62.5 -89.5t-75.5 -111.5t-83.5 -126.5t-86.5 -135.5zM338 473
q0 -23 -16 -39t-39 -16t-38.5 16t-15.5 39t15.5 38.5t38.5 15.5t39 -15.5t16 -38.5z" />
    <glyph glyph-name="i" unicode="i" horiz-adv-x="200" 
d="M248 319q-4 -5 -19 -24t-33.5 -45.5t-38.5 -55t-35 -52.5q-19 -30 -21 -43.5t6 -15.5q10 -3 33.5 13t52 42t57.5 56t50 55q13 16 22.5 20.5t14 0t3.5 -14.5t-9 -22q-7 -10 -23 -30t-38.5 -44t-49.5 -50t-54.5 -48t-53.5 -38.5t-48 -20.5q-29 -6 -45 3t-20.5 28t1.5 44.5
t22 52.5q11 20 30.5 49.5t39.5 58t37 51.5t23 30q11 15 28 24t31 9h29q14 0 16.5 -9.5t-8.5 -23.5zM346 473q0 -23 -15.5 -39t-38.5 -16t-39 16t-16 39t16 38.5t39 15.5t38.5 -15.5t15.5 -38.5z" />
    <glyph glyph-name="h" unicode="h" horiz-adv-x="386" 
d="M357 350q26 4 43 -2t18 -25.5t-17.5 -55t-63.5 -91.5q-23 -27 -34 -45t-14.5 -28.5t-1.5 -14.5t6 -5q10 -3 33.5 13t52 42t57.5 56t50 55q13 16 22.5 20.5t14 0t3.5 -14.5t-9 -22q-7 -10 -23 -30t-38.5 -44t-49.5 -50t-54 -48t-53.5 -38.5t-47.5 -20.5q-29 -6 -48 4
t-23 32.5t9.5 57.5t49.5 80q41 53 61 77.5t9 29.5q-9 4 -34.5 -12t-57.5 -43.5t-66.5 -62.5t-61.5 -68l-44 -63q-12 -15 -29 -24.5t-31 -9.5h-29q-14 0 -16 10t9 24l422 604q11 15 28 24.5t31 9.5h29q14 0 16.5 -10t-8.5 -24l-259 -370q38 32 76 54.5t73 27.5z" />
    <glyph glyph-name="g" unicode="g" horiz-adv-x="365" 
d="M89 240q46 45 88 71t78 35.5t64 4t46 -21.5q11 11 25 17t26 6h29q14 0 16.5 -9.5t-8.5 -23.5q-3 -3 -19.5 -25.5t-43.5 -60.5t-62.5 -89.5t-76 -111.5t-83.5 -126.5t-86 -135.5q-8 -14 -21.5 -11t-24.5 15t-15.5 30.5t4.5 36.5q5 11 25 40t48.5 68t63 83t67.5 85
q-18 -18 -40.5 -38.5t-47.5 -38t-50 -29t-48 -11.5q-28 0 -43 19t-12 51.5t27 76t74 93.5zM137 200q-24 -27 -36.5 -53.5t-12 -44t15 -20.5t45.5 17q24 15 54 43t57.5 59t50 58.5t33.5 42.5q-23 13 -51.5 7t-57 -23t-54.5 -40.5t-44 -45.5z" />
    <glyph glyph-name="f" unicode="f" horiz-adv-x="199" 
d="M146 316q0 1 2 3q29 42 59.5 86t62.5 85t64.5 77t65 61t63.5 37t61 5q31 -7 35 -38t-24.5 -79t-92.5 -109t-169 -128q31 -1 53 -10t32 -19.5t6 -19t-23 -8.5h-137l-278 -428q-12 -15 -29 -24.5t-31 -9.5h-29q-14 0 -16 10t9 24q51 80 101 158q21 33 44.5 69t46.5 71.5
t44.5 68.5t40.5 61q-24 1 -41 10.5t-24 19.5t-3.5 18.5t20.5 8.5h87zM510 616q-6 10 -21.5 1.5t-37 -29.5t-46 -50.5t-49 -61.5t-46.5 -63t-38 -53q24 14 53 35.5t57.5 46.5t54.5 51t44 49.5t26.5 43t2.5 30.5z" />
    <glyph glyph-name="e" unicode="e" horiz-adv-x="329" 
d="M366 256q-15 -22 -40.5 -42t-58.5 -36t-72 -27t-80 -14q-6 -25 -1 -43.5t25 -23.5q20 -6 55 8t76 40t83 60.5t76 70.5q13 15 23.5 18t15.5 -0.5t3.5 -13t-10.5 -20.5q-32 -36 -77 -77t-93 -75.5t-94 -57.5t-82 -23q-52 0 -74 26t-19.5 65.5t26.5 85t63 85t90.5 65.5
t109.5 26q23 0 40 -7.5t25.5 -20t6.5 -30.5t-17 -39zM246 304q-17 -6 -34 -18.5t-32.5 -30t-28.5 -37.5t-22 -40q45 5 78 18.5t54 30t30.5 34t8 29.5t-15 17t-38.5 -3z" />
    <glyph glyph-name="d" unicode="d" horiz-adv-x="406" 
d="M89 240q45 45 87 71t77.5 35.5t64 4.5t46.5 -21q36 52 73.5 105t68.5 96.5t52 72.5t24 34q12 15 29 24.5t31 9.5h28q14 0 16.5 -10t-8.5 -24q-2 -3 -26.5 -36.5t-60 -83t-77.5 -109t-80 -113.5t-67 -96t-38 -58q-19 -30 -21 -43.5t6 -15.5q10 -3 33.5 13t52 42t57.5 56
t49 55q14 16 23.5 20.5t14 0t3.5 -14.5t-9 -22q-7 -10 -23 -30t-38.5 -44t-49.5 -50t-54 -48t-53.5 -38.5t-47.5 -20.5q-26 -5 -42 1.5t-22 21.5t-4 35.5t12 44.5q-18 -18 -39.5 -36.5t-44 -33.5t-45.5 -25t-44 -10q-28 0 -43.5 19t-12.5 51.5t27 76t75 93.5zM136 200
q-24 -27 -36.5 -53.5t-12 -44t15 -20.5t45.5 17q24 15 54 43t57.5 59t50.5 58.5t34 42.5q-24 13 -52.5 7t-57 -23t-54.5 -40.5t-44 -45.5z" />
    <glyph glyph-name="c" unicode="c" horiz-adv-x="308" 
d="M287 248q-11 -4 -24 -5t-23.5 1t-14.5 7t3 14q8 11 16.5 21.5t1.5 17.5q-22 -7 -43.5 -26t-39.5 -43t-31 -51t-18 -50.5t0.5 -41t23.5 -22.5q20 -6 52 8t69.5 40t76 60.5t72.5 70.5q14 15 24.5 18t15.5 -0.5t3.5 -13t-11.5 -20.5q-32 -36 -73.5 -77t-85.5 -75.5
t-87.5 -57.5t-78.5 -23q-53 0 -75 26t-19.5 65.5t26.5 85t63.5 85t90.5 65.5t109 26q28 0 44 -9.5t2 -36.5q-9 -16 -27.5 -33.5t-41.5 -25.5z" />
    <glyph glyph-name="b" unicode="b" horiz-adv-x="355" 
d="M470 638q-2 -2 -16.5 -22.5t-38 -53.5t-53 -74.5t-60.5 -85.5t-61.5 -87.5t-55.5 -79.5q-32 -46 -51.5 -78t-26.5 -52.5t-3 -29.5t18 -9q24 0 63.5 29.5t80.5 72.5q-12 23 -2.5 60t51.5 88q10 12 25.5 18.5t31.5 8t28.5 -0.5t16.5 -7q5 -6 1 -20t-15 -33.5t-28.5 -44
t-39.5 -51.5q9 -2 21.5 -0.5t27.5 8t33 19.5t38 36q13 15 23.5 19t15 -0.5t1.5 -15.5t-16 -27q-48 -58 -98.5 -77t-84.5 -6q-25 -27 -52.5 -52.5t-56 -46t-57 -32.5t-55.5 -12q-33 0 -50.5 14t-17 43t20.5 73.5t62 105.5q25 37 55.5 80t61 86.5t59.5 84.5t52 73.5t38 53.5
t18 25q12 15 29 24.5t31 9.5h29q14 0 16 -10t-9 -24z" />
    <glyph glyph-name="A" unicode="A" horiz-adv-x="739" 
d="M1003 651q-49 -64 -97 -131q-21 -29 -43 -60.5t-44.5 -64t-44 -64.5t-40.5 -62q-47 -73 -68.5 -115t-24 -59.5t13 -12.5t43 27t64.5 58.5t79 81.5q12 13 21 15.5t12 -3t0 -16.5t-13 -24q-39 -49 -79.5 -90.5t-78.5 -71.5t-72 -46.5t-61 -16.5q-51 0 -55 46.5t35 122.5
l-232 4l-180 -136q-20 -15 -43 -24.5t-37 -9.5h-29q-14 0 -18.5 10t15.5 24l843 605q21 14 44 23.5t37 9.5h50q8 0 9.5 -5.5t-6.5 -14.5zM375 213l200 -4q13 21 28.5 43.5t34.5 47.5q31 40 66 85t68.5 87t62.5 75.5t48 50.5z" />
    <glyph glyph-name="a" unicode="a" horiz-adv-x="405" 
d="M89 240q46 45 88 71t78 35.5t64 4t46 -21.5q11 11 25 17t26 6h29q14 0 16.5 -9.5t-8.5 -23.5q-4 -5 -19 -24t-33.5 -45.5t-38.5 -55t-34 -52.5q-19 -30 -21.5 -43.5t5.5 -15.5q10 -3 33.5 13t52 42t57.5 56t50 55q13 16 22.5 20.5t14 0t3.5 -14.5t-9 -22q-7 -10 -23 -30
t-38.5 -44t-49.5 -50t-54.5 -48t-53.5 -38.5t-48 -20.5q-25 -5 -40.5 1.5t-22 20.5t-5 34t10.5 43q-18 -17 -39 -35t-43 -32.5t-44.5 -24t-42.5 -9.5q-28 0 -43 19t-12 51.5t27 76t74 93.5zM137 200q-24 -27 -36.5 -53.5t-12 -44t15 -20.5t45.5 17q22 13 48 37.5t51.5 52
t48 54.5t36.5 45l11 14q-23 13 -51.5 7t-57 -23t-54.5 -40.5t-44 -45.5z" />
    <glyph glyph-name="Z" unicode="Z" horiz-adv-x="509" 
d="M412 670q21 3 37 -5.5t31.5 -20t31.5 -23t36 -14.5q9 -2 21.5 1.5t26 9t26.5 12.5t24 13q16 14 35 22.5t33 8.5h29q14 0 13 -9.5t-16 -23.5l-536 -525q43 21 74 19t55 -12.5t43 -22.5t37 -12q19 0 44 15.5t52 39.5t53.5 52.5t46.5 53.5q13 16 23 20t14.5 -0.5t3.5 -14.5
t-9 -21q-30 -39 -64.5 -78t-69 -71t-67 -53.5t-58.5 -24.5q-21 -3 -41.5 5.5t-41.5 20t-41.5 23t-40.5 14.5q-11 1 -24.5 -3t-28 -10.5t-28 -14.5t-23.5 -14l-17 -11q-1 0 -2 -1q-24 -13 -41 -13h-30q-14 0 -12.5 10t16.5 24l533 522q-42 -20 -72 -18.5t-53 11.5t-40.5 21.5
t-35.5 11.5q-28 0 -59 -27q-12 -11 -22 -13t-15.5 2t-3.5 13t14 21q35 34 74 60t65 30z" />
    <glyph glyph-name="Y" unicode="Y" horiz-adv-x="447" 
d="M488 290q-50 -74 -93 -128.5t-86.5 -90t-91.5 -53t-107 -17.5q-38 0 -61 18t-32 45t-4.5 58.5t21.5 59t46.5 46.5t70.5 21q28 1 40 -14t13 -34t-7.5 -34t-20.5 -13q-32 5 -56 -1.5t-39 -19t-20.5 -28t-1.5 -30t18 -24t39 -9.5q36 0 69 19t64.5 51.5t61.5 75.5t62 90l7 11
q-29 -20 -58.5 -32t-58.5 -12q-47 0 -68 14.5t-18.5 45t28 77t70.5 110.5q30 43 48 68t28 39.5t15 21.5t11 15q12 14 29 23.5t31 9.5h43q14 0 16 -9.5t-9 -23.5q-7 -9 -37 -49t-81 -112q-32 -45 -52.5 -75.5t-28.5 -50t-3.5 -28t23.5 -8.5q27 0 57 18.5t61.5 49t63.5 70
t62 80.5q28 38 47.5 65.5t23.5 32.5q4 6 8 12.5t10.5 12t16.5 9.5t27 4h39q14 0 16.5 -9.5t-8.5 -23.5q-3 -3 -19 -25.5t-40 -55.5t-52 -72.5t-54 -77t-47.5 -68t-31.5 -45.5z" />
    <glyph glyph-name="zero.001" horiz-adv-x="446" 
d="M447 524q46 0 70.5 -23t30 -60t-6 -84.5t-36.5 -97t-62 -96.5t-82.5 -84t-97.5 -59t-108 -21q-61 1 -82 40t-10.5 97.5t46.5 126t89 126t117.5 97t131.5 38.5zM458 254q18 29 30.5 63t17 65.5t-1.5 56.5t-25 37q-27 16 -60 6t-67.5 -37t-67 -67t-59.5 -83
q-21 -32 -34.5 -67t-18.5 -65.5t0 -53.5t23 -32q22 -11 53 -7t65.5 25.5t71.5 60.5t73 98z" />
    <glyph glyph-name="one.001" horiz-adv-x="251" 
d="M118 34q-11 -15 -27 -24.5t-30 -9.5h-29q-14 0 -17 10t7 24l224 345h-10q-5 0 -9.5 0.5t-8.5 0.5q-8 0 -10.5 6t8.5 16q12 10 27.5 23.5t30.5 26.5t27 23.5t17 15.5q20 18 34.5 26t31.5 8h21q14 0 17 -10t-8 -24z" />
    <glyph glyph-name="two.001" horiz-adv-x="360" 
d="M265 2q-21 -3 -34 5.5t-24.5 20t-24 23t-31.5 14.5q-10 1 -23 -2t-27.5 -9t-28.5 -13.5t-25 -13.5q-17 -12 -35.5 -20t-32.5 -8h-29q-14 0 -12 9.5t19 23.5q88 68 159 123q30 23 59.5 46t53.5 41.5t39.5 30.5t18.5 15q57 46 85 83.5t33 64t-7.5 42t-36.5 17t-54.5 -11.5
t-59.5 -42q-26 -26 -28 -59t17 -61q7 -9 -2 -25t-24.5 -28.5t-32.5 -16t-26 11.5q-12 19 -12 45t9 53t27 53.5t42 47.5q38 35 80.5 49.5t79.5 12.5t65 -19.5t38 -47t-2 -69.5t-55 -88q-36 -40 -75 -64.5t-79 -45t-82 -42.5t-84 -57q36 23 61.5 31t44 6t31.5 -10t23.5 -17.5
t21 -17t23.5 -7.5t26.5 8t32.5 21q14 10 24 11t13.5 -3.5t0.5 -13t-15 -18.5q-37 -33 -68 -54t-57 -25z" />
    <glyph glyph-name="three.001" horiz-adv-x="378" 
d="M287 319q43 4 74.5 18t51.5 33t29 40.5t6 39.5t-17.5 29.5t-40.5 11.5q-33 0 -57.5 -10.5t-38.5 -26.5t-15.5 -35t12.5 -35q8 -10 -2 -26t-28 -28t-38 -15.5t-30 11.5q-21 30 -11.5 64.5t41 64t79.5 49.5t105 20q38 0 61.5 -15.5t32 -40.5t2.5 -56t-25 -61.5t-50.5 -57
t-75.5 -43.5q30 -14 41 -41t5 -58t-27.5 -63t-55.5 -55t-79.5 -33.5t-99.5 0.5q-38 8 -60.5 29t-32 48t-6.5 57t17.5 56.5t39 45.5t57.5 24q27 4 35.5 -9t6.5 -31t-11.5 -33.5t-19.5 -15.5q-37 0 -56.5 -18t-22 -41.5t11.5 -45.5t46 -30q33 -8 62.5 3t52.5 32t37.5 48
t18 51.5t-7 41.5t-36.5 19q-19 -1 -23.5 12t0 29.5t16.5 30.5t26 16z" />
    <glyph glyph-name="four.001" horiz-adv-x="347" 
d="M360 232q18 5 28 5q14 0 15.5 -13t-5 -28t-19 -28t-26.5 -13h-43l-78 -121q-11 -15 -28 -24.5t-31 -9.5h-28q-14 0 -17 10t8 24l78 121h-144q-14 0 -21 5.5t-7 14t6.5 18.5t18.5 18q7 5 33 25t62.5 48t78.5 61t80.5 63.5t70 55.5t47.5 38q23 23 49 23h29q14 0 17 -10
t-8 -24zM164 190q16 0 36.5 3.5t43.5 8.5l136 212z" />
    <glyph glyph-name="five.001" horiz-adv-x="339" 
d="M521 525q20 0 20.5 -12.5t-10 -27.5t-27.5 -27.5t-31 -12.5q-12 0 -25.5 6t-28 14.5t-30 16.5t-31.5 13l-5 -7.5t-12.5 -19t-17 -26.5t-19.5 -30q-24 -36 -53 -83l-4 -4l-4 -4q58 -16 88.5 -50t37 -73.5t-9 -80t-48.5 -70.5t-81.5 -44.5t-108.5 -2.5q-38 8 -60.5 28.5
t-32 47.5t-6.5 57.5t17.5 56.5t39 45.5t57.5 24.5q27 4 35.5 -9t6 -31t-12 -33.5t-18.5 -15.5q-37 0 -56.5 -18t-22.5 -41.5t11.5 -45.5t46.5 -30q28 -7 53.5 4t45.5 32t33 49.5t16 57.5t-6 55.5t-33 44.5q-11 8 -31.5 14.5t-39.5 6.5q-14 0 -17 7.5t8 21.5l105 162
q11 15 27 24.5t30 9.5h204v0z" />
    <glyph glyph-name="six.001" horiz-adv-x="398" 
d="M458 487q-20 0 -44.5 -11t-51 -30t-52.5 -44.5t-50 -54.5q42 16 81.5 7.5t63.5 -37t26 -74t-31 -102.5q-18 -30 -45 -56.5t-59 -45.5t-67 -30t-69 -10q-48 1 -72.5 23.5t-29.5 59.5t8 84.5t39.5 96.5t64.5 96t83 83.5t95.5 59t102.5 22.5q28 0 51 -9.5t37.5 -25.5t19 -38
t-4.5 -46q-9 -25 -24.5 -38t-33 -17t-34 -1.5t-28 8t-15.5 12t5 10.5q19 8 35 26t23 36t2.5 32t-26.5 14zM364 154q23 36 26.5 67.5t-6.5 55t-31.5 36.5t-48.5 11t-56.5 -22t-56.5 -61q-14 -28 -22.5 -55t-10.5 -50t3.5 -40t19.5 -26q13 -8 35 -9.5t47 7.5t51.5 29.5
t49.5 56.5z" />
    <glyph glyph-name="seven.001" horiz-adv-x="327" 
d="M279 536q17 3 31 -5t27 -20t26 -23.5t30 -14.5q9 -2 20.5 2t23 10t21.5 13t17 12q15 15 25 15h29q14 0 14 -10t-14 -24l-421 -457q-14 -15 -33 -24.5t-33 -9.5h-29q-14 0 -14 10t14 24l372 381q-30 -13 -52.5 -9t-40 14t-31.5 20.5t-27 10.5q-21 0 -50 -27
q-10 -11 -18.5 -12.5t-13 2.5t-3 13t11.5 20q30 33 62.5 59t55.5 30z" />
    <glyph glyph-name="eight.001" horiz-adv-x="342" 
d="M423 524q31 0 51 -15t27 -38t0.5 -51t-27.5 -54t-58 -46.5t-91 -29.5q26 -56 19 -108.5t-36 -93t-76 -65t-101 -24.5q-39 0 -63.5 18.5t-33.5 48t-1.5 65.5t32.5 71.5t68 65.5t106 47q-13 40 -2 78t38 67t66 46.5t82 17.5zM171 77q16 -8 36 -5t38.5 15t33.5 32.5
t22.5 46.5t5.5 56t-19 63q-45 -17 -79 -46.5t-51.5 -61t-15.5 -59.5t29 -41zM455 476q-26 15 -53.5 3.5t-49 -38t-32.5 -61.5t-4 -66q47 11 81.5 34t53 48t20.5 47t-16 33z" />
    <glyph glyph-name="nine.001" horiz-adv-x="449" 
d="M183 52q19 0 39.5 10.5t41.5 29t41.5 43.5t40.5 53q-49 -28 -91.5 -24t-67 31.5t-25 76t35.5 109.5q18 30 45 56.5t59.5 46t67.5 30t68 10.5q51 -1 77.5 -24t32.5 -60t-6 -84t-38.5 -96t-65.5 -96t-85.5 -83.5t-99 -59t-107.5 -22.5q-28 0 -50.5 9.5t-36.5 25.5
t-18.5 37.5t4.5 45.5q9 25 24.5 38t32.5 17t34 1.5t28 -8t15 -12t-5 -10.5q-19 -8 -28 -23.5t-8 -30.5t12 -26t33 -11zM280 382q-33 -51 -31 -90.5t25.5 -56.5t60.5 -7t74 57q18 30 33.5 59.5t24 55.5t7.5 46t-16 29q-14 8 -34.5 8t-45 -10.5t-50 -32.5t-48.5 -58z" />
    <glyph glyph-name="slash" unicode="/" horiz-adv-x="438" 
d="M141 32q-17 -15 -36 -24.5t-33 -9.5h-29q-14 0 -13.5 10t16.5 24l453 460q17 15 36.5 24.5t33.5 9.5h29q14 0 13 -10t-16 -24z" />
    <glyph glyph-name="sterling" unicode="&#xa3;" horiz-adv-x="496" 
d="M324 327q31 40 65 75.5t76 62t93.5 41.5t117.5 15q14 0 26 -2t19 -7t7.5 -14t-6.5 -22q-9 -16 -27.5 -34t-41.5 -25q-11 -4 -24 -5t-23 1t-14.5 7t3.5 14q4 5 8.5 10.5t7.5 10.5t4 9.5t-3 8.5q-34 -7 -61.5 -21t-50.5 -33t-43 -42.5t-39 -49.5q31 -2 53 -11t31.5 -19.5
t6 -19t-23.5 -8.5h-107l-14 -20l-122 -173q40 28 64 33t40 -1t26.5 -15.5t24.5 -9.5q17 0 38.5 11.5t43.5 33.5q15 15 26 17.5t15.5 -4t0.5 -20t-19 -30.5q-35 -38 -71.5 -61.5t-63.5 -28.5q-21 -3 -33.5 2.5t-22.5 13t-19.5 15.5t-22.5 11q-8 2 -18 0t-19.5 -6.5
t-18.5 -9.5t-15 -9q-11 -9 -23.5 -14.5t-22.5 -5.5h-29q-14 0 -16.5 10t8.5 24l153 217l14 21q-22 3 -37 12t-21 19t-2 18t21 8h81z" />
    <glyph glyph-name="hyphen" unicode="-" horiz-adv-x="398" 
d="M300 202q33 0 57 -9t34.5 -20t7.5 -20t-24 -9h-144q-26 0 -44.5 9t-27 20t-5 20t21.5 9h124z" />
    <glyph glyph-name="percent" unicode="%" horiz-adv-x="436" 
d="M212 439q11 18 28 32.5t36.5 24.5t40.5 15t39 3q38 -5 47.5 -32.5t-14.5 -63.5q-12 -18 -29 -32.5t-36.5 -24.5t-40.5 -14.5t-39 -2.5q-38 4 -47.5 32t15.5 63zM279 458q-16 -13 -18 -28.5t5.5 -26.5t22 -14t31.5 9q18 15 19.5 30.5t-7 26t-23.5 13t-30 -9.5zM141 32
q-17 -15 -36 -24.5t-33 -9.5h-29q-14 0 -13.5 10t16.5 24l453 460q17 15 36.5 24.5t33.5 9.5h29q14 0 13 -10t-16 -24zM250 95q11 18 28 32.5t36.5 24.5t40 14.5t39.5 2.5q38 -4 47 -31.5t-14 -64.5q-12 -18 -29 -32.5t-36.5 -24t-40.5 -14.5t-39 -3q-38 5 -47.5 33t15.5 63
zM317 113q-16 -12 -18 -27.5t5.5 -27t22 -14.5t31.5 10q18 15 19.5 30.5t-7 26t-23.5 12.5t-30 -10z" />
    <glyph glyph-name="perthousand" unicode="&#x2030;" horiz-adv-x="513" 
d="M141 32q-17 -15 -36 -24.5t-33 -9.5h-29q-14 0 -13.5 10t16.5 24l453 460q17 15 36.5 24.5t33.5 9.5h29q14 0 13 -10t-16 -24zM250 95q11 18 28 32.5t36.5 24.5t40 14.5t39.5 2.5q16 -2 27 -8.5t17 -16.5q22 14 46.5 20.5t47.5 4.5q38 -4 47 -31.5t-14 -64.5
q-12 -18 -29 -32.5t-36.5 -24t-40.5 -14.5t-39 -3q-33 4 -44 25q-23 -14 -47.5 -20.5t-46.5 -4.5q-38 5 -47.5 33t15.5 63zM212 439q11 18 28 32.5t36.5 24.5t40.5 15t39 3q38 -5 47.5 -32.5t-14.5 -63.5q-12 -18 -29 -32.5t-36.5 -24.5t-40.5 -14.5t-39 -2.5
q-38 4 -47.5 32t15.5 63zM279 458q-16 -13 -18 -28.5t5.5 -26.5t22 -14t31.5 9q18 15 19.5 30.5t-7 26t-23.5 13t-30 -9.5zM317 113q-16 -12 -18 -27.5t5.5 -27t22 -14.5t31.5 10q18 15 19.5 30.5t-7 26t-23.5 12.5t-30 -10zM455 113q-16 -12 -18 -27.5t5.5 -27t22 -14.5
t31.5 10q17 15 18.5 30.5t-6.5 26t-23 12.5t-30 -10z" />
    <glyph glyph-name="dotlessi" unicode="&#x131;" horiz-adv-x="200" 
d="M248 319q-4 -5 -19 -24t-33.5 -45.5t-38.5 -55t-35 -52.5q-19 -30 -21 -43.5t6 -15.5q10 -3 33.5 13t52 42t57.5 56t50 55q13 16 22.5 20.5t14 0t3.5 -14.5t-9 -22q-7 -10 -23 -30t-38.5 -44t-49.5 -50t-54.5 -48t-53.5 -38.5t-48 -20.5q-29 -6 -45 3t-20.5 28t1.5 44.5
t22 52.5q11 20 30.5 49.5t39.5 58t37 51.5t23 30q11 15 28 24t31 9h29q14 0 16.5 -9.5t-8.5 -23.5z" />
    <glyph glyph-name="ring" unicode="&#x2da;" horiz-adv-x="217" 
d="M122 517q11 17 28 31.5t36.5 24t40 14t38.5 2.5q37 -4 46 -31t-14 -62q-11 -17 -28 -31t-36.5 -24t-39.5 -14.5t-38 -2.5q-38 5 -47.5 31.5t14.5 61.5zM189 535q-16 -12 -18 -27.5t5.5 -26t22 -13.5t30.5 9q17 15 18.5 30t-6.5 25t-22.5 12.5t-29.5 -9.5z" />
    <glyph glyph-name="dieresis" unicode="&#xa8;" horiz-adv-x="253" 
d="M344 489q0 -20 -13.5 -33t-32.5 -13t-32 13t-13 33q0 19 13 32t32 13t32.5 -13t13.5 -32zM215 489q0 -20 -13 -33t-33 -13q-19 0 -32 13t-13 33q0 19 13 32t32 13q20 0 33 -13t13 -32z" />
    <glyph glyph-name="thorn" unicode="&#xfe;" horiz-adv-x="363" 
d="M71 28q-7 10 -9 28q-54 -80 -102.5 -153.5t-84.5 -132.5q-8 -14 -21.5 -11t-24.5 15t-15.5 30.5t4.5 36.5q3 6 27.5 43t63.5 93.5t87.5 127t99 143t98.5 141.5t85.5 123.5t61 88t24.5 34.5q12 15 29 24t31 9h29q14 0 16 -9.5t-9 -23.5q-2 -2 -22 -30t-52.5 -74.5
t-75 -108.5t-90.5 -131q27 19 53 33.5t49.5 21t42 5t30.5 -13.5q15 -16 13.5 -44t-16.5 -62t-41.5 -71t-59.5 -71q-34 -34 -68 -54.5t-64 -27.5t-53.5 -1.5t-35.5 22.5zM159 195q-26 -33 -40 -57.5t-18.5 -42t-2 -28.5t9.5 -16q18 -12 54.5 7.5t74.5 69.5q19 25 35 49.5
t25.5 46t11 37t-6.5 22.5t-24 3.5t-36 -15.5t-42 -31.5t-41 -44.5z" />
    <glyph glyph-name="Thorn" unicode="&#xde;" horiz-adv-x="734" 
d="M737 641q-2 -3 -16.5 -23t-35.5 -51q75 -13 111.5 -51.5t40 -88.5t-23.5 -104.5t-79.5 -100.5t-128 -75.5t-168.5 -29.5h-76q-57 -61 -117 -90t-138 -29q-30 0 -52.5 10.5t-36.5 27.5q-7 9 -6 19t9 9q5 -1 13.5 -5t20.5 -8.5t26.5 -8t31.5 -3.5q37 0 70 19t64 51t61 75
t62 90q8 12 27 40t43.5 63t52 73.5t51.5 73.5q-36 -9 -61.5 -26t-47 -43t-44 -61t-52.5 -80q-38 11 -52.5 33.5t-9.5 49.5t28 56.5t62 54t92 42.5t118 22l40 55q11 14 29.5 30.5t44.5 16.5h39q12 0 15.5 -9.5t-7.5 -23.5zM491 286q-25 -37 -47.5 -68.5t-45.5 -58.5h47
q62 0 113.5 26.5t88.5 66.5t59 87t25 89t-13.5 71.5t-56.5 34.5q-23 -34 -49 -71.5t-50 -72t-43 -62.5t-28 -42z" />
    <glyph glyph-name="germandbls" unicode="&#xdf;" horiz-adv-x="382" 
d="M-16 -81q-12 -14 -29 -23.5t-31 -9.5h-28q-14 0 -16.5 9.5t8.5 23.5q53 83 101 159q21 32 42.5 66t42.5 66t40 60t34 49q29 42 59.5 86t62.5 85t64.5 77t65 61t63.5 37t61 5q23 -5 42 -23.5t26 -47t-0.5 -65t-38 -77t-86.5 -84t-146 -85.5q-23 -11 -23 -21t12.5 -21
t31.5 -24.5t34 -31.5t19.5 -41.5t-12.5 -55.5q-13 -24 -34 -42.5t-46.5 -30t-54 -16t-56.5 -2.5q-40 3 -57 22t-17.5 41.5t12 43.5t31.5 30q10 5 25.5 5t27.5 -3t17.5 -9t-2.5 -14q-8 -7 -16.5 -17.5t-14 -22t-5.5 -21t11 -13.5q11 -5 26 -4t30 7.5t28 18t19 29.5
q7 18 -1 34.5t-21.5 33t-28 32.5t-20.5 33t1 34.5t37 37.5q19 13 47 35t58.5 49.5t59 58.5t48 62t27.5 59.5t-4 51.5q-5 10 -19.5 2.5t-34 -26t-43 -46.5t-47.5 -58q-55 -71 -123 -169z" />
    <glyph glyph-name="eth" unicode="&#xf0;" horiz-adv-x="337" 
d="M370 240q-2 -3 -2.5 -6t-2.5 -5q-11 -34 -35.5 -70.5t-60.5 -69.5q-34 -32 -70.5 -53.5t-69.5 -31t-61 -6.5t-44 21q-17 18 -18.5 45.5t10.5 60.5t35.5 68t58.5 67q30 28 61 48t61 31.5t56.5 13t46.5 -7.5q2 21 0 37t-5 29q-21 -13 -37 -16t-23.5 1t-5.5 13.5t17 21.5
l29 24q-5 8 -10 14.5t-10 14.5q-7 11 -7 27.5t5 33.5t14 32t19.5 23.5t22 7.5t21.5 -16q16 -25 27 -70l5 4q31 25 55.5 35.5t37.5 9.5t12.5 -11t-19.5 -26l-83 -67q5 -52 -1 -111t-29 -116zM255 154q19 25 32 49t19 45t4.5 36.5t-10.5 22.5q-10 7 -25.5 4t-34 -15t-39 -31
t-39.5 -44t-31.5 -49t-18.5 -44.5t-4.5 -36t10.5 -22.5q10 -7 25.5 -4t34 14.5t38.5 30.5t39 44z" />
    <glyph glyph-name="acute" unicode="&#xb4;" horiz-adv-x="313" 
d="M137 486q19 12 41.5 24t46 23t47 20t45.5 15q18 5 36.5 -3t28.5 -21t7.5 -25.5t-25.5 -16.5q-41 -8 -91.5 -20t-100.5 -27q-25 -8 -37.5 -6.5t-16 7t2 14t16.5 16.5z" />
    <glyph glyph-name="grave" unicode="`" horiz-adv-x="309" 
d="M364 486q11 -8 16.5 -16.5t2 -14t-16 -7t-37.5 6.5q-50 15 -100.5 27t-91.5 20q-23 4 -25.5 16.5t7.5 25.5t28.5 21t36.5 3q44 -11 93 -34.5t87 -47.5z" />
    <glyph glyph-name="hungarumlaut" unicode="&#x2dd;" horiz-adv-x="442" 
d="M120 468q32 32 75.5 64.5t84.5 52.5q17 9 36.5 4.5t31.5 -14.5t12.5 -22.5t-21.5 -21.5q-38 -17 -85.5 -38.5t-92.5 -47.5q-23 -12 -35.5 -13.5t-17 3.5t-1 14.5t12.5 18.5zM288 468q32 32 75 64.5t84 52.5q17 9 37 4.5t32 -14.5t12.5 -22.5t-21.5 -21.5
q-38 -17 -86 -38.5t-93 -47.5q-23 -12 -35.5 -13.5t-17 3.5t-1 14.5t13.5 18.5z" />
    <glyph glyph-name="macron" unicode="&#xaf;" horiz-adv-x="278" 
d="M260 540q33 0 57 -9t34.5 -20t7.5 -20t-24 -9h-144q-26 0 -44.5 9t-27 20t-5 20t21.5 9h124z" />
    <glyph glyph-name="endash" unicode="&#x2013;" horiz-adv-x="490" 
d="M398 202q33 0 57 -9t34.5 -20t7.5 -20t-24 -9h-242q-26 0 -44.5 9t-27 20t-5 20t21.5 9h222z" />
    <glyph glyph-name="emdash" unicode="&#x2014;" horiz-adv-x="630" 
d="M538 202q33 0 57 -9t34.5 -20t7.5 -20t-24 -9h-382q-26 0 -44.5 9t-27 20t-5 20t21.5 9h362z" />
    <glyph glyph-name="minus" unicode="&#x2212;" horiz-adv-x="398" 
d="M300 202q33 0 57 -9t34.5 -20t7.5 -20t-24 -9h-144q-26 0 -44.5 9t-27 20t-5 20t21.5 9h124z" />
    <glyph glyph-name="logicalnot" unicode="&#xac;" horiz-adv-x="398" 
d="M300 202q28 0 48.5 -5.5t32.5 -14t14.5 -18t-3.5 -17.5l-34 -45q-7 -9 -19 -12.5t-22.5 -2.5t-16.5 6t0 13l28 38h-97q-26 0 -44.5 9t-27 20t-5 20t21.5 9h124z" />
    <glyph glyph-name="plus" unicode="+" horiz-adv-x="398" 
d="M202 98q11 20 16 28t10 18q-25 0 -43 9.5t-26 20t-4.5 19.5t21.5 9h86l3 4q16 29 35.5 45t34.5 20t21 -3.5t-4 -25.5l-24 -42q26 -4 43.5 -13.5t24.5 -19t2 -16.5t-23 -7h-80q-3 -6 -7 -12t-8 -14q-13 -23 -30.5 -34.5t-31 -13.5t-19.5 5.5t3 22.5z" />
    <glyph glyph-name="comma" unicode="," horiz-adv-x="171" 
d="M-33 -62q42 26 63.5 56.5t37.5 64.5q11 22 30 29t34 1t19.5 -22.5t-12.5 -41.5q-23 -31 -56 -59.5t-78 -46.5q-21 -9 -34 -9.5t-17.5 3.5t-1 11t14.5 14z" />
    <glyph glyph-name="period.001" horiz-adv-x="583" 
d="M-33 -62q42 26 63.5 56.5t37.5 64.5q11 22 30 29t34 1t19.5 -22.5t-12.5 -41.5q-23 -31 -56 -59.5t-78 -46.5q-21 -9 -34 -9.5t-17.5 3.5t-1 11t14.5 14z" />
    <glyph glyph-name="period" unicode="." horiz-adv-x="171" 
d="M160 55q0 -23 -15.5 -39t-38.5 -16t-39 16t-16 39t16 38.5t39 15.5t38.5 -15.5t15.5 -38.5z" />
    <glyph glyph-name="asterisk" unicode="*" horiz-adv-x="387" 
d="M260 296q-26 -11 -46 -11.5t-31 4t-10.5 13t16.5 16.5q19 9 30.5 14t20.5 9t17.5 8t22.5 10l-2 2q-18 14 -26 30.5t-8 28.5t7.5 16.5t19.5 -5.5q9 -8 15 -12.5t10.5 -8.5t9 -7.5t11.5 -8.5q16 26 35 40.5t33 17.5t19.5 -4t-4.5 -24l-10 -17q31 10 54 12t35 -1t11 -10
t-18 -14q-29 -13 -52 -24l-46 -22q16 -18 23.5 -34.5t7.5 -27t-7 -13t-20 7.5l-42 33l-8 -15q-13 -23 -30 -34.5t-30.5 -13.5t-19.5 5.5t3 22.5z" />
    <glyph glyph-name="colon" unicode=":" horiz-adv-x="171" 
d="M160 55q0 -23 -15.5 -39t-38.5 -16t-39 16t-16 39t16 38.5t39 15.5t38.5 -15.5t15.5 -38.5zM281 293q0 -23 -16 -39t-39 -16t-39 16t-16 39t16 38.5t39 15.5t39 -15.5t16 -38.5z" />
    <glyph glyph-name="semicolon" unicode=";" horiz-adv-x="171" 
d="M281 293q0 -23 -16 -39t-39 -16t-39 16t-16 39t16 38.5t39 15.5t39 -15.5t16 -38.5zM-33 -62q42 26 63.5 56.5t37.5 64.5q11 22 30 29t34 1t19.5 -22.5t-12.5 -41.5q-23 -31 -56 -59.5t-78 -46.5q-21 -9 -34 -9.5t-17.5 3.5t-1 11t14.5 14z" />
    <glyph glyph-name="breve" unicode="&#x2d8;" horiz-adv-x="220" 
d="M252 517q8 10 21.5 15t24 3.5t13 -11t-10.5 -28.5q-12 -17 -29.5 -31t-36.5 -23.5t-39 -14.5t-38 -3q-37 5 -47.5 32.5t15.5 60.5q12 15 24.5 20.5t22 5.5t14 -5t-0.5 -12q-15 -20 -16.5 -34.5t4.5 -22t17.5 -7.5t24.5 10q8 6 19 21.5t18 23.5z" />
    <glyph glyph-name="dotaccent" unicode="&#x2d9;" horiz-adv-x="135" 
d="M215 489q0 -20 -13 -33t-33 -13q-19 0 -32 13t-13 33q0 19 13 32t32 13q20 0 33 -13t13 -32z" />
    <glyph glyph-name="circumflex" unicode="&#x2c6;" horiz-adv-x="276" 
d="M278 456q-4 10 -7 20.5t-5 21.5q-20 -16 -35 -31.5t-37 -28.5q-14 -8 -33 -9t-34 2t-21.5 10t5.5 15q15 10 24.5 16t19.5 11.5t24.5 12.5t41.5 20q39 18 73.5 18.5t47.5 -30.5l27 -66q3 -8 -9.5 -9.5t-30 1.5t-33 10t-18.5 16z" />
    <glyph glyph-name="caron.001" horiz-adv-x="583" 
 />
    <glyph glyph-name="caron" unicode="&#x2c7;" horiz-adv-x="276" 
d="M201 505q4 -10 7 -20.5t5 -21.5q20 16 34.5 31.5t37.5 28.5q13 8 32.5 9.5t34.5 -2t21 -10.5t-6 -15l-24 -16t-19 -11.5t-25 -12.5t-41 -20q-39 -18 -73.5 -18.5t-47.5 30.5l-27 67q-3 8 9.5 9.5t29.5 -2t33 -10.5t19 -16z" />
    <glyph glyph-name="ogonek" unicode="&#x2db;" horiz-adv-x="230" 
d="M294 44q-20 -14 -44 -30.5t-43 -35t-28.5 -38.5t1.5 -41q8 -17 24.5 -19t34.5 0q24 3 24 -10t-31 -26q-12 -6 -28 -10.5t-32.5 -4.5t-31.5 5t-25 19q-10 13 -10 35.5t16.5 50.5t52.5 60t98 63q11 6 23.5 9t18.5 1.5t3 -8.5t-23 -20z" />
    <glyph glyph-name="cedilla" unicode="&#xb8;" horiz-adv-x="188" 
d="M185 -50q-7 6 -8 11.5t1 10t6.5 9t9.5 8.5q8 8 17.5 15t17.5 13q10 7 19 13l25 -22q-10 -7 -18 -14q-17 -13 -26 -29q35 -39 36 -69t-12 -47q-10 -14 -25 -19t-31.5 -4.5t-32.5 5t-28 9.5q-31 14 -31 27t24 10q18 -2 36 -0.5t32 15.5q9 10 6.5 26t-18.5 32z" />
    <glyph glyph-name="ampersand" unicode="&#x26;" horiz-adv-x="552" 
d="M651 238q-14 -2 -32 0q-9 -57 -45 -103t-85.5 -78.5t-106.5 -50t-108 -17.5q-58 0 -95.5 17.5t-55 44.5t-15.5 60.5t23.5 66t62 59.5t99.5 42q-35 13 -48 35.5t-8.5 49t24.5 54.5t53 53q66 51 154.5 80t185.5 29q14 0 25.5 -2t18.5 -7.5t8 -14.5t-7 -22q-8 -16 -26.5 -34
t-41.5 -25q-11 -3 -24 -4.5t-23 0.5t-14.5 7t3.5 14q4 5 8.5 10.5t7.5 10.5t4 9.5t-3 8.5q-25 -2 -53.5 -8.5t-56 -19t-51.5 -30t-40 -41.5q-36 -54 -15 -90.5t90 -44.5q32 3 66.5 6t65.5 5.5t55 4.5t34 2q16 0 18 -12t-5 -26.5t-20 -26.5t-27 -12zM292 46q49 -7 88 11.5
t67 50t43.5 70.5t17.5 72q-29 4 -54.5 6.5t-42.5 3.5q-73 -12 -119.5 -44.5t-63 -68.5t-1.5 -65.5t65 -35.5z" />
    <glyph glyph-name="quotesingle" unicode="'" horiz-adv-x="7" 
d="M151 419q30 39 48.5 76t34.5 71q11 22 31 28.5t35.5 0.5t19.5 -22.5t-16 -40.5q-24 -29 -50.5 -57t-61.5 -61q-17 -16 -28 -21t-16.5 -3t-5 10t8.5 19z" />
    <glyph glyph-name="quotedbl" unicode="&#x22;" horiz-adv-x="228" 
d="M195 419q30 39 48.5 76l35.5 71q10 22 30 28.5t35.5 0.5t20 -22.5t-15.5 -40.5q-25 -29 -51.5 -57t-61.5 -61q-17 -16 -28 -21t-16.5 -3t-5 10t8.5 19zM306 419q30 39 48 76t35 71q11 22 31 28.5t35.5 0.5t19.5 -22.5t-16 -40.5q-25 -29 -51 -57t-61 -61q-17 -16 -28 -21
t-16.5 -3t-5 10t8.5 19z" />
    <glyph glyph-name="quotedblright" unicode="&#x201d;" horiz-adv-x="228" 
d="M195 419q30 39 48.5 76l35.5 71q10 22 30 28.5t35.5 0.5t20 -22.5t-15.5 -40.5q-25 -29 -51.5 -57t-61.5 -61q-17 -16 -28 -21t-16.5 -3t-5 10t8.5 19zM306 419q30 39 48 76t35 71q11 22 31 28.5t35.5 0.5t19.5 -22.5t-16 -40.5q-25 -29 -51 -57t-61 -61q-17 -16 -28 -21
t-16.5 -3t-5 10t8.5 19z" />
    <glyph glyph-name="quotedblleft" unicode="&#x201c;" horiz-adv-x="228" 
d="M453 569q-30 -39 -48.5 -75.5t-35.5 -70.5q-11 -23 -30.5 -29.5t-35 -0.5t-19.5 22.5t16 40.5q24 29 50.5 57.5t61.5 60.5q16 16 27.5 21.5t17 3t5 -10.5t-8.5 -19zM342 569q-30 -39 -48 -75.5t-35 -70.5q-11 -23 -31 -29.5t-35.5 -0.5t-19.5 22.5t16 40.5q25 29 51 57.5
t61 60.5q16 16 27.5 21.5t17 3t5 -10.5t-8.5 -19z" />
    <glyph glyph-name="periodcentered" unicode="&#xb7;" horiz-adv-x="171" 
d="M238 173q0 -23 -16 -39t-39 -16t-38.5 16t-15.5 39t15.5 39t38.5 16t39 -16t16 -39z" />
    <glyph glyph-name="bullet" unicode="&#x2022;" horiz-adv-x="356" 
d="M339 202q0 -17 -6.5 -32.5t-18 -27t-26.5 -18t-33 -6.5q-35 0 -59.5 24.5t-24.5 59.5q0 18 6.5 33.5t18 27t27 18t32.5 6.5q35 0 59.5 -25t24.5 -60z" />
    <glyph glyph-name="parenleft" unicode="(" horiz-adv-x="382" 
d="M589 498q-92 -40 -169 -103.5t-128.5 -137.5t-72 -152.5t0.5 -147.5q6 -20 6 -33.5t-5.5 -18t-15 2t-22.5 26.5q-45 69 -55 132t6.5 119t55.5 105t92 90t114.5 73.5t124.5 56.5q38 14 62.5 18t34.5 1t3 -11.5t-32 -19.5z" />
    <glyph glyph-name="parenright" unicode=")" horiz-adv-x="386" 
d="M-69 -64q93 40 171 103.5t131 137.5t75 152.5t2 147.5q-6 19 -5.5 32.5t6 18t15 -1.5t22.5 -26q44 -69 53 -132t-9 -119t-58 -105t-93.5 -90t-116 -73.5t-125.5 -56.5q-38 -14 -62.5 -18t-34.5 -1t-3 11.5t32 19.5z" />
    <glyph glyph-name="braceleft" unicode="{" horiz-adv-x="382" 
d="M589 498q-48 -21 -85.5 -60t-71.5 -78t-68 -69t-74 -32q19 -17 19.5 -39.5t-9.5 -48.5t-26.5 -54.5t-30.5 -56.5t-22 -54.5t-1 -48.5q6 -20 6 -33.5t-5.5 -18t-15 2t-22.5 26.5q-20 30 -22.5 64.5t3.5 68.5t17 66t19 57t8 42t-16 21q-12 3 -13 10.5t6.5 15t22 13.5
t33.5 8q26 2 51 28t56.5 60.5t72.5 69t100 52.5q39 12 63.5 15.5t34 1t2.5 -10t-32 -18.5z" />
    <glyph glyph-name="braceright" unicode="}" horiz-adv-x="386" 
d="M-39 -76q32 14 61 40t56.5 57t53.5 63.5t52 59.5t51.5 45t52.5 20q-19 16 -21.5 35.5t4.5 40.5t19.5 43.5t24 45.5t17 46t-1.5 45q-6 19 -6 33t5.5 18.5t15 -2t22.5 -26.5q20 -30 25 -61t1.5 -60t-11 -55t-12 -46.5t-2.5 -34t18 -17.5q12 -3 13 -10t-6.5 -14.5t-22 -14
t-33.5 -7.5q-18 -1 -36.5 -17t-40 -40.5t-45.5 -54t-52.5 -57.5t-61.5 -51.5t-72 -35.5t-64 -15.5t-34.5 -1t-2.5 10t33 18.5z" />
    <glyph glyph-name="quoteleft" unicode="&#x2018;" horiz-adv-x="228" 
d="M396 569q-30 -39 -48 -75.5t-35 -70.5q-11 -23 -31 -29.5t-35.5 -0.5t-19.5 22.5t16 40.5q25 29 51 57.5t61 60.5q16 16 27.5 21.5t17 3t5 -10.5t-8.5 -19z" />
    <glyph glyph-name="quoteright" unicode="&#x2019;" horiz-adv-x="228" 
d="M248 419q30 39 48 76t35 71q11 22 31 28.5t35.5 0.5t19.5 -22.5t-16 -40.5q-25 -29 -51 -57t-61 -61q-17 -16 -28 -21t-16.5 -3t-5 10t8.5 19z" />
    <glyph glyph-name="exclam" unicode="!" horiz-adv-x="171" 
d="M160 55q0 -23 -15.5 -39t-38.5 -16t-39 16t-16 39t16 38.5t39 15.5t38.5 -15.5t15.5 -38.5zM181 233q8 16 23 42.5t33 57.5t37.5 65t36.5 64t30.5 53.5t19.5 35.5q9 17 32.5 27t45 11.5t34 -6t-0.5 -25.5q-8 -11 -26.5 -35.5t-42 -57t-50.5 -68t-52 -69t-45.5 -60
t-30.5 -40.5q-15 -20 -26.5 -26t-17.5 -3.5t-6.5 12.5t6.5 22z" />
    <glyph glyph-name="dollar" unicode="$" horiz-adv-x="565" 
d="M173 -64q-9 -14 -16.5 -11t-12 15t-4 30.5t9.5 36.5q1 2 4 7.5t8 13.5q-27 22 -41 54t-14.5 64t12.5 59.5t40 40.5q15 7 33 7.5t32 -3t20 -10.5t-3 -15q-27 -25 -35.5 -60t2.5 -66l130 196q-14 18 -23.5 37.5t-12 40.5t4.5 44t27 49q33 44 76.5 66.5t106.5 31.5l16 24
q6 9 21 15.5t27.5 7.5t18.5 -4.5t-6 -18.5l-13 -19q10 1 20.5 1h21.5q28 0 44 -9t1 -36q-9 -16 -27.5 -34t-41.5 -25q-11 -4 -24 -5t-23 1t-14 7t3 14q4 5 10.5 11.5t11.5 13t7.5 12t-1.5 8.5q-10 2 -15 2q-21 -32 -51.5 -78t-65.5 -101q20 -23 41 -48.5t33 -54.5t9.5 -63
t-29.5 -74q-49 -72 -112.5 -96t-137.5 -18q-8 1 -14.5 2t-12.5 3q-11 -17 -21 -33t-20 -33zM402 97q13 22 15.5 42t-3.5 39t-17.5 36.5t-24.5 35.5q-32 -48 -63.5 -98t-63.5 -100q4 -3 14 -7q17 -7 36 -8.5t37.5 3.5t36.5 19t33 38zM402 467q-12 -19 -10.5 -37t12.5 -36
l90 135q-61 -12 -92 -62z" />
    <glyph glyph-name="equal" unicode="=" horiz-adv-x="398" 
d="M335 251q33 0 56.5 -9t34 -20t7.5 -20t-24 -9h-144q-26 0 -44.5 9t-27 20t-5 20t21.5 9h125zM285 163q33 0 56.5 -9t34.5 -19.5t7.5 -19.5t-23.5 -9h-144q-26 0 -45 9t-27 19.5t-5 19.5t21 9h125z" />
    <glyph glyph-name="Euro" unicode="&#x20ac;" horiz-adv-x="511" 
d="M209 360q32 36 73.5 68.5t91 56.5t107 38t122.5 14q14 0 26 -2t19 -7t7.5 -14t-6.5 -23q-8 -16 -27 -33.5t-42 -25.5q-11 -3 -24 -4.5t-23 0.5t-14 7t3 14q8 11 16.5 21.5t1.5 17.5q-65 -14 -119 -49t-95 -80q27 -3 46 -12.5t26.5 -19.5t3.5 -17.5t-23 -7.5h-98
q-5 -8 -9.5 -15t-8.5 -15q31 -2 52.5 -11t31.5 -19t6 -18.5t-23 -8.5h-92q-17 -54 -6.5 -94.5t56.5 -50.5q48 -11 96.5 6.5t92.5 49.5q25 19 36 21t9.5 -7t-15 -26t-37.5 -36q-43 -33 -93.5 -55.5t-111.5 -22.5q-54 0 -88 19t-50.5 50.5t-15.5 73t18 86.5q-20 13 -21.5 28
t22.5 15h18q6 12 13.5 23.5t15.5 23.5q-19 13 -19.5 27t22.5 14h29z" />
    <glyph glyph-name="at" unicode="@" horiz-adv-x="703" 
d="M265 240q46 45 88 71t77.5 35.5t63.5 4t46 -21.5q26 23 51 23h29q14 0 16.5 -9.5t-8.5 -23.5q-4 -5 -19 -24t-33.5 -45.5t-38.5 -55t-34 -52.5q-19 -30 -21.5 -44t5.5 -15q19 -3 45 15t52 49t49.5 71.5t38.5 83t18 82t-12 68.5q-21 41 -67 53.5t-104.5 -1t-123.5 -51.5
t-123 -97t-96.5 -122.5t-56.5 -123t-14 -110.5t32 -84q37 -43 103 -44t142 37q17 9 33 10t24.5 -3.5t6 -14t-21.5 -21.5q-52 -32 -102.5 -49.5t-95 -20t-81.5 10t-61 41.5q-33 39 -37.5 99.5t16.5 131.5t67.5 147t115.5 146t143 113.5t141.5 59.5t123.5 3t89 -56
q25 -32 25.5 -79.5t-17.5 -101t-50.5 -107.5t-72.5 -99t-85 -77t-87 -40q-25 -5 -40.5 1t-22 20t-5 34.5t10.5 43.5q-18 -17 -39 -35t-43 -32.5t-44.5 -24t-42.5 -9.5q-28 0 -43 19t-12 51.5t27 76t75 93.5zM312 200q-24 -27 -36.5 -53.5t-12 -44t15 -20.5t45.5 17
q22 13 48.5 37.5t52 52.5t48 55t36.5 45l10 13q-23 13 -51.5 7t-57 -23t-54.5 -40.5t-44 -45.5z" />
    <glyph glyph-name="copyright" unicode="&#xa9;" horiz-adv-x="732" 
d="M759 506q27 -34 26 -86.5t-21 -112t-53.5 -120t-72.5 -110.5q-62 -82 -133 -135t-138 -76.5t-124 -17t-90 45.5q-30 35 -34.5 89.5t15 119t61.5 134t105 132.5t131 107t130.5 63.5t114.5 12.5t83 -46zM710 457q-26 33 -69.5 39t-96.5 -10.5t-110.5 -53.5t-110.5 -90
q-52 -53 -87 -111t-51 -112t-12.5 -100t29.5 -76q27 -33 74.5 -38.5t104 14t116 64.5t111.5 113q32 43 60.5 94t45.5 100.5t18 93.5t-22 73zM506 125q30 20 43 21t13 -8.5t-12 -25.5t-33 -31q-39 -29 -76 -47.5t-69 -18.5q-52 0 -74 26t-19.5 65.5t26.5 85t63 85t90.5 65.5
t109.5 26q28 0 44 -9.5t1 -35.5q-9 -16 -27 -34t-41 -26q-11 -4 -24.5 -5t-23.5 1t-14 7.5t3 14.5q8 11 16.5 21t0.5 17q-22 -7 -43.5 -26t-39.5 -43t-31 -51t-17.5 -50.5t0.5 -41t23 -22.5q20 -5 48.5 6t62.5 34z" />
    <glyph glyph-name="numbersign" unicode="#" horiz-adv-x="398" 
d="M162 119q-22 13 -24 28.5t22 15.5h35l52 68q-16 6 -25.5 15t-12.5 17t2 14t19 6h54q14 19 24 34.5t15 24.5q6 11 13 10t11.5 -10.5t3.5 -25t-12 -33.5h16q11 0 20.5 -1t18.5 -3q14 20 25 36.5t16 26.5q6 12 14 10.5t12.5 -11.5t2.5 -26.5t-15 -34.5l-13 -18
q19 -13 18.5 -25t-24.5 -12h-21q-14 -17 -28.5 -36.5t-29.5 -38.5q28 -13 32.5 -28.5t-23.5 -15.5h-45q-20 -23 -34 -37q-17 -17 -28.5 -22t-17 -3t-5 10t8.5 19l25 33h-48q-9 0 -13 1q-10 -12 -19 -21.5t-16 -16.5q-17 -17 -28 -22t-16.5 -3t-5 10t8.5 19zM285 163
q6 0 11.5 -0.5t10.5 -1.5l48 64h-59q-11 -15 -23 -30.5t-25 -31.5h37z" />
    <glyph glyph-name="fraction" unicode="&#x2044;" horiz-adv-x="228" 
d="M57 -40q-17 -15 -36.5 -24.5t-33.5 -9.5h-28q-14 0 -14 10t16 24l453 461q17 14 36.5 23.5t33.5 9.5h29q14 0 13.5 -9.5t-16.5 -23.5z" />
    <glyph glyph-name="registered" unicode="&#xae;" horiz-adv-x="732" 
d="M759 506q27 -34 26 -86.5t-21 -112t-53.5 -120t-72.5 -110.5q-62 -82 -133 -135t-138 -76.5t-124 -17t-90 45.5q-30 35 -34.5 89.5t15 119t61.5 134t105 132.5t131 107t130.5 63.5t114.5 12.5t83 -46zM710 457q-26 33 -69.5 39t-96.5 -10.5t-110.5 -53.5t-110.5 -90
q-52 -53 -87 -111t-51 -112t-12.5 -100t29.5 -76q27 -33 74.5 -38.5t104 14t116 64.5t111.5 113q32 43 60.5 94t45.5 100.5t18 93.5t-22 73zM669 372q12 -16 2.5 -42.5t-31.5 -55t-51.5 -56.5t-56.5 -46.5t-48 -24.5t-25 8q-2 8 8.5 25t26 37.5t32 40.5t26.5 34
q-16 -4 -38.5 -19.5t-46 -36t-45 -43.5t-34.5 -43q-14 -20 -26 -37.5t-21 -30.5q-11 -15 -20 -27q-12 -15 -28.5 -24.5t-30.5 -9.5h-29q-14 0 -16.5 10t8.5 24l201 285q12 15 28.5 24t30.5 9h29q14 0 16.5 -9.5t-8.5 -23.5l-34 -47q31 27 60.5 45.5t54.5 28.5t42.5 11
t23.5 -6z" />
    <glyph glyph-name="ellipsis" unicode="&#x2026;" horiz-adv-x="512" 
d="M160 55q0 -23 -15.5 -39t-38.5 -16t-39 16t-16 39t16 38.5t39 15.5t38.5 -15.5t15.5 -38.5zM331 55q0 -23 -16 -39t-39 -16t-38.5 16t-15.5 39t15.5 38.5t38.5 15.5t39 -15.5t16 -38.5zM502 55q0 -23 -16 -39t-39 -16t-38.5 16t-15.5 39t15.5 38.5t38.5 15.5t39 -15.5
t16 -38.5z" />
    <glyph glyph-name="less" unicode="&#x3c;" horiz-adv-x="358" 
d="M257 156q5 -8 1.5 -24.5t-10.5 -32.5t-15.5 -25.5t-13.5 -2.5l-39 61q-9 14 -7 31.5t11.5 34.5t25 33t33.5 27q25 15 42 24t29.5 15.5t22.5 11.5t21 12q13 7 14 -3t-5.5 -25.5t-19.5 -32.5t-27 -23q-23 -11 -45.5 -25t-45.5 -22q8 -7 14.5 -16t13.5 -18z" />
    <glyph glyph-name="greater" unicode="&#x3e;" horiz-adv-x="358" 
d="M238 236q-5 7 -2 24t10.5 33t16 25.5t13.5 2.5l39 -61q9 -14 7 -31.5t-11.5 -34.5t-25 -33t-33.5 -27q-26 -15 -42.5 -24t-29 -15.5t-22.5 -11.5t-22 -12q-13 -7 -14 3t6 25.5t19.5 32.5t27.5 23q23 11 45 25t46 22q-8 7 -14.5 16t-13.5 18z" />
    <glyph glyph-name="guilsinglleft" unicode="&#x2039;" horiz-adv-x="358" 
d="M257 156q5 -8 1.5 -24.5t-10.5 -32.5t-15.5 -25.5t-13.5 -2.5l-39 61q-9 14 -7 31.5t11.5 34.5t25 33t33.5 27q25 15 42 24t29.5 15.5t22.5 11.5t21 12q13 7 14 -3t-5.5 -25.5t-19.5 -32.5t-27 -23q-23 -11 -45.5 -25t-45.5 -22q8 -7 14.5 -16t13.5 -18z" />
    <glyph glyph-name="guilsinglright" unicode="&#x203a;" horiz-adv-x="358" 
d="M238 236q-5 7 -2 24t10.5 33t16 25.5t13.5 2.5l39 -61q9 -14 7 -31.5t-11.5 -34.5t-25 -33t-33.5 -27q-26 -15 -42.5 -24t-29 -15.5t-22.5 -11.5t-22 -12q-13 -7 -14 3t6 25.5t19.5 32.5t27.5 23q23 11 45 25t46 22q-8 7 -14.5 16t-13.5 18z" />
    <glyph glyph-name="guillemotleft" unicode="&#xab;" horiz-adv-x="492" 
d="M257 156q5 -8 1.5 -24.5t-10.5 -32.5t-15.5 -25.5t-13.5 -2.5l-39 61q-9 14 -7 31.5t11.5 34.5t25 33t33.5 27q25 15 42 24t29.5 15.5t22.5 11.5t21 12q13 7 14 -3t-5.5 -25.5t-19.5 -32.5t-27 -23q-23 -11 -45.5 -25t-45.5 -22q8 -7 14.5 -16t13.5 -18zM397 156
q5 -8 1.5 -24.5t-10.5 -32.5t-15.5 -25.5t-13.5 -2.5l-39 61q-9 14 -7 31.5t11.5 34.5t25 33t33.5 27q25 15 42 24t29.5 15.5t22.5 11.5t21 12q13 7 14 -3t-5.5 -25.5t-19.5 -32.5t-27 -23q-23 -11 -45.5 -25t-45.5 -22q8 -7 14.5 -16t13.5 -18z" />
    <glyph glyph-name="guillemotright" unicode="&#xbb;" horiz-adv-x="454" 
d="M238 236q-5 7 -2 24t10.5 33t16 25.5t13.5 2.5l39 -61q9 -14 7 -31.5t-11.5 -34.5t-25 -33t-33.5 -27q-26 -15 -42.5 -24t-29 -15.5t-22.5 -11.5t-22 -12q-13 -7 -14 3t6 25.5t19.5 32.5t27.5 23q23 11 45 25t46 22q-8 7 -14.5 16t-13.5 18zM378 236q-5 7 -2 24t10.5 33
t16 25.5t13.5 2.5l39 -61q9 -14 7 -31.5t-11.5 -34.5t-25 -33t-33.5 -27q-26 -15 -42.5 -24t-29 -15.5t-22.5 -11.5t-22 -12q-13 -7 -14 3t6 25.5t19.5 32.5t27.5 23q23 11 45 25t46 22q-8 7 -14.5 16t-13.5 18z" />
    <glyph glyph-name="OE" unicode="&#x152;" horiz-adv-x="916" 
d="M810 524q-40 -60 -10 -98.5t121 -38.5q25 0 36.5 -6.5t9.5 -14.5t-18.5 -15.5t-46.5 -8.5q-72 -3 -127.5 -21.5t-93.5 -45.5t-57 -58.5t-18.5 -61t22 -52.5t65.5 -33q46 -11 91.5 4.5t87.5 44.5t79 64.5t65 65.5q14 15 24.5 18t15.5 -0.5t3.5 -13t-11.5 -20.5
q-32 -36 -70 -77t-84.5 -75.5t-102 -57.5t-121.5 -23q-80 0 -128 23.5t-65 59.5q-50 -37 -100 -58.5t-94.5 -27t-81 5t-60.5 38.5q-29 34 -33 86.5t14.5 114.5t59 128.5t100.5 127.5t126 104t126.5 62t111 12t79.5 -45q19 -25 23 -57q66 46 150.5 72t175.5 26q14 0 26 -2
t19 -7t7.5 -14t-6.5 -22q-8 -16 -27 -34t-42 -26q-11 -3 -24 -4.5t-23 0.5t-14 7t3 14q8 11 16.5 21.5t1.5 17.5q-25 -1 -53.5 -8t-56 -19t-51.5 -30t-40 -42zM265 78q16 -11 38.5 -11t49 9t56 26.5t59.5 43.5q5 30 25 61.5t55 60.5t84.5 53.5t113.5 40.5q-41 9 -62.5 26.5
t-26 40t5.5 48.5t33 51q4 32 -3 56t-25 36q-24 16 -64 8.5t-87.5 -34t-96 -70t-88.5 -99.5q-40 -57 -64 -112t-32.5 -102t-1.5 -82t31 -51z" />
    <glyph glyph-name="quotesinglbase" unicode="&#x201a;" horiz-adv-x="171" 
d="M-33 -62q42 26 63.5 56.5t37.5 64.5q11 22 30 29t34 1t19.5 -22.5t-12.5 -41.5q-23 -31 -56 -59.5t-78 -46.5q-21 -9 -34 -9.5t-17.5 3.5t-1 11t14.5 14z" />
    <glyph glyph-name="quotedblbase" unicode="&#x201e;" horiz-adv-x="291" 
d="M-33 -62q42 26 63.5 56.5t37.5 64.5q11 22 30 29t34 1t19.5 -22.5t-12.5 -41.5q-23 -31 -56 -59.5t-78 -46.5q-21 -9 -34 -9.5t-17.5 3.5t-1 11t14.5 14zM87 -62q42 26 63.5 56.5t38.5 64.5q11 22 29.5 29t33.5 1t19.5 -22.5t-12.5 -41.5q-23 -31 -56 -59.5t-77 -46.5
q-21 -9 -34 -9.5t-18 3.5t-1.5 11t14.5 14z" />
    <glyph glyph-name="florin" unicode="&#x192;" horiz-adv-x="199" 
d="M146 316q0 1 2 3q29 42 59.5 86t62.5 85t64.5 77t65 61t63.5 37t61 5q31 -7 35 -38t-24.5 -79t-92.5 -109t-169 -128q31 -1 53 -10t32 -19.5t6 -19t-23 -8.5h-137l-278 -428q-12 -15 -29 -24.5t-31 -9.5h-29q-14 0 -16 10t9 24q51 80 101 158q21 33 44.5 69t46.5 71.5
t44.5 68.5t40.5 61q-24 1 -41 10.5t-24 19.5t-3.5 18.5t20.5 8.5h87zM510 616q-6 10 -21.5 1.5t-37 -29.5t-46 -50.5t-49 -61.5t-46.5 -63t-38 -53q24 14 53 35.5t57.5 46.5t54.5 51t44 49.5t26.5 43t2.5 30.5z" />
    <glyph glyph-name="bar" unicode="|" horiz-adv-x="160" 
d="M28 -36q-9 -14 -19 -11t-17 15t-8.5 30.5t7.5 36.5q3 6 18.5 29t39.5 57.5t53 76.5t59 85t59 84t51.5 73t36.5 52t15 21q12 15 29 24t31 9q19 0 22.5 -9.5t-7.5 -23.5q-3 -3 -19.5 -25.5t-43 -60.5t-62 -89.5t-76 -111.5t-83.5 -126.5t-86 -135.5z" />
    <glyph glyph-name="dagger" unicode="&#x2020;" horiz-adv-x="228" 
d="M277 414l70 99q12 15 29 24t31 9q19 0 22.5 -9.5t-7.5 -23.5q-3 -4 -22.5 -30.5t-51.5 -71.5q25 -5 41.5 -14t22.5 -18t1.5 -15.5t-22.5 -6.5h-81q-54 -78 -121.5 -180t-136.5 -213q-9 -14 -19 -11t-17 15t-8.5 30.5t7.5 36.5q4 7 26 39.5t54 79t69.5 100t72.5 103.5
q-23 2 -39.5 11t-23.5 19.5t-3 18.5t21 8h85z" />
    <glyph glyph-name="daggerdbl" unicode="&#x2021;" horiz-adv-x="228" 
d="M277 414l70 99q12 15 29 24t31 9q19 0 22.5 -9.5t-7.5 -23.5q-3 -4 -22.5 -30.5t-51.5 -71.5q25 -5 41.5 -14t22.5 -18t1.5 -15.5t-22.5 -6.5h-81l-114 -169q27 -3 44.5 -12.5t25 -19t3 -17t-22.5 -7.5h-87q-27 -41 -53.5 -83t-53.5 -85q-9 -14 -19 -11t-17 15t-8.5 30.5
t7.5 36.5l22 33t44 65q-21 4 -35 13t-19.5 19t-1 17.5t20.5 7.5h74q28 41 58 83.5t59 83.5q-23 2 -39.5 11t-23.5 19.5t-3 18.5t21 8h85z" />
    <glyph glyph-name="Scaron" unicode="&#x160;" horiz-adv-x="565" 
d="M418 554q46 60 117 88.5t180 28.5q28 0 44 -9t2 -36q-9 -16 -28 -34t-42 -26q-11 -3 -24 -4.5t-23 0.5t-14 7.5t3 14.5q4 5 10.5 11.5t11.5 13t7.5 12t-1.5 8.5q-28 5 -54 1.5t-49 -14t-41.5 -27t-30.5 -35.5q-16 -25 -14 -55.5t12.5 -65t24 -73t19.5 -79t-1 -83.5
t-36 -87q-49 -72 -112.5 -96t-137.5 -18q-35 3 -61.5 19.5t-43.5 40t-24.5 52t-5 55.5t15.5 49t37 33q15 7 33 7.5t32 -3t20 -10.5t-3 -15q-21 -20 -30.5 -46.5t-7.5 -52.5t16 -48.5t40 -32.5q17 -7 36 -8.5t37.5 3.5t36.5 19t33 38q21 34 22 70.5t-7.5 74t-21 76.5
t-17.5 78t2 78.5t38 79.5zM702 770q4 -10 7 -20.5t5 -21.5q20 16 34.5 31.5t37.5 28.5q13 8 32.5 9.5t34.5 -2t21 -10.5t-6 -15l-24 -16t-19 -11.5t-25 -12.5t-41 -20q-39 -18 -73.5 -18.5t-47.5 30.5l-27 67q-3 8 9.5 9.5t29.5 -2t33 -10.5t19 -16z" />
    <glyph glyph-name="Lslash" unicode="&#x141;" horiz-adv-x="496" 
d="M367 1q-21 -3 -33.5 2.5t-22.5 13t-19.5 15.5t-22.5 11q-11 2 -24.5 -2t-26.5 -11q-15 -8 -30 -19q5 9 11 19q5 8 11.5 16.5t13.5 15.5l17 12l-30 -42q-12 -15 -28.5 -24.5t-30.5 -9.5h-29q-14 0 -16.5 10t8.5 24l175 251q-21 -5 -38 -1t-25.5 11t-7 15.5t16.5 14.5
l111 41l191 272q11 15 28 24.5t31 9.5h29q14 0 16 -10t-9 -24l-159 -228q25 5 44 2t28.5 -9.5t7.5 -14.5t-19 -14l-116 -42l-178 -256q41 30 65.5 35t40 -1t26 -15.5t24.5 -9.5q19 0 44.5 16.5t53 41.5t54 54t47.5 54q13 16 23 20t14.5 -0.5t3.5 -14.5t-10 -21
q-30 -39 -64.5 -78.5t-69.5 -72.5t-68 -55t-58 -26z" />
    <glyph glyph-name="lslash" unicode="&#x142;" horiz-adv-x="199" 
d="M440 597q22 3 39 -0.5t24.5 -9.5t5 -13.5t-18.5 -13.5l-104 -39q-36 -50 -78 -109.5t-80.5 -114t-67.5 -97t-38 -58.5q-19 -30 -21.5 -43.5t5.5 -15.5q10 -3 34 13t52.5 42t57.5 56t49 55q13 16 22.5 20.5t14 0t3.5 -14.5t-8 -22q-7 -10 -23.5 -30t-39 -44t-49 -50
t-54 -48t-53.5 -38.5t-48 -20.5q-29 -6 -45.5 3t-21 28t2 44.5t21.5 52.5q7 12 31.5 48.5t58 85t72 104t74.5 106.5q-23 -8 -42.5 -5.5t-30 10t-10.5 16.5t17 15q25 10 56.5 21.5t67.5 24.5l59 82q12 15 29 24.5t31 9.5h29q14 0 16 -10t-9 -24z" />
    <glyph glyph-name="Zcaron" unicode="&#x17d;" horiz-adv-x="603" 
d="M506 670q21 3 37 -5.5t31.5 -20t31.5 -23t36 -14.5q9 -2 21.5 1.5t26 9t26.5 12.5t24 13q16 14 35 22.5t33 8.5h29q14 0 13 -9.5t-16 -23.5l-536 -525q43 21 74 19t55 -12.5t43 -22.5t37 -12q19 0 44 15.5t52 39.5t53.5 52.5t46.5 53.5q13 16 23 20t14.5 -0.5t3.5 -14.5
t-9 -21q-30 -39 -64.5 -78t-69 -71t-67 -53.5t-58.5 -24.5q-21 -3 -41.5 5.5t-41.5 20t-41.5 23t-40.5 14.5q-11 1 -24.5 -3t-28 -10.5t-28 -14.5t-23.5 -14l-17 -11q-1 0 -2 -1q-24 -13 -41 -13h-30q-14 0 -12.5 10t16.5 24l533 522q-42 -20 -72 -18.5t-53 11.5t-40.5 21.5
t-35.5 11.5q-28 0 -59 -27q-12 -11 -22 -13t-15.5 2t-3.5 13t14 21q35 34 74 60t65 30zM647 738q4 -10 7 -20.5t5 -21.5q20 16 34.5 31.5t37.5 28.5q13 8 32.5 9.5t34.5 -2t21 -10.5t-6 -15l-24 -16t-19 -11.5t-25 -12.5t-41 -20q-39 -18 -73.5 -18.5t-47.5 30.5l-27 67
q-3 8 9.5 9.5t29.5 -2t33 -10.5t19 -16z" />
    <glyph glyph-name="zcaron" unicode="&#x17e;" horiz-adv-x="334" 
d="M355 333q7 10 17.5 12.5t19.5 0t13.5 -8.5t-0.5 -14q-16 -25 -41.5 -53t-57 -56.5t-67.5 -57t-72 -54.5q12 1 20 -2t14.5 -6.5t13 -6.5t15.5 -3q19 0 45.5 16.5t55 41t56 53.5t47.5 54q13 16 23 20t15 -0.5t4 -14.5t-10 -21q-30 -39 -65.5 -78.5t-71.5 -72t-69.5 -54.5
t-59.5 -26q-21 -3 -31.5 2t-17.5 13l-14 16t-20 11q-12 2 -27 -3t-29 -12q-7 -5 -14 -9.5t-14 -8.5q-15 -9 -25.5 -8t-14 8.5t1 18t19.5 20.5q35 23 72 48.5t73.5 53t70.5 55.5t63 55q-43 -13 -76 -5t-51 27q-12 -26 -36 -54q-12 -13 -22 -16.5t-15 0t-4 13t11 22.5
q15 19 29 40.5t18 36.5v6q0 12 15.5 18.5t35 7.5t37 -3.5t21.5 -15.5q4 -10 13 -19t22 -12t29.5 2t34.5 23zM324 505q4 -10 7 -20.5t5 -21.5q20 16 34.5 31.5t37.5 28.5q13 8 32.5 9.5t34.5 -2t21 -10.5t-6 -15l-24 -16t-19 -11.5t-25 -12.5t-41 -20q-39 -18 -73.5 -18.5
t-47.5 30.5l-27 67q-3 8 9.5 9.5t29.5 -2t33 -10.5t19 -16z" />
    <glyph glyph-name="bracketleft" unicode="[" horiz-adv-x="382" 
d="M436 498q12 15 24.5 22t26 8.5t29 0.5t33.5 -1q33 0 60 -9t41.5 -20t14.5 -20t-20 -9h-133q-19 -26 -53 -74.5t-77.5 -111.5t-93 -138t-98.5 -154q9 0 22.5 0.5t21.5 0.5q33 0 57 -9t34.5 -19.5t7.5 -19.5t-24 -9h-93.5h-56t-28 0.5t-9.5 1.5q-11 3 -16.5 13.5t-7 23
t0.5 25.5t5 20q3 6 18.5 29t39.5 57.5t53 76.5t59 85t59 84t51.5 73t36.5 52t15 21z" />
    <glyph glyph-name="bracketright" unicode="]" horiz-adv-x="386" 
d="M170 -23q-12 -15 -24.5 -22t-26 -8.5t-28.5 -0.5t-33 1q-33 0 -60 9t-41.5 19.5t-14.5 19.5t21 9h133q19 26 53 74.5t77.5 112t92.5 138t99 153.5q-9 1 -22.5 0.5t-22.5 -0.5q-33 0 -57 9t-34.5 19.5t-7.5 19.5t24 9h93.5t55.5 -0.5t27.5 -1t9.5 -0.5q12 -3 17.5 -13.5
t6.5 -23t-1 -25.5t-5 -20q-3 -6 -18.5 -29t-39 -57.5t-53 -76.5t-59.5 -85t-58.5 -84t-51.5 -73t-37 -52t-15 -21z" />
    <glyph glyph-name="backslash" unicode="\" horiz-adv-x="160" 
d="M316 -55q6 -15 -2 -21.5t-22 -5t-29.5 11t-25.5 27.5q-4 8 -20 51t-37 103.5t-44.5 129t-43.5 127t-33.5 98t-14.5 41.5q-5 18 -2.5 37t10.5 30q11 15 21 12.5t15 -19.5q1 -4 9.5 -30.5t23.5 -70.5t36 -102.5t46 -126.5t53.5 -142.5t59.5 -149.5z" />
    <glyph glyph-name="underscore" unicode="_" horiz-adv-x="314" 
d="M262 -7q33 0 56 -8t33.5 -18t6.5 -18t-25 -8h-216q-26 0 -44 8t-25.5 18t-3.5 18t22 8h196z" />
    <glyph glyph-name="asciicircum" unicode="^" horiz-adv-x="354" 
d="M353 276q-2 5 4 22t13.5 36t14 35.5t5.5 21.5q-10 -8 -26 -27t-33.5 -40t-34 -40t-27.5 -25q-13 -8 -32 -9.5t-34 2t-21.5 10t5.5 14.5q15 10 31.5 27.5t36 37t41.5 38t49 31.5q19 9 38 11.5t33 -11t22 -49t6 -103.5q3 -8 -9.5 -9.5t-29.5 2t-33 10t-19 15.5z" />
    <glyph glyph-name="question" unicode="?" horiz-adv-x="360" 
d="M189 225q15 21 39.5 35.5t52.5 31.5t56 40t51 61q22 35 18 62t-22.5 39.5t-47.5 8.5t-57 -32q-26 -25 -27.5 -55t27.5 -51q9 -7 0.5 -22.5t-24.5 -28.5t-34 -17.5t-27 10.5q-12 19 -14 42.5t5 48t23.5 49t40.5 45.5q37 32 76.5 44t75 8t62 -22.5t36.5 -46.5t-0.5 -65
t-49.5 -78q-22 -24 -54 -41.5t-65 -33.5t-63.5 -31t-49.5 -34q-12 -12 -22 -13.5t-14.5 4.5t-3 17t11.5 25zM160 55q0 -23 -15.5 -39t-38.5 -16t-39 16t-16 39t16 38.5t39 15.5t38.5 -15.5t15.5 -38.5z" />
    <glyph glyph-name="tilde" unicode="&#x2dc;" horiz-adv-x="343" 
d="M159 533q30 25 50.5 31.5t36 3t27.5 -14t25.5 -18t30.5 -9t43 11.5q20 10 33.5 12t16 -4t-6.5 -19t-34 -32q-38 -30 -63.5 -38t-43 -5t-30.5 14t-26 19t-28.5 9.5t-39.5 -12.5q-11 -7 -20.5 -8t-12 5t6.5 19t35 35z" />
    <glyph glyph-name="asciitilde" unicode="~" horiz-adv-x="385" 
d="M162 214q31 25 51.5 31.5t35.5 2.5t27 -14t25.5 -18t31 -9.5t43.5 11.5q20 10 33.5 12.5t16 -3.5t-6.5 -19t-34 -32q-38 -30 -63.5 -38.5t-43 -5t-30.5 14t-26.5 19t-29 10t-39.5 -13.5q-11 -7 -20.5 -8t-12 5t6.5 19.5t35 35.5z" />
    <glyph glyph-name="trademark" unicode="&#x2122;" horiz-adv-x="578" 
d="M545 323q-36 -54 -67 -79.5t-74 -25.5q-21 0 -32 14q-3 3 -3 7t3 3q5 0 13.5 -4.5t20.5 -4.5q27 0 55 25.5t51 60.5q5 7 19.5 27.5t30.5 43t28.5 41t14.5 21.5q3 5 8.5 8.5t14.5 4.5h12q11 0 6 -13l-73 -174l159 174q6 6 13.5 9t12.5 3h6h2h9q12 0 3 -12q-1 -1 -10 -13.5
t-22 -30.5t-28.5 -40t-29 -41.5t-24.5 -35t-14 -21.5q-8 -11 -8.5 -16t2.5 -5q4 -1 13 5t19.5 15.5t21 20t17.5 19.5q11 13 14 8.5t-2 -13.5q-4 -6 -15 -19t-25.5 -27t-30.5 -25.5t-28 -13.5q-21 -4 -24 11.5t8 35.5q2 4 9.5 14.5t17.5 25.5t22.5 32.5t24.5 34.5l-125 -142
q-5 -5 -12.5 -8.5t-12.5 -3.5h-6q-13 0 -6 12l55 141zM323 338q-29 0 -41 20t-6 43.5t32.5 43.5t75.5 20h200q9 0 9.5 -5.5t-4 -12t-12.5 -12t-16 -5.5t-29.5 3.5t-48.5 7.5q-7 -9 -19 -26t-25 -35t-24 -34t-15 -23q-37 -54 -67.5 -79.5t-73.5 -25.5q-22 0 -33 14
q-2 3 -2 6.5t3 3.5q4 0 12 -4.5t22 -4.5q26 0 48 25.5t45 60.5q4 7 18 26t29 40t28 39t17 23q-17 2 -33 3.5t-30 1.5q-35 0 -52 -14.5t-19 -32t9 -32t32 -14.5q9 0 9.5 -3.5t-4.5 -7t-14.5 -7t-20.5 -3.5z" />
    <glyph glyph-name="scaron" unicode="&#x161;" horiz-adv-x="284" 
d="M122 282q25 32 69 50t102 18q28 0 44 -9t1 -36q-9 -16 -27.5 -34t-41.5 -26q-11 -3 -24 -4.5t-23 0.5t-14 7t3 14q4 5 10 11.5t11 13.5t7.5 12.5t-0.5 9.5q-14 2 -34 -7t-31 -26q-10 -15 -3.5 -26.5t20.5 -21.5t31.5 -21.5t29.5 -26.5t14.5 -36t-13.5 -51
q-13 -24 -34 -42.5t-46 -30t-53.5 -16t-56.5 -2.5q-40 3 -57.5 22t-18 41.5t12 43.5t31.5 30q10 5 25.5 5t27.5 -3t18 -9t-3 -14q-7 -7 -16 -17.5t-14.5 -22t-5.5 -21t11 -13.5q11 -5 26 -4t30 7.5t28 18t20 29.5t-1 31t-21.5 24.5t-29 23t-24 26t-5.5 34.5t25 48zM312 505
q4 -10 7 -20.5t5 -21.5q20 16 34.5 31.5t37.5 28.5q13 8 32.5 9.5t34.5 -2t21 -10.5t-6 -15l-24 -16t-19 -11.5t-25 -12.5t-41 -20q-39 -18 -73.5 -18.5t-47.5 30.5l-27 67q-3 8 9.5 9.5t29.5 -2t33 -10.5t19 -16z" />
    <glyph glyph-name="oe" unicode="&#x153;" horiz-adv-x="554" 
d="M356 330q12 -14 17 -36q35 26 76.5 42.5t86.5 16.5q23 0 40 -7.5t25.5 -20t6.5 -30.5t-17 -39q-15 -22 -40.5 -42t-58.5 -36t-72 -27t-80 -14q-6 -25 -1 -43.5t25 -23.5q20 -6 55 8t76 40t83 60.5t76 70.5q13 15 23.5 18t15.5 -0.5t3.5 -13t-10.5 -20.5q-32 -36 -77 -77
t-93 -75.5t-94 -57.5t-82 -23q-45 0 -67 19.5t-26 50.5q-32 -26 -65 -43.5t-63 -24.5t-55 -3t-40 20q-17 18 -18.5 45.5t10.5 60.5t35.5 68t58.5 67q34 33 70.5 54.5t70 31t61 6t44.5 -21.5zM255 154q19 25 32 49t19 45t4.5 36.5t-10.5 22.5q-10 7 -25.5 4t-34 -15t-39 -31
t-39.5 -44t-31.5 -49t-18.5 -44.5t-4.5 -36t10.5 -22.5q10 -7 25.5 -4t34 14.5t38.5 30.5t39 44zM471 304q-17 -6 -34 -18.5t-32.5 -30t-28.5 -37.5t-22 -40q45 5 78 18.5t54 30t30.5 34t8 29.5t-15 17t-38.5 -3z" />
    <glyph glyph-name="ordfeminine" unicode="&#xaa;" horiz-adv-x="405" 
d="M249 406q46 45 88 71t78 35.5t64 4t46 -21.5q11 11 25 17t26 6h29q14 0 16.5 -9.5t-8.5 -23.5q-4 -5 -19 -24t-33.5 -45.5t-38.5 -55t-34 -52.5q-19 -30 -21.5 -43.5t5.5 -15.5q10 -3 33.5 13t52 42t57.5 56t50 55q13 16 22.5 20.5t14 0t3.5 -14.5t-9 -22q-7 -10 -23 -30
t-38.5 -44t-49.5 -50t-54.5 -48t-53.5 -38.5t-48 -20.5q-25 -5 -40.5 1.5t-22 20.5t-5 34t10.5 43q-18 -17 -39 -35t-43 -32.5t-44.5 -24t-42.5 -9.5q-28 0 -43 19t-12 51.5t27 76t74 93.5zM297 366q-24 -27 -36.5 -53.5t-12 -44t15 -20.5t45.5 17q22 13 48 37.5t51.5 52
t48 54.5t36.5 45l11 14q-23 13 -51.5 7t-57 -23t-54.5 -40.5t-44 -45.5z" />
    <glyph glyph-name="exclamdown" unicode="&#xa1;" horiz-adv-x="347" 
d="M366 468q0 23 15.5 39t38.5 16t39 -16t16 -39t-16 -38.5t-39 -15.5t-38.5 15.5t-15.5 38.5zM345 290q-8 -16 -23 -42.5t-33 -57.5t-37.5 -65t-36.5 -64t-30.5 -53.5t-19.5 -35.5q-9 -17 -32.5 -27t-45 -11.5t-34 6t0.5 25.5q8 11 26.5 35.5t42 57t50.5 68t52 69t45 60
t31 40.5q15 19 26.5 25.5t17.5 4t6.5 -12.5t-6.5 -22z" />
    <glyph glyph-name="questiondown" unicode="&#xbf;" horiz-adv-x="415" 
d="M386 303q-15 -21 -39.5 -35.5t-52.5 -31.5t-56 -40.5t-51 -60.5q-22 -35 -18.5 -62t22.5 -39.5t47.5 -8.5t57.5 32q26 25 27.5 55t-27.5 51q-9 7 -0.5 22.5t24.5 28.5t34 17.5t27 -10.5q12 -19 14 -42.5t-5 -48t-23.5 -49t-40.5 -45.5q-36 -32 -76 -44t-75.5 -8t-62 22.5
t-36.5 46.5t0.5 65t49.5 78q22 24 54 41.5t65 33.5t63.5 31t49.5 34q12 12 22 13.5t14.5 -4.5t3 -17.5t-11.5 -24.5zM415 473q0 23 15.5 39t38.5 16t39 -16t16 -39t-16 -38.5t-39 -15.5t-38.5 15.5t-15.5 38.5z" />
    <glyph glyph-name="degree" unicode="&#xb0;" horiz-adv-x="279" 
d="M230 452q11 18 28 32.5t36.5 24t40 14t38.5 2.5q36 -5 45.5 -31.5t-13.5 -61.5q-12 -17 -29 -31.5t-36.5 -24t-39.5 -14t-38 -2.5q-37 4 -46.5 30.5t14.5 61.5zM297 470q-16 -12 -18 -27t5.5 -26t22 -13.5t30.5 9.5q17 15 18.5 30t-6.5 25t-22.5 12t-29.5 -10z" />
    <glyph glyph-name="cent" unicode="&#xa2;" horiz-adv-x="308" 
d="M54 -88q-9 -14 -19 -11t-17 15t-8.5 30.5t7.5 36.5l27 40q-20 18 -22.5 48t8.5 64.5t34.5 70t56.5 66t73.5 52t85.5 27.5l45 61q12 15 28.5 24t30.5 9q19 0 23 -9.5t-7 -23.5q-2 -3 -15.5 -20t-35.5 -46q10 -5 12.5 -14.5t-5.5 -24.5q-9 -16 -27.5 -33.5t-41.5 -25.5
l-11 -3q-27 -38 -58 -82t-64 -94q22 1 53 17t65.5 41.5t69.5 57t66 64.5q14 15 24.5 18t15.5 -0.5t3.5 -13t-11.5 -20.5q-32 -36 -73.5 -77t-85.5 -75.5t-87.5 -57.5t-78.5 -23h-5q-14 -21 -28 -43t-28 -45zM246 304q-24 -8 -47 -29t-42 -47.5t-31 -55t-14 -52.5
q32 45 67.5 93.5t66.5 90.5z" />
    <glyph glyph-name="yen" unicode="&#xa5;" horiz-adv-x="500" 
d="M360 177l18 26t18 27l5 8q-24 -16 -48 -25.5t-48 -9.5q-77 0 -70.5 49t81.5 155q25 35 39.5 56t22.5 33t12.5 18t9.5 12q10 12 23.5 20t25.5 8h35q12 0 14 -8.5t-7 -19.5q-13 -15 -98 -133q-53 -74 -67 -104t17 -30q20 0 42 12.5t44.5 33t46 47.5t46.5 57q31 43 54 74.5
t27 36.5q3 5 6.5 10.5t8.5 10.5t13.5 8t22.5 3h33q11 0 12.5 -8.5t-6.5 -19.5q-2 -2 -15.5 -21t-33 -46t-43 -60t-45 -63.5t-39.5 -56t-26 -37.5q-12 -18 -23.5 -35t-22.5 -32q21 -5 34.5 -13t18 -16t0 -14t-20.5 -6h-71q-52 -63 -104.5 -93t-122.5 -30q-31 0 -50 15t-27 37
t-4 48.5t18 49t38.5 38.5t58.5 18q23 1 33 -12t10.5 -28.5t-6.5 -28.5t-17 -11q-40 6 -64 -7.5t-31 -32.5t4 -35.5t41 -16.5q38 0 72.5 25t66.5 66q-19 3 -31.5 11.5t-17 17.5t0 15.5t19.5 6.5h67z" />
    <glyph glyph-name="currency" unicode="&#xa4;" horiz-adv-x="507" 
d="M217 200q17 27 44 47l-8 7q-18 15 -26 31.5t-8 28.5t7.5 16.5t19.5 -5.5t18.5 -15.5t12 -10t12.5 -9.5t19 -14q23 10 46.5 14.5t45.5 2.5q13 -2 24 -6l30 14q27 12 48.5 13.5t33.5 -3t12 -13.5t-16 -16l-73 -33q9 -33 -19 -75q-8 -11 -16.5 -21t-18.5 -18
q17 -15 24.5 -31t7.5 -28t-7 -16.5t-19 5.5l-51 40q-26 -14 -52.5 -20t-49.5 -3q-28 3 -41 14l-15 -7q-27 -12 -48.5 -13.5t-33.5 3t-12 13t17 16.5l70 31q0 29 22 61zM302 223q-21 -16 -23 -35t7.5 -33t27.5 -17.5t39 12.5q22 19 24 38.5t-8.5 32t-29 15t-37.5 -12.5z" />
    <glyph glyph-name="brokenbar" unicode="&#xa6;" horiz-adv-x="160" 
d="M198 335l125 178q12 15 29 24t31 9q19 0 22.5 -9.5t-7.5 -23.5q-4 -5 -38 -52.5t-87 -123.5zM206 239q-42 -63 -87.5 -132.5t-90.5 -142.5q-9 -14 -19 -11t-17 15t-8.5 30.5t7.5 36.5q3 6 20.5 32t43 63t56.5 82t63 90z" />
    <glyph glyph-name="section" unicode="&#xa7;" horiz-adv-x="404" 
d="M201 222q12 16 29.5 29t39.5 21q-11 16 -10 36.5t26 52.5t69 49.5t102 17.5q28 0 44 -9t2 -36q-9 -15 -28 -33.5t-42 -26.5q-11 -3 -24 -4.5t-23 0.5t-14 7.5t3 14.5q4 5 10.5 11.5t11.5 13t7.5 12t-1.5 9.5q-14 2 -33.5 -7t-30.5 -26q-10 -15 -3.5 -26.5t20.5 -21.5
t31.5 -21t29.5 -26.5t14.5 -36t-13.5 -50.5q-13 -24 -32.5 -41.5t-44.5 -29.5q5 -13 3.5 -29.5t-12.5 -38.5q-13 -24 -34 -42.5t-46 -30t-53.5 -16t-56.5 -2.5q-40 3 -57 21.5t-18 41t11.5 43.5t32.5 30q10 5 25.5 5.5t27.5 -2.5t17.5 -9t-3.5 -14q-7 -7 -16 -17.5
t-14.5 -22t-5.5 -21t11 -13.5q11 -5 26 -4t30 7t28 17.5t20 29.5t-1 31.5t-21.5 25t-29 22.5t-24 26t-5.5 35t25 48zM253 216q-8 -13 -4.5 -23t13.5 -19t24.5 -17.5t27.5 -19.5q19 13 28 36q4 13 1.5 23t-9.5 18.5t-17.5 16.5t-20.5 16q-12 -4 -23.5 -12t-19.5 -19z" />
    <glyph glyph-name="plusminus" unicode="&#xb1;" horiz-adv-x="398" 
d="M202 98q11 20 16 28t10 18q-25 0 -43 9.5t-26 20t-4.5 19.5t21.5 9h86l3 4q16 29 35.5 45t34.5 20t21 -3.5t-4 -25.5l-24 -42q26 -4 43.5 -13.5t24.5 -19t2 -16.5t-23 -7h-80q-3 -6 -7 -12t-8 -14q-13 -23 -30.5 -34.5t-31 -13.5t-19.5 5.5t3 22.5zM229 38q33 0 56.5 -9
t34.5 -20t7.5 -20t-23.5 -9h-144q-26 0 -45 9t-27 20t-5 20t21 9h125z" />
    <glyph glyph-name="twosuperior" unicode="&#xb2;" horiz-adv-x="360" 
d="M399 247q-12 -2 -20 3t-14.5 12t-13.5 13.5t-19 8.5t-31 -6.5t-32 -16.5q-10 -7 -20.5 -11.5t-17.5 -4.5h-18q-8 0 -6.5 6t11.5 14q52 39 94 72q18 14 35 27.5t31 24.5t23 18t11 9q51 40 63.5 69t2 42.5t-36.5 9t-52 -30.5q-15 -15 -16.5 -34.5t9.5 -36.5q4 -5 -1 -14.5
t-14 -16.5t-19 -9.5t-16 6.5q-7 12 -7 27t5.5 31t16 31.5t24.5 28.5q34 31 71.5 35.5t61.5 -10.5t25.5 -47t-36.5 -74q-22 -24 -45 -38.5t-47 -26.5t-48.5 -25t-49.5 -34q32 21 50.5 22t30.5 -5.5t20.5 -15.5t20.5 -9q8 0 16 4.5t19 12.5q17 11 22 4t-9 -18
q-22 -20 -40 -32.5t-34 -14.5z" />
    <glyph glyph-name="threesuperior" unicode="&#xb3;" horiz-adv-x="378" 
d="M445 437q37 3 59.5 19t30 34t0 32t-30.5 14q-19 0 -33 -6t-22.5 -15t-9 -20t7.5 -20q5 -6 -1 -15t-16 -16t-21.5 -9.5t-17.5 6.5q-12 17 -7 37t23 37.5t46 29t61 11.5t46.5 -19.5t8.5 -45.5t-27 -52.5t-60 -40.5q18 -8 24 -23.5t3 -34t-15.5 -37t-32.5 -32t-46 -19.5
t-57 1q-33 7 -46.5 29.5t-11 48t19.5 46.5t46 26q16 3 21 -5t4 -18t-6.5 -19t-11.5 -9q-21 0 -32.5 -10.5t-13 -24t7 -26.5t26.5 -17q19 -5 36 1t30 18.5t21.5 28t10.5 29.5t-3.5 24t-19.5 12q-12 -2 -15 5.5t-0.5 17t9.5 18t15 9.5z" />
    <glyph glyph-name="onesuperior" unicode="&#xb9;" horiz-adv-x="251" 
d="M270 268q-6 -8 -15 -13.5t-17 -5.5h-17q-8 0 -9.5 5.5t4.5 13.5l127 197h-5q-2 0 -5.5 0.5t-5.5 0.5q-5 0 -6 3.5t5 8.5l58 51q21 20 38 20h12q8 0 9.5 -6t-4.5 -14z" />
    <glyph glyph-name="ordmasculine" unicode="&#xba;" horiz-adv-x="446" 
d="M551 556q36 0 49 -23t8.5 -57t-24.5 -73.5t-51 -73.5t-70 -56.5t-82 -21.5q-36 0 -48 23t-6.5 57t27 73.5t52 73t68.5 56t77 22.5zM557 400q10 16 17.5 36t10 38t-1 32.5t-14.5 21.5q-16 10 -35 4t-39 -21.5t-39.5 -39t-34.5 -48.5q-12 -19 -20 -39t-11 -38t0 -31.5
t14 -18.5q26 -13 68.5 10.5t84.5 93.5z" />
    <glyph glyph-name="onequarter" unicode="&#xbc;" horiz-adv-x="900" 
d="M837 232q18 5 28 5q14 0 15.5 -13t-5 -28t-19 -28t-26.5 -13h-43l-78 -121q-11 -15 -28 -24.5t-31 -9.5h-28q-14 0 -17 10t8 24l78 121h-144q-14 0 -21 5.5t-7 14t6.5 18.5t18.5 18q7 5 33 25t62 48t78 61t81 63.5t70.5 55.5t47.5 38q23 23 49 23h29q14 0 17 -10t-8 -24z
M203 34q-11 -15 -27 -24.5t-30 -9.5h-29q-14 0 -17 10t7 24l224 345h-10q-5 0 -9.5 0.5t-8.5 0.5q-8 0 -10.5 6t8.5 16q12 10 27.5 23.5t30.5 26.5t27 23.5t17 15.5q20 18 34.5 26t31.5 8h21q14 0 17 -10t-8 -24zM326 32q-17 -15 -36 -24.5t-33 -9.5h-29q-14 0 -13.5 10
t16.5 24l453 460q17 15 36.5 24.5t33.5 9.5h29q14 0 13 -10t-16 -24zM641 190q16 0 36.5 3.5t43.5 8.5l136 212z" />
    <glyph glyph-name="onehalf" unicode="&#xbd;" horiz-adv-x="970" 
d="M819 2q-21 -3 -34 5.5t-24.5 20t-24 23t-31.5 14.5q-10 1 -23.5 -2t-27.5 -9t-28 -13.5t-25 -13.5q-17 -12 -36 -20t-32 -8h-29q-14 0 -12 9.5t19 23.5q88 68 159 123q30 23 59.5 46t53.5 41.5t39.5 30.5t18.5 15q57 46 85 83.5t33 64t-7.5 42t-36.5 17t-54.5 -11.5
t-59.5 -42q-26 -26 -28 -59t17 -61q7 -9 -2 -25t-24.5 -28.5t-32.5 -16t-26 11.5q-12 19 -12 45t9 53t27 53.5t42 47.5q38 35 80.5 49.5t79.5 12.5t65 -19.5t38 -47t-2 -69.5t-55 -88q-36 -40 -75 -64.5t-79 -45t-82 -42.5t-84 -57q36 23 61.5 31t44 6t31.5 -10t23.5 -17.5
t21 -17t23.5 -7.5t26.5 8t32.5 21q14 10 24 11t13.5 -3.5t0.5 -13t-15 -18.5q-37 -33 -68 -54t-57 -25zM203 34q-11 -15 -27 -24.5t-30 -9.5h-29q-14 0 -17 10t7 24l224 345h-10q-5 0 -9.5 0.5t-8.5 0.5q-8 0 -10.5 6t8.5 16q12 10 27.5 23.5t30.5 26.5t27 23.5t17 15.5
q20 18 34.5 26t31.5 8h21q14 0 17 -10t-8 -24zM326 32q-17 -15 -36 -24.5t-33 -9.5h-29q-14 0 -13.5 10t16.5 24l453 460q17 15 36.5 24.5t33.5 9.5h29q14 0 13 -10t-16 -24z" />
    <glyph glyph-name="threequarters" unicode="&#xbe;" horiz-adv-x="969" 
d="M947 232q18 5 28 5q14 0 15.5 -13t-5 -28t-19 -28t-26.5 -13h-43l-78 -121q-11 -15 -28 -24.5t-31 -9.5h-28q-14 0 -17 10t8 24l78 121h-144q-14 0 -21 5.5t-7 14t6.5 18.5t18.5 18q7 5 33 25t62 48t78 61t81 63.5t70.5 55.5t47.5 38q23 23 49 23h29q14 0 17 -10t-8 -24z
M287 319q43 4 74.5 18t51.5 33t29 40.5t6 39.5t-17.5 29.5t-40.5 11.5q-33 0 -57.5 -10.5t-38.5 -26.5t-15.5 -35t12.5 -35q8 -10 -2 -26t-28 -28t-38 -15.5t-30 11.5q-21 30 -11.5 64.5t41 64t79.5 49.5t105 20q38 0 61.5 -15.5t32 -40.5t2.5 -56t-25 -61.5t-50.5 -57
t-75.5 -43.5q30 -14 41 -41t5 -58t-27.5 -63t-55.5 -55t-79.5 -33.5t-99.5 0.5q-38 8 -60.5 29t-32 48t-6.5 57t17.5 56.5t39 45.5t57.5 24q27 4 35.5 -9t6.5 -31t-11.5 -33.5t-19.5 -15.5q-37 0 -56.5 -18t-22 -41.5t11.5 -45.5t46 -30q33 -8 62.5 3t52.5 32t37.5 48
t18 51.5t-7 41.5t-36.5 19q-19 -1 -23.5 12t0 29.5t16.5 30.5t26 16zM436 32q-17 -15 -36 -24.5t-33 -9.5h-29q-14 0 -13.5 10t16.5 24l453 460q17 15 36.5 24.5t33.5 9.5h29q14 0 13 -10t-16 -24zM751 190q16 0 36.5 3.5t43.5 8.5l136 212z" />
    <glyph glyph-name="mu" unicode="&#xb5;" 
d="M246 319q-4 -5 -18.5 -24t-33 -45.5t-38.5 -55t-35 -52.5q-19 -30 -21 -43.5t6 -15.5q10 -3 33 12.5t51 41t56.5 55.5t49.5 55q18 26 33 45.5t20 26.5q12 15 29 24t31 9h28q14 0 16.5 -9.5t-8.5 -23.5q-4 -5 -18.5 -24t-33.5 -45.5t-39 -55t-34 -52.5q-19 -30 -21 -43.5
t5 -15.5q10 -3 34 13t52.5 42t57.5 56t49 55q13 16 22.5 20.5t14 0t3.5 -14.5t-8 -22q-7 -10 -23 -30t-38.5 -44t-49.5 -50t-54.5 -48t-53.5 -38.5t-48 -20.5q-24 -5 -39.5 1t-22.5 19t-6.5 31.5t8.5 40.5q-36 -34 -73 -60t-66 -32q-43 -8 -60 11q-21 -48 -46 -103t-50 -103
q-8 -14 -20.5 -11.5t-23.5 14.5t-15.5 31t4.5 37q4 8 17.5 29.5t32 48.5t38.5 57t37.5 55.5t29.5 42.5t13 19q12 20 31.5 49.5t39.5 58t36.5 51.5t22.5 30q12 15 29 24t31 9h29q14 0 16 -9.5t-9 -23.5z" />
    <glyph glyph-name="paragraph" unicode="&#xb6;" horiz-adv-x="410" 
d="M477 428q33 0 57 -9t34.5 -19.5t7.5 -19.5t-24 -9h-26q-10 -14 -35.5 -48.5t-64 -90t-87.5 -130.5t-107 -169q-9 -13 -19 -10.5t-17 15t-8.5 31t7.5 36.5q4 7 22 34t44 63.5t56 79t57 80.5t48.5 67.5t29.5 41.5h-40q-10 -14 -35.5 -48.5t-64 -90t-88 -130.5t-107.5 -169
q-8 -13 -18 -10.5t-17 15t-8.5 31t7.5 36.5q4 8 24.5 38.5t49.5 71.5t62 87t61 85q-12 6 -17.5 29t1.5 48t28.5 44.5t62.5 19.5h124z" />
    <glyph glyph-name="Ydieresis" unicode="&#x178;" horiz-adv-x="542" 
d="M583 290q-50 -74 -93 -128.5t-86.5 -90t-91.5 -53t-107 -17.5q-38 0 -61 18t-32 45t-4.5 58.5t21.5 59t46.5 46.5t70.5 21q28 1 40 -14t13 -34t-7.5 -34t-20.5 -13q-33 5 -56.5 -1.5t-38.5 -19t-20.5 -28t-1.5 -30t18 -24t39 -9.5q36 0 69 19t64.5 51.5t61.5 75.5t62 90
l7 11q-29 -20 -58.5 -32t-58.5 -12q-47 0 -68 14.5t-18.5 45t28 77t70.5 110.5q30 43 48 68t28 39.5t15 21.5t11 15q12 14 29 23.5t31 9.5h43q14 0 16 -9.5t-9 -23.5q-7 -9 -37 -49t-81 -112q-32 -45 -52.5 -75.5t-28.5 -50t-3.5 -28t23.5 -8.5q26 0 55.5 18t60.5 47.5
t62 67.5t61 78q30 42 51 71t25 34q4 6 8 12.5t10.5 12t16.5 9.5t27 4h39q14 0 16.5 -9.5t-8.5 -23.5q-3 -3 -19 -25.5t-40 -55.5t-52 -72.5t-54 -77t-47.5 -68t-31.5 -45.5zM664 723q0 -20 -13 -33t-33 -13q-19 0 -32 13t-13 33q0 19 13 32t32 13q20 0 33 -13t13 -32z
M793 723q0 -20 -13.5 -33t-32.5 -13t-32 13t-13 33q0 19 13 32t32 13t32.5 -13t13.5 -32z" />
    <glyph glyph-name="multiply" unicode="&#xd7;" horiz-adv-x="366" 
d="M283 75q-5 13 -7.5 20t-4.5 11.5t-3.5 8.5t-4.5 11l-20 -22q-22 -24 -42.5 -35t-33.5 -10.5t-15.5 10.5t12.5 27q15 16 23 25t14.5 16.5t15 17.5t25.5 29q-9 31 -7.5 55t8.5 37t16.5 12.5t15.5 -19.5l13 -36q25 24 46 34.5t33.5 10.5t13.5 -10t-15 -28l-57 -63l11 -31
q8 -25 5.5 -45.5t-10.5 -31.5t-17.5 -11t-14.5 17z" />
    <glyph glyph-name="divide" unicode="&#xf7;" horiz-adv-x="363" 
d="M288 202q33 0 56.5 -9t34 -20t7.5 -20t-24 -9h-144q-26 0 -44.5 9t-27 20t-5 20t21.5 9h125zM374 293q0 -23 -15.5 -39t-38.5 -16t-39 16t-16 39t16 38.5t39 15.5t38.5 -15.5t15.5 -38.5zM254 55q0 -23 -16 -39t-39 -16t-38.5 16t-15.5 39t15.5 38.5t38.5 15.5t39 -15.5
t16 -38.5z" />
    <glyph glyph-name="Agrave" unicode="&#xc0;" horiz-adv-x="739" 
d="M1003 651q-49 -64 -97 -131q-21 -29 -43 -60.5t-44.5 -64t-44 -64.5t-40.5 -62q-47 -73 -68.5 -115t-24 -59.5t13 -12.5t43 27t64.5 58.5t79 81.5q12 13 21 15.5t12 -3t0 -16.5t-13 -24q-39 -49 -79.5 -90.5t-78.5 -71.5t-72 -46.5t-61 -16.5q-51 0 -55 46.5t35 122.5
l-232 4l-180 -136q-20 -15 -43 -24.5t-37 -9.5h-29q-14 0 -18.5 10t15.5 24l843 605q21 14 44 23.5t37 9.5h50q8 0 9.5 -5.5t-6.5 -14.5zM375 213l200 -4q13 21 28.5 43.5t34.5 47.5q31 40 66 85t68.5 87t62.5 75.5t48 50.5zM1084 728q11 -8 16.5 -16.5t2 -14t-16 -7
t-37.5 6.5q-50 15 -100.5 27t-91.5 20q-23 4 -25.5 16.5t7.5 25.5t28.5 21t36.5 3q44 -11 93 -34.5t87 -47.5z" />
    <glyph glyph-name="Aacute" unicode="&#xc1;" horiz-adv-x="739" 
d="M1003 651q-49 -64 -97 -131q-21 -29 -43 -60.5t-44.5 -64t-44 -64.5t-40.5 -62q-47 -73 -68.5 -115t-24 -59.5t13 -12.5t43 27t64.5 58.5t79 81.5q12 13 21 15.5t12 -3t0 -16.5t-13 -24q-39 -49 -79.5 -90.5t-78.5 -71.5t-72 -46.5t-61 -16.5q-51 0 -55 46.5t35 122.5
l-232 4l-180 -136q-20 -15 -43 -24.5t-37 -9.5h-29q-14 0 -18.5 10t15.5 24l843 605q21 14 44 23.5t37 9.5h50q8 0 9.5 -5.5t-6.5 -14.5zM375 213l200 -4q13 21 28.5 43.5t34.5 47.5q31 40 66 85t68.5 87t62.5 75.5t48 50.5zM893 727q19 12 41.5 24t46 23t47 20t45.5 15
q18 5 36.5 -3t28.5 -21t7.5 -25.5t-25.5 -16.5q-41 -8 -91.5 -20t-100.5 -27q-25 -8 -37.5 -6.5t-16 7t2 14t16.5 16.5z" />
    <glyph glyph-name="Acircumflex" unicode="&#xc2;" horiz-adv-x="739" 
d="M1003 651q-49 -64 -97 -131q-21 -29 -43 -60.5t-44.5 -64t-44 -64.5t-40.5 -62q-47 -73 -68.5 -115t-24 -59.5t13 -12.5t43 27t64.5 58.5t79 81.5q12 13 21 15.5t12 -3t0 -16.5t-13 -24q-39 -49 -79.5 -90.5t-78.5 -71.5t-72 -46.5t-61 -16.5q-51 0 -55 46.5t35 122.5
l-232 4l-180 -136q-20 -15 -43 -24.5t-37 -9.5h-29q-14 0 -18.5 10t15.5 24l843 605q21 14 44 23.5t37 9.5h50q8 0 9.5 -5.5t-6.5 -14.5zM375 213l200 -4q13 21 28.5 43.5t34.5 47.5q31 40 66 85t68.5 87t62.5 75.5t48 50.5zM1015 720q-4 10 -7 20.5t-5 21.5
q-20 -16 -35 -31.5t-37 -28.5q-14 -8 -33 -9t-34 2t-21.5 10t5.5 15q15 10 24.5 16t19.5 11.5t24.5 12.5t41.5 20q39 18 73.5 18.5t47.5 -30.5l27 -66q3 -8 -9.5 -9.5t-30 1.5t-33 10t-18.5 16z" />
    <glyph glyph-name="Atilde" unicode="&#xc3;" horiz-adv-x="739" 
d="M1003 651q-49 -64 -97 -131q-21 -29 -43 -60.5t-44.5 -64t-44 -64.5t-40.5 -62q-47 -73 -68.5 -115t-24 -59.5t13 -12.5t43 27t64.5 58.5t79 81.5q12 13 21 15.5t12 -3t0 -16.5t-13 -24q-39 -49 -79.5 -90.5t-78.5 -71.5t-72 -46.5t-61 -16.5q-51 0 -55 46.5t35 122.5
l-232 4l-180 -136q-20 -15 -43 -24.5t-37 -9.5h-29q-14 0 -18.5 10t15.5 24l843 605q21 14 44 23.5t37 9.5h50q8 0 9.5 -5.5t-6.5 -14.5zM375 213l200 -4q13 21 28.5 43.5t34.5 47.5q31 40 66 85t68.5 87t62.5 75.5t48 50.5zM922 783q30 25 50.5 31.5t36 3t27.5 -14
t25.5 -18t30.5 -9t43 11.5q20 10 33.5 12t16 -4t-6.5 -19t-34 -32q-38 -30 -63.5 -38t-43 -5t-30.5 14t-26 19t-28.5 9.5t-39.5 -12.5q-11 -7 -20.5 -8t-12 5t6.5 19t35 35z" />
    <glyph glyph-name="Adieresis" unicode="&#xc4;" horiz-adv-x="739" 
d="M1003 651q-49 -64 -97 -131q-21 -29 -43 -60.5t-44.5 -64t-44 -64.5t-40.5 -62q-47 -73 -68.5 -115t-24 -59.5t13 -12.5t43 27t64.5 58.5t79 81.5q12 13 21 15.5t12 -3t0 -16.5t-13 -24q-39 -49 -79.5 -90.5t-78.5 -71.5t-72 -46.5t-61 -16.5q-51 0 -55 46.5t35 122.5
l-232 4l-180 -136q-20 -15 -43 -24.5t-37 -9.5h-29q-14 0 -18.5 10t15.5 24l843 605q21 14 44 23.5t37 9.5h50q8 0 9.5 -5.5t-6.5 -14.5zM375 213l200 -4q13 21 28.5 43.5t34.5 47.5q31 40 66 85t68.5 87t62.5 75.5t48 50.5zM1110 745q0 -20 -13.5 -33t-32.5 -13t-32 13
t-13 33q0 19 13 32t32 13t32.5 -13t13.5 -32zM981 745q0 -20 -13 -33t-33 -13q-19 0 -32 13t-13 33q0 19 13 32t32 13q20 0 33 -13t13 -32z" />
    <glyph glyph-name="Aring" unicode="&#xc5;" horiz-adv-x="739" 
d="M1003 651q-49 -64 -97 -131q-21 -29 -43 -60.5t-44.5 -64t-44 -64.5t-40.5 -62q-47 -73 -68.5 -115t-24 -59.5t13 -12.5t43 27t64.5 58.5t79 81.5q12 13 21 15.5t12 -3t0 -16.5t-13 -24q-39 -49 -79.5 -90.5t-78.5 -71.5t-72 -46.5t-61 -16.5q-51 0 -55 46.5t35 122.5
l-232 4l-180 -136q-20 -15 -43 -24.5t-37 -9.5h-29q-14 0 -18.5 10t15.5 24l843 605q21 14 44 23.5t37 9.5h50q8 0 9.5 -5.5t-6.5 -14.5zM375 213l200 -4q13 21 28.5 43.5t34.5 47.5q31 40 66 85t68.5 87t62.5 75.5t48 50.5zM967 797q11 17 28 31.5t36.5 24t40 14t38.5 2.5
q37 -4 46 -31t-14 -62q-11 -17 -28 -31t-36.5 -24t-39.5 -14.5t-38 -2.5q-38 5 -47.5 31.5t14.5 61.5zM1034 815q-16 -12 -18 -27.5t5.5 -26t22 -13.5t30.5 9q17 15 18.5 30t-6.5 25t-22.5 12.5t-29.5 -9.5z" />
    <glyph glyph-name="AE" unicode="&#xc6;" horiz-adv-x="1014" 
d="M908 524q-40 -60 -10 -98.5t121 -38.5q25 0 36.5 -6.5t9.5 -14.5t-18.5 -15.5t-46.5 -8.5q-72 -3 -127.5 -21.5t-93.5 -45.5t-57 -58.5t-18.5 -61t22 -52.5t65.5 -33q46 -11 91.5 4.5t87.5 44.5t79 64.5t65 65.5q14 15 24.5 18t15.5 -0.5t3.5 -13t-11.5 -20.5
q-32 -36 -70 -77t-84.5 -75.5t-102 -57.5t-121.5 -23q-60 0 -102 13.5t-66.5 36.5t-31.5 53t3 63l-253 3l-180 -136q-20 -15 -43 -24.5t-37 -9.5h-29q-14 0 -18.5 10t15.5 24l843 605q21 14 44 23.5t37 9.5h184q9 1 18.5 1h19.5q14 0 26 -2t19 -7t7.5 -14t-6.5 -22
q-8 -16 -27 -34t-42 -26q-11 -3 -24 -4.5t-23 0.5t-14 7t3 14q8 11 16.5 21.5t1.5 17.5q-25 -1 -53.5 -8t-56 -19t-51.5 -30t-40 -42zM593 210q30 46 92.5 87t158.5 65q-41 9 -62.5 26.5t-26 41t6 49.5t33.5 51l-420 -317z" />
    <glyph glyph-name="Ccedilla" unicode="&#xc7;" horiz-adv-x="416" 
d="M108 -52q-7 6 -8 11.5t1 10t6.5 9t9.5 8.5q6 8 18 16q-55 8 -84.5 41.5t-37 82t6 108t46 120t82.5 117.5t114.5 101.5t143 71.5t168.5 27q14 0 26 -2t19 -7t7.5 -14t-6.5 -22q-9 -16 -27.5 -34t-41.5 -26q-11 -3 -24 -4.5t-23 0.5t-14.5 7t3.5 14q4 6 8.5 11.5t7.5 10.5
t4 9.5t-3 7.5q-74 -14 -136.5 -58.5t-110.5 -103t-79 -123.5t-42 -122t1 -97.5t50 -48.5q45 -11 91 4.5t88 44.5t79 64.5t65 65.5q14 15 24.5 18t15.5 -0.5t3.5 -13t-11.5 -20.5q-31 -35 -67.5 -74.5t-81 -73.5t-97 -58t-114.5 -27q-8 -5 -18.5 -15t-17.5 -22q35 -39 36 -69
t-12 -47q-10 -14 -25 -19t-31.5 -4.5t-32.5 5t-28 9.5q-31 14 -31 27t24 10q18 -2 36 -0.5t32 15.5q9 10 6.5 26t-18.5 32z" />
    <glyph glyph-name="Egrave" unicode="&#xc8;" horiz-adv-x="459" 
d="M353 524q-40 -60 -10 -98.5t121 -38.5q25 0 36.5 -6.5t9.5 -14.5t-18.5 -15.5t-46.5 -8.5q-72 -3 -127.5 -21.5t-93.5 -45.5t-57 -58.5t-18.5 -61t22 -52.5t65.5 -33q46 -11 91.5 4.5t87.5 44.5t79 64.5t65 65.5q14 15 24.5 18t15.5 -0.5t3.5 -13t-11.5 -20.5
q-32 -36 -70 -77t-84.5 -75.5t-102 -57.5t-121.5 -23q-75 0 -122 21t-66.5 54t-12.5 74t40.5 81t92.5 75t144 57q-48 10 -69.5 32.5t-20.5 51t21.5 59.5t56.5 58q66 51 154.5 80t185.5 29q14 0 26 -2t19 -7t7.5 -14t-6.5 -22q-8 -16 -27 -34t-42 -26q-11 -3 -24 -4.5
t-23 0.5t-14 7t3 14q8 11 16.5 21.5t1.5 17.5q-25 -1 -53.5 -8t-56 -19t-51.5 -30t-40 -42zM669 738q11 -8 16.5 -16.5t2 -14t-16 -7t-37.5 6.5q-50 15 -100.5 27t-91.5 20q-23 4 -25.5 16.5t7.5 25.5t28.5 21t36.5 3q44 -11 93 -34.5t87 -47.5z" />
    <glyph glyph-name="Eacute" unicode="&#xc9;" horiz-adv-x="459" 
d="M353 524q-40 -60 -10 -98.5t121 -38.5q25 0 36.5 -6.5t9.5 -14.5t-18.5 -15.5t-46.5 -8.5q-72 -3 -127.5 -21.5t-93.5 -45.5t-57 -58.5t-18.5 -61t22 -52.5t65.5 -33q46 -11 91.5 4.5t87.5 44.5t79 64.5t65 65.5q14 15 24.5 18t15.5 -0.5t3.5 -13t-11.5 -20.5
q-32 -36 -70 -77t-84.5 -75.5t-102 -57.5t-121.5 -23q-75 0 -122 21t-66.5 54t-12.5 74t40.5 81t92.5 75t144 57q-48 10 -69.5 32.5t-20.5 51t21.5 59.5t56.5 58q66 51 154.5 80t185.5 29q14 0 26 -2t19 -7t7.5 -14t-6.5 -22q-8 -16 -27 -34t-42 -26q-11 -3 -24 -4.5
t-23 0.5t-14 7t3 14q8 11 16.5 21.5t1.5 17.5q-25 -1 -53.5 -8t-56 -19t-51.5 -30t-40 -42zM492 729q19 12 41.5 24t46 23t47 20t45.5 15q18 5 36.5 -3t28.5 -21t7.5 -25.5t-25.5 -16.5q-41 -8 -91.5 -20t-100.5 -27q-25 -8 -37.5 -6.5t-16 7t2 14t16.5 16.5z" />
    <glyph glyph-name="Ecircumflex" unicode="&#xca;" horiz-adv-x="459" 
d="M353 524q-40 -60 -10 -98.5t121 -38.5q25 0 36.5 -6.5t9.5 -14.5t-18.5 -15.5t-46.5 -8.5q-72 -3 -127.5 -21.5t-93.5 -45.5t-57 -58.5t-18.5 -61t22 -52.5t65.5 -33q46 -11 91.5 4.5t87.5 44.5t79 64.5t65 65.5q14 15 24.5 18t15.5 -0.5t3.5 -13t-11.5 -20.5
q-32 -36 -70 -77t-84.5 -75.5t-102 -57.5t-121.5 -23q-75 0 -122 21t-66.5 54t-12.5 74t40.5 81t92.5 75t144 57q-48 10 -69.5 32.5t-20.5 51t21.5 59.5t56.5 58q66 51 154.5 80t185.5 29q14 0 26 -2t19 -7t7.5 -14t-6.5 -22q-8 -16 -27 -34t-42 -26q-11 -3 -24 -4.5
t-23 0.5t-14 7t3 14q8 11 16.5 21.5t1.5 17.5q-25 -1 -53.5 -8t-56 -19t-51.5 -30t-40 -42zM613 731q-4 10 -7 20.5t-5 21.5q-20 -16 -35 -31.5t-37 -28.5q-14 -8 -33 -9t-34 2t-21.5 10t5.5 15q15 10 24.5 16t19.5 11.5t24.5 12.5t41.5 20q39 18 73.5 18.5t47.5 -30.5
l27 -66q3 -8 -9.5 -9.5t-30 1.5t-33 10t-18.5 16z" />
    <glyph glyph-name="Edieresis" unicode="&#xcb;" horiz-adv-x="459" 
d="M353 524q-40 -60 -10 -98.5t121 -38.5q25 0 36.5 -6.5t9.5 -14.5t-18.5 -15.5t-46.5 -8.5q-72 -3 -127.5 -21.5t-93.5 -45.5t-57 -58.5t-18.5 -61t22 -52.5t65.5 -33q46 -11 91.5 4.5t87.5 44.5t79 64.5t65 65.5q14 15 24.5 18t15.5 -0.5t3.5 -13t-11.5 -20.5
q-32 -36 -70 -77t-84.5 -75.5t-102 -57.5t-121.5 -23q-75 0 -122 21t-66.5 54t-12.5 74t40.5 81t92.5 75t144 57q-48 10 -69.5 32.5t-20.5 51t21.5 59.5t56.5 58q66 51 154.5 80t185.5 29q14 0 26 -2t19 -7t7.5 -14t-6.5 -22q-8 -16 -27 -34t-42 -26q-11 -3 -24 -4.5
t-23 0.5t-14 7t3 14q8 11 16.5 21.5t1.5 17.5q-25 -1 -53.5 -8t-56 -19t-51.5 -30t-40 -42zM566 750q0 -20 -13 -33t-33 -13q-19 0 -32 13t-13 33q0 19 13 32t32 13q20 0 33 -13t13 -32zM695 750q0 -20 -13.5 -33t-32.5 -13t-32 13t-13 33q0 19 13 32t32 13t32.5 -13
t13.5 -32z" />
    <glyph glyph-name="Igrave" unicode="&#xcc;" horiz-adv-x="215" 
d="M485 637q-2 -2 -16.5 -22t-37 -51.5t-51 -72t-59 -83.5t-60.5 -86t-55 -79.5t-43.5 -63.5t-25.5 -39q-20 -30 -22 -43.5t6 -15.5q10 -3 34 13.5t53 42.5t58 56.5t49 55.5q14 16 23.5 20.5t14 0t3.5 -14.5t-9 -22q-7 -10 -23.5 -30t-39 -44.5t-49.5 -50.5t-54.5 -48.5
t-54 -38.5t-48.5 -20q-29 -6 -45 3t-20.5 27.5t1.5 44t22 53.5q6 10 23.5 36.5t42.5 62.5t55 79.5t61 88t60.5 86t53 75t39 55t18.5 25.5q-23 0 -34 5.5t-12.5 11.5t6.5 11.5t24 5.5h105q14 0 16 -10t-9 -24zM556 738q11 -8 16.5 -16.5t2 -14t-16 -7t-37.5 6.5
q-50 15 -100.5 27t-91.5 20q-23 4 -25.5 16.5t7.5 25.5t28.5 21t36.5 3q44 -11 93 -34.5t87 -47.5z" />
    <glyph glyph-name="Iacute" unicode="&#xcd;" horiz-adv-x="215" 
d="M485 637q-2 -2 -16.5 -22t-37 -51.5t-51 -72t-59 -83.5t-60.5 -86t-55 -79.5t-43.5 -63.5t-25.5 -39q-20 -30 -22 -43.5t6 -15.5q10 -3 34 13.5t53 42.5t58 56.5t49 55.5q14 16 23.5 20.5t14 0t3.5 -14.5t-9 -22q-7 -10 -23.5 -30t-39 -44.5t-49.5 -50.5t-54.5 -48.5
t-54 -38.5t-48.5 -20q-29 -6 -45 3t-20.5 27.5t1.5 44t22 53.5q6 10 23.5 36.5t42.5 62.5t55 79.5t61 88t60.5 86t53 75t39 55t18.5 25.5q-23 0 -34 5.5t-12.5 11.5t6.5 11.5t24 5.5h105q14 0 16 -10t-9 -24zM383 752q19 12 41.5 24t46 23t47 20t45.5 15q18 5 36.5 -3
t28.5 -21t7.5 -25.5t-25.5 -16.5q-41 -8 -91.5 -20t-100.5 -27q-25 -8 -37.5 -6.5t-16 7t2 14t16.5 16.5z" />
    <glyph glyph-name="Icircumflex" unicode="&#xce;" horiz-adv-x="215" 
d="M485 637q-2 -2 -16.5 -22t-37 -51.5t-51 -72t-59 -83.5t-60.5 -86t-55 -79.5t-43.5 -63.5t-25.5 -39q-20 -30 -22 -43.5t6 -15.5q10 -3 34 13.5t53 42.5t58 56.5t49 55.5q14 16 23.5 20.5t14 0t3.5 -14.5t-9 -22q-7 -10 -23.5 -30t-39 -44.5t-49.5 -50.5t-54.5 -48.5
t-54 -38.5t-48.5 -20q-29 -6 -45 3t-20.5 27.5t1.5 44t22 53.5q6 10 23.5 36.5t42.5 62.5t55 79.5t61 88t60.5 86t53 75t39 55t18.5 25.5q-23 0 -34 5.5t-12.5 11.5t6.5 11.5t24 5.5h105q14 0 16 -10t-9 -24zM503 726q-4 10 -7 20.5t-5 21.5q-20 -16 -35 -31.5t-37 -28.5
q-14 -8 -33 -9t-34 2t-21.5 10t5.5 15q15 10 24.5 16t19.5 11.5t24.5 12.5t41.5 20q39 18 73.5 18.5t47.5 -30.5l27 -66q3 -8 -9.5 -9.5t-30 1.5t-33 10t-18.5 16z" />
    <glyph glyph-name="Idieresis" unicode="&#xcf;" horiz-adv-x="215" 
d="M485 637q-2 -2 -16.5 -22t-37 -51.5t-51 -72t-59 -83.5t-60.5 -86t-55 -79.5t-43.5 -63.5t-25.5 -39q-20 -30 -22 -43.5t6 -15.5q10 -3 34 13.5t53 42.5t58 56.5t49 55.5q14 16 23.5 20.5t14 0t3.5 -14.5t-9 -22q-7 -10 -23.5 -30t-39 -44.5t-49.5 -50.5t-54.5 -48.5
t-54 -38.5t-48.5 -20q-29 -6 -45 3t-20.5 27.5t1.5 44t22 53.5q6 10 23.5 36.5t42.5 62.5t55 79.5t61 88t60.5 86t53 75t39 55t18.5 25.5q-23 0 -34 5.5t-12.5 11.5t6.5 11.5t24 5.5h105q14 0 16 -10t-9 -24zM572 754q0 -20 -13.5 -33t-32.5 -13t-32 13t-13 33q0 19 13 32
t32 13t32.5 -13t13.5 -32zM443 754q0 -20 -13 -33t-33 -13q-19 0 -32 13t-13 33q0 19 13 32t32 13q20 0 33 -13t13 -32z" />
    <glyph glyph-name="Eth" unicode="&#xd0;" horiz-adv-x="834" 
d="M415 342q21 29 44.5 62.5t45 62.5t37 50.5t19.5 27.5q11 14 26.5 27t46.5 21q17 5 27 7t21 4q11 3 15 -8.5t-7 -25.5q-3 -3 -20.5 -27.5t-41.5 -58.5t-51 -72.5t-49 -70.5q29 -2 49.5 -11.5t29.5 -19.5t4.5 -18t-23.5 -8h-100q-47 -71 -88.5 -123.5t-85.5 -87.5
q15 -10 36.5 -17.5t49.5 -7.5q53 0 107.5 25t105 66t94 93.5t75 107.5t48.5 107.5t13 93.5t-30.5 66t-81.5 25q-71 0 -113 -12.5t-71.5 -39t-56 -68t-65.5 -99.5q-40 12 -54 36.5t-6 54t36.5 60t74 55.5t107 40.5t134.5 13.5q79 -2 127 -32t69 -77.5t16.5 -107.5t-31 -122.5
t-73 -122.5t-110 -106.5t-141.5 -75t-168 -28.5q-54 0 -82.5 15.5t-42.5 32.5q-39 -26 -81.5 -38.5t-93.5 -12.5q-30 0 -52.5 10.5t-36.5 27.5q-7 9 -6.5 19t8.5 9q6 -1 14.5 -5t20.5 -8.5t26.5 -8t31.5 -3.5q37 0 70 19t64 51t61 75t62 90l6 10q-25 0 -43 9.5t-26 20
t-4.5 19.5t21.5 9h92z" />
    <glyph glyph-name="Ntilde" unicode="&#xd1;" horiz-adv-x="778" 
d="M631 182l310 455q11 15 28 24.5t31 9.5h43q14 0 16.5 -10t-8.5 -24l-422 -605q-12 -14 -26.5 -23t-28.5 -9h-1h-18q-14 0 -21 10t-2 24l79 425q-19 -27 -38 -53.5t-35 -49.5t-28.5 -41.5t-19.5 -28.5q-49 -74 -93 -128t-89 -89.5t-94 -53t-108 -17.5q-30 0 -52.5 10.5
t-36.5 27.5q-7 9 -6.5 19t8.5 9q6 -1 14.5 -5t20 -8.5t26 -8t31.5 -3.5q37 0 70 19t64 51t61.5 75t61.5 90q9 13 30.5 43.5t48.5 68.5t57 80t56 77.5t43.5 60.5t21.5 30q9 12 21 22t32 14q2 1 8 1h18q14 0 14 -11.5t-2 -22.5zM768 750q30 25 50.5 31.5t36 3t27.5 -14
t25.5 -18t30.5 -9t43 11.5q20 10 33.5 12t16 -4t-6.5 -19t-34 -32q-38 -30 -63.5 -38t-43 -5t-30.5 14t-26 19t-28.5 9.5t-39.5 -12.5q-11 -7 -20.5 -8t-12 5t6.5 19t35 35z" />
    <glyph glyph-name="Ograve" unicode="&#xd2;" horiz-adv-x="523" 
d="M628 631q26 -33 25 -83.5t-20.5 -107.5t-52 -115.5t-69.5 -107.5q-60 -79 -128.5 -130.5t-133 -74t-119 -16t-86.5 44.5q-29 34 -33 86.5t14.5 114.5t59 128.5t100.5 127.5t126 104t126.5 62t111 12t79.5 -45zM483 269q40 56 68 112t40.5 103.5t8 83.5t-28.5 52t-64 8.5
t-87.5 -34t-96 -70t-88.5 -99.5q-40 -57 -64 -112t-32.5 -102t-1.5 -82t31 -51t61.5 -9t80.5 33t88 68.5t85 98.5zM655 729q11 -8 16.5 -16.5t2 -14t-16 -7t-37.5 6.5q-50 15 -100.5 27t-91.5 20q-23 4 -25.5 16.5t7.5 25.5t28.5 21t36.5 3q44 -11 93 -34.5t87 -47.5z" />
    <glyph glyph-name="Oacute" unicode="&#xd3;" horiz-adv-x="523" 
d="M628 631q26 -33 25 -83.5t-20.5 -107.5t-52 -115.5t-69.5 -107.5q-60 -79 -128.5 -130.5t-133 -74t-119 -16t-86.5 44.5q-29 34 -33 86.5t14.5 114.5t59 128.5t100.5 127.5t126 104t126.5 62t111 12t79.5 -45zM483 269q40 56 68 112t40.5 103.5t8 83.5t-28.5 52t-64 8.5
t-87.5 -34t-96 -70t-88.5 -99.5q-40 -57 -64 -112t-32.5 -102t-1.5 -82t31 -51t61.5 -9t80.5 33t88 68.5t85 98.5zM500 751q19 12 41.5 24t46 23t47 20t45.5 15q18 5 36.5 -3t28.5 -21t7.5 -25.5t-25.5 -16.5q-41 -8 -91.5 -20t-100.5 -27q-25 -8 -37.5 -6.5t-16 7t2 14
t16.5 16.5z" />
    <glyph glyph-name="Ocircumflex" unicode="&#xd4;" horiz-adv-x="523" 
d="M628 631q26 -33 25 -83.5t-20.5 -107.5t-52 -115.5t-69.5 -107.5q-60 -79 -128.5 -130.5t-133 -74t-119 -16t-86.5 44.5q-29 34 -33 86.5t14.5 114.5t59 128.5t100.5 127.5t126 104t126.5 62t111 12t79.5 -45zM483 269q40 56 68 112t40.5 103.5t8 83.5t-28.5 52t-64 8.5
t-87.5 -34t-96 -70t-88.5 -99.5q-40 -57 -64 -112t-32.5 -102t-1.5 -82t31 -51t61.5 -9t80.5 33t88 68.5t85 98.5zM603 740q-4 10 -7 20.5t-5 21.5q-20 -16 -35 -31.5t-37 -28.5q-14 -8 -33 -9t-34 2t-21.5 10t5.5 15q15 10 24.5 16t19.5 11.5t24.5 12.5t41.5 20
q39 18 73.5 18.5t47.5 -30.5l27 -66q3 -8 -9.5 -9.5t-30 1.5t-33 10t-18.5 16z" />
    <glyph glyph-name="Otilde" unicode="&#xd5;" horiz-adv-x="523" 
d="M628 631q26 -33 25 -83.5t-20.5 -107.5t-52 -115.5t-69.5 -107.5q-60 -79 -128.5 -130.5t-133 -74t-119 -16t-86.5 44.5q-29 34 -33 86.5t14.5 114.5t59 128.5t100.5 127.5t126 104t126.5 62t111 12t79.5 -45zM483 269q40 56 68 112t40.5 103.5t8 83.5t-28.5 52t-64 8.5
t-87.5 -34t-96 -70t-88.5 -99.5q-40 -57 -64 -112t-32.5 -102t-1.5 -82t31 -51t61.5 -9t80.5 33t88 68.5t85 98.5zM475 786q30 25 50.5 31.5t36 3t27.5 -14t25.5 -18t30.5 -9t43 11.5q20 10 33.5 12t16 -4t-6.5 -19t-34 -32q-38 -30 -63.5 -38t-43 -5t-30.5 14t-26 19
t-28.5 9.5t-39.5 -12.5q-11 -7 -20.5 -8t-12 5t6.5 19t35 35z" />
    <glyph glyph-name="Odieresis" unicode="&#xd6;" horiz-adv-x="523" 
d="M628 631q26 -33 25 -83.5t-20.5 -107.5t-52 -115.5t-69.5 -107.5q-60 -79 -128.5 -130.5t-133 -74t-119 -16t-86.5 44.5q-29 34 -33 86.5t14.5 114.5t59 128.5t100.5 127.5t126 104t126.5 62t111 12t79.5 -45zM483 269q40 56 68 112t40.5 103.5t8 83.5t-28.5 52t-64 8.5
t-87.5 -34t-96 -70t-88.5 -99.5q-40 -57 -64 -112t-32.5 -102t-1.5 -82t31 -51t61.5 -9t80.5 33t88 68.5t85 98.5zM667 755q0 -20 -13.5 -33t-32.5 -13t-32 13t-13 33q0 19 13 32t32 13t32.5 -13t13.5 -32zM538 755q0 -20 -13 -33t-33 -13q-19 0 -32 13t-13 33q0 19 13 32
t32 13q20 0 33 -13t13 -32z" />
    <glyph glyph-name="Oslash" unicode="&#xd8;" horiz-adv-x="591" 
d="M718 578q6 -38 -3 -83.5t-29 -94t-48 -96t-59 -87.5q-55 -72 -117.5 -121.5t-122.5 -74.5t-113.5 -26t-89.5 24l-14 -13q-17 -15 -36 -24.5t-33 -9.5h-29q-14 0 -13.5 10t16.5 24l66 64q-17 37 -15 88t23 108t59 116.5t93 115.5q58 59 121.5 101t122.5 62t109 16t81 -36
l4 3q17 15 36.5 24.5t33.5 9.5h29q14 0 13 -10t-16 -24zM303 425q-48 -69 -73.5 -134.5t-27.5 -116.5l450 433q-6 7 -13 13q-24 16 -64 8.5t-87.5 -34t-96 -70t-88.5 -99.5zM551 269q51 70 81 138.5t35 121.5l-450 -432q7 -12 19 -19q24 -16 61.5 -9t80.5 33t88 68.5
t85 98.5z" />
    <glyph glyph-name="Ugrave" unicode="&#xd9;" horiz-adv-x="488" 
d="M759 636q-2 -3 -26.5 -36.5t-60 -83.5t-77 -109t-79.5 -113.5t-67 -96.5t-39 -58q-18 -30 -20.5 -43t5.5 -15q10 -3 34 13t52.5 42.5t57.5 57t49 55.5q14 16 23.5 20.5t14 0t3.5 -14.5t-9 -22q-7 -10 -23 -30t-38.5 -44.5t-49.5 -51t-54.5 -49t-53.5 -38.5t-48 -20
q-28 -5 -44 2.5t-21.5 24t-1.5 39t17 48.5q-54 -48 -109.5 -81.5t-105.5 -33.5q-47 0 -64.5 22t-11 61t35.5 93t74 118q20 28 44.5 63.5t50 72t50 71.5t44.5 64t33.5 48t17.5 24q11 15 28.5 24.5t31.5 9.5h42q14 0 16.5 -10t-8.5 -24q-3 -3 -18 -24t-38 -53.5t-50.5 -71.5
t-55.5 -78t-52.5 -74.5t-41.5 -58.5q-32 -45 -56 -83t-36 -66t-11 -44t20 -16q30 0 71 25t85 64t86 86.5t75 92.5l5 6q35 51 71 101.5t65 92.5t49 69.5t23 31.5q12 15 29 24.5t31 9.5h28q14 0 16.5 -10t-8.5 -24zM709 747q11 -8 16.5 -16.5t2 -14t-16 -7t-37.5 6.5
q-50 15 -100.5 27t-91.5 20q-23 4 -25.5 16.5t7.5 25.5t28.5 21t36.5 3q44 -11 93 -34.5t87 -47.5z" />
    <glyph glyph-name="Uacute" unicode="&#xda;" horiz-adv-x="488" 
d="M759 636q-2 -3 -26.5 -36.5t-60 -83.5t-77 -109t-79.5 -113.5t-67 -96.5t-39 -58q-18 -30 -20.5 -43t5.5 -15q10 -3 34 13t52.5 42.5t57.5 57t49 55.5q14 16 23.5 20.5t14 0t3.5 -14.5t-9 -22q-7 -10 -23 -30t-38.5 -44.5t-49.5 -51t-54.5 -49t-53.5 -38.5t-48 -20
q-28 -5 -44 2.5t-21.5 24t-1.5 39t17 48.5q-54 -48 -109.5 -81.5t-105.5 -33.5q-47 0 -64.5 22t-11 61t35.5 93t74 118q20 28 44.5 63.5t50 72t50 71.5t44.5 64t33.5 48t17.5 24q11 15 28.5 24.5t31.5 9.5h42q14 0 16.5 -10t-8.5 -24q-3 -3 -18 -24t-38 -53.5t-50.5 -71.5
t-55.5 -78t-52.5 -74.5t-41.5 -58.5q-32 -45 -56 -83t-36 -66t-11 -44t20 -16q30 0 71 25t85 64t86 86.5t75 92.5l5 6q35 51 71 101.5t65 92.5t49 69.5t23 31.5q12 15 29 24.5t31 9.5h28q14 0 16.5 -10t-8.5 -24zM518 743q19 12 41.5 24t46 23t47 20t45.5 15q18 5 36.5 -3
t28.5 -21t7.5 -25.5t-25.5 -16.5q-41 -8 -91.5 -20t-100.5 -27q-25 -8 -37.5 -6.5t-16 7t2 14t16.5 16.5z" />
    <glyph glyph-name="Ucircumflex" unicode="&#xdb;" horiz-adv-x="488" 
d="M759 636q-2 -3 -26.5 -36.5t-60 -83.5t-77 -109t-79.5 -113.5t-67 -96.5t-39 -58q-18 -30 -20.5 -43t5.5 -15q10 -3 34 13t52.5 42.5t57.5 57t49 55.5q14 16 23.5 20.5t14 0t3.5 -14.5t-9 -22q-7 -10 -23 -30t-38.5 -44.5t-49.5 -51t-54.5 -49t-53.5 -38.5t-48 -20
q-28 -5 -44 2.5t-21.5 24t-1.5 39t17 48.5q-54 -48 -109.5 -81.5t-105.5 -33.5q-47 0 -64.5 22t-11 61t35.5 93t74 118q20 28 44.5 63.5t50 72t50 71.5t44.5 64t33.5 48t17.5 24q11 15 28.5 24.5t31.5 9.5h42q14 0 16.5 -10t-8.5 -24q-3 -3 -18 -24t-38 -53.5t-50.5 -71.5
t-55.5 -78t-52.5 -74.5t-41.5 -58.5q-32 -45 -56 -83t-36 -66t-11 -44t20 -16q30 0 71 25t85 64t86 86.5t75 92.5l5 6q35 51 71 101.5t65 92.5t49 69.5t23 31.5q12 15 29 24.5t31 9.5h28q14 0 16.5 -10t-8.5 -24zM666 735q-4 10 -7 20.5t-5 21.5q-20 -16 -35 -31.5
t-37 -28.5q-14 -8 -33 -9t-34 2t-21.5 10t5.5 15q15 10 24.5 16t19.5 11.5t24.5 12.5t41.5 20q39 18 73.5 18.5t47.5 -30.5l27 -66q3 -8 -9.5 -9.5t-30 1.5t-33 10t-18.5 16z" />
    <glyph glyph-name="Udieresis" unicode="&#xdc;" horiz-adv-x="488" 
d="M759 636q-2 -3 -26.5 -36.5t-60 -83.5t-77 -109t-79.5 -113.5t-67 -96.5t-39 -58q-18 -30 -20.5 -43t5.5 -15q10 -3 34 13t52.5 42.5t57.5 57t49 55.5q14 16 23.5 20.5t14 0t3.5 -14.5t-9 -22q-7 -10 -23 -30t-38.5 -44.5t-49.5 -51t-54.5 -49t-53.5 -38.5t-48 -20
q-28 -5 -44 2.5t-21.5 24t-1.5 39t17 48.5q-54 -48 -109.5 -81.5t-105.5 -33.5q-47 0 -64.5 22t-11 61t35.5 93t74 118q20 28 44.5 63.5t50 72t50 71.5t44.5 64t33.5 48t17.5 24q11 15 28.5 24.5t31.5 9.5h42q14 0 16.5 -10t-8.5 -24q-3 -3 -18 -24t-38 -53.5t-50.5 -71.5
t-55.5 -78t-52.5 -74.5t-41.5 -58.5q-32 -45 -56 -83t-36 -66t-11 -44t20 -16q30 0 71 25t85 64t86 86.5t75 92.5l5 6q35 51 71 101.5t65 92.5t49 69.5t23 31.5q12 15 29 24.5t31 9.5h28q14 0 16.5 -10t-8.5 -24zM606 742q0 -20 -13 -33t-33 -13q-19 0 -32 13t-13 33
q0 19 13 32t32 13q20 0 33 -13t13 -32zM735 742q0 -20 -13.5 -33t-32.5 -13t-32 13t-13 33q0 19 13 32t32 13t32.5 -13t13.5 -32z" />
    <glyph glyph-name="Yacute" unicode="&#xdd;" horiz-adv-x="447" 
d="M488 290q-50 -74 -93 -128.5t-86.5 -90t-91.5 -53t-107 -17.5q-38 0 -61 18t-32 45t-4.5 58.5t21.5 59t46.5 46.5t70.5 21q28 1 40 -14t13 -34t-7.5 -34t-20.5 -13q-32 5 -56 -1.5t-39 -19t-20.5 -28t-1.5 -30t18 -24t39 -9.5q36 0 69 19t64.5 51.5t61.5 75.5t62 90l7 11
q-29 -20 -58.5 -32t-58.5 -12q-47 0 -68 14.5t-18.5 45t28 77t70.5 110.5q30 43 48 68t28 39.5t15 21.5t11 15q12 14 29 23.5t31 9.5h43q14 0 16 -9.5t-9 -23.5q-7 -9 -37 -49t-81 -112q-32 -45 -52.5 -75.5t-28.5 -50t-3.5 -28t23.5 -8.5q27 0 57 18.5t61.5 49t63.5 70
t62 80.5q28 38 47.5 65.5t23.5 32.5q4 6 8 12.5t10.5 12t16.5 9.5t27 4h39q14 0 16.5 -9.5t-8.5 -23.5q-3 -3 -19 -25.5t-40 -55.5t-52 -72.5t-54 -77t-47.5 -68t-31.5 -45.5zM502 738q19 12 41.5 24t46 23t47 20t45.5 15q18 5 36.5 -3t28.5 -21t7.5 -25.5t-25.5 -16.5
q-41 -8 -91.5 -20t-100.5 -27q-25 -8 -37.5 -6.5t-16 7t2 14t16.5 16.5z" />
    <glyph glyph-name="agrave" unicode="&#xe0;" horiz-adv-x="405" 
d="M89 240q46 45 88 71t78 35.5t64 4t46 -21.5q11 11 25 17t26 6h29q14 0 16.5 -9.5t-8.5 -23.5q-4 -5 -19 -24t-33.5 -45.5t-38.5 -55t-34 -52.5q-19 -30 -21.5 -43.5t5.5 -15.5q10 -3 33.5 13t52 42t57.5 56t50 55q13 16 22.5 20.5t14 0t3.5 -14.5t-9 -22q-7 -10 -23 -30
t-38.5 -44t-49.5 -50t-54.5 -48t-53.5 -38.5t-48 -20.5q-25 -5 -40.5 1.5t-22 20.5t-5 34t10.5 43q-18 -17 -39 -35t-43 -32.5t-44.5 -24t-42.5 -9.5q-28 0 -43 19t-12 51.5t27 76t74 93.5zM137 200q-24 -27 -36.5 -53.5t-12 -44t15 -20.5t45.5 17q22 13 48 37.5t51.5 52
t48 54.5t36.5 45l11 14q-23 13 -51.5 7t-57 -23t-54.5 -40.5t-44 -45.5zM504 486q11 -8 16.5 -16.5t2 -14t-16 -7t-37.5 6.5q-50 15 -100.5 27t-91.5 20q-23 4 -25.5 16.5t7.5 25.5t28.5 21t36.5 3q44 -11 93 -34.5t87 -47.5z" />
    <glyph glyph-name="aacute" unicode="&#xe1;" horiz-adv-x="405" 
d="M89 240q46 45 88 71t78 35.5t64 4t46 -21.5q11 11 25 17t26 6h29q14 0 16.5 -9.5t-8.5 -23.5q-4 -5 -19 -24t-33.5 -45.5t-38.5 -55t-34 -52.5q-19 -30 -21.5 -43.5t5.5 -15.5q10 -3 33.5 13t52 42t57.5 56t50 55q13 16 22.5 20.5t14 0t3.5 -14.5t-9 -22q-7 -10 -23 -30
t-38.5 -44t-49.5 -50t-54.5 -48t-53.5 -38.5t-48 -20.5q-25 -5 -40.5 1.5t-22 20.5t-5 34t10.5 43q-18 -17 -39 -35t-43 -32.5t-44.5 -24t-42.5 -9.5q-28 0 -43 19t-12 51.5t27 76t74 93.5zM137 200q-24 -27 -36.5 -53.5t-12 -44t15 -20.5t45.5 17q22 13 48 37.5t51.5 52
t48 54.5t36.5 45l11 14q-23 13 -51.5 7t-57 -23t-54.5 -40.5t-44 -45.5zM307 486q19 12 41.5 24t46 23t47 20t45.5 15q18 5 36.5 -3t28.5 -21t7.5 -25.5t-25.5 -16.5q-41 -8 -91.5 -20t-100.5 -27q-25 -8 -37.5 -6.5t-16 7t2 14t16.5 16.5z" />
    <glyph glyph-name="acircumflex" unicode="&#xe2;" horiz-adv-x="405" 
d="M89 240q46 45 88 71t78 35.5t64 4t46 -21.5q11 11 25 17t26 6h29q14 0 16.5 -9.5t-8.5 -23.5q-4 -5 -19 -24t-33.5 -45.5t-38.5 -55t-34 -52.5q-19 -30 -21.5 -43.5t5.5 -15.5q10 -3 33.5 13t52 42t57.5 56t50 55q13 16 22.5 20.5t14 0t3.5 -14.5t-9 -22q-7 -10 -23 -30
t-38.5 -44t-49.5 -50t-54.5 -48t-53.5 -38.5t-48 -20.5q-25 -5 -40.5 1.5t-22 20.5t-5 34t10.5 43q-18 -17 -39 -35t-43 -32.5t-44.5 -24t-42.5 -9.5q-28 0 -43 19t-12 51.5t27 76t74 93.5zM137 200q-24 -27 -36.5 -53.5t-12 -44t15 -20.5t45.5 17q22 13 48 37.5t51.5 52
t48 54.5t36.5 45l11 14q-23 13 -51.5 7t-57 -23t-54.5 -40.5t-44 -45.5zM432 456q-4 10 -7 20.5t-5 21.5q-20 -16 -35 -31.5t-37 -28.5q-14 -8 -33 -9t-34 2t-21.5 10t5.5 15q15 10 24.5 16t19.5 11.5t24.5 12.5t41.5 20q39 18 73.5 18.5t47.5 -30.5l27 -66q3 -8 -9.5 -9.5
t-30 1.5t-33 10t-18.5 16z" />
    <glyph glyph-name="atilde" unicode="&#xe3;" horiz-adv-x="405" 
d="M89 240q46 45 88 71t78 35.5t64 4t46 -21.5q11 11 25 17t26 6h29q14 0 16.5 -9.5t-8.5 -23.5q-4 -5 -19 -24t-33.5 -45.5t-38.5 -55t-34 -52.5q-19 -30 -21.5 -43.5t5.5 -15.5q10 -3 33.5 13t52 42t57.5 56t50 55q13 16 22.5 20.5t14 0t3.5 -14.5t-9 -22q-7 -10 -23 -30
t-38.5 -44t-49.5 -50t-54.5 -48t-53.5 -38.5t-48 -20.5q-25 -5 -40.5 1.5t-22 20.5t-5 34t10.5 43q-18 -17 -39 -35t-43 -32.5t-44.5 -24t-42.5 -9.5q-28 0 -43 19t-12 51.5t27 76t74 93.5zM137 200q-24 -27 -36.5 -53.5t-12 -44t15 -20.5t45.5 17q22 13 48 37.5t51.5 52
t48 54.5t36.5 45l11 14q-23 13 -51.5 7t-57 -23t-54.5 -40.5t-44 -45.5zM304 533q30 25 50.5 31.5t36 3t27.5 -14t25.5 -18t30.5 -9t43 11.5q20 10 33.5 12t16 -4t-6.5 -19t-34 -32q-38 -30 -63.5 -38t-43 -5t-30.5 14t-26 19t-28.5 9.5t-39.5 -12.5q-11 -7 -20.5 -8t-12 5
t6.5 19t35 35z" />
    <glyph glyph-name="adieresis" unicode="&#xe4;" horiz-adv-x="405" 
d="M89 240q46 45 88 71t78 35.5t64 4t46 -21.5q11 11 25 17t26 6h29q14 0 16.5 -9.5t-8.5 -23.5q-4 -5 -19 -24t-33.5 -45.5t-38.5 -55t-34 -52.5q-19 -30 -21.5 -43.5t5.5 -15.5q10 -3 33.5 13t52 42t57.5 56t50 55q13 16 22.5 20.5t14 0t3.5 -14.5t-9 -22q-7 -10 -23 -30
t-38.5 -44t-49.5 -50t-54.5 -48t-53.5 -38.5t-48 -20.5q-25 -5 -40.5 1.5t-22 20.5t-5 34t10.5 43q-18 -17 -39 -35t-43 -32.5t-44.5 -24t-42.5 -9.5q-28 0 -43 19t-12 51.5t27 76t74 93.5zM137 200q-24 -27 -36.5 -53.5t-12 -44t15 -20.5t45.5 17q22 13 48 37.5t51.5 52
t48 54.5t36.5 45l11 14q-23 13 -51.5 7t-57 -23t-54.5 -40.5t-44 -45.5zM384 489q0 -20 -13 -33t-33 -13q-19 0 -32 13t-13 33q0 19 13 32t32 13q20 0 33 -13t13 -32zM513 489q0 -20 -13.5 -33t-32.5 -13t-32 13t-13 33q0 19 13 32t32 13t32.5 -13t13.5 -32z" />
    <glyph glyph-name="aring" unicode="&#xe5;" horiz-adv-x="405" 
d="M89 240q46 45 88 71t78 35.5t64 4t46 -21.5q11 11 25 17t26 6h29q14 0 16.5 -9.5t-8.5 -23.5q-4 -5 -19 -24t-33.5 -45.5t-38.5 -55t-34 -52.5q-19 -30 -21.5 -43.5t5.5 -15.5q10 -3 33.5 13t52 42t57.5 56t50 55q13 16 22.5 20.5t14 0t3.5 -14.5t-9 -22q-7 -10 -23 -30
t-38.5 -44t-49.5 -50t-54.5 -48t-53.5 -38.5t-48 -20.5q-25 -5 -40.5 1.5t-22 20.5t-5 34t10.5 43q-18 -17 -39 -35t-43 -32.5t-44.5 -24t-42.5 -9.5q-28 0 -43 19t-12 51.5t27 76t74 93.5zM336 517q11 17 28 31.5t36.5 24t40 14t38.5 2.5q37 -4 46 -31t-14 -62
q-11 -17 -28 -31t-36.5 -24t-39.5 -14.5t-38 -2.5q-38 5 -47.5 31.5t14.5 61.5zM137 200q-24 -27 -36.5 -53.5t-12 -44t15 -20.5t45.5 17q22 13 48 37.5t51.5 52t48 54.5t36.5 45l11 14q-23 13 -51.5 7t-57 -23t-54.5 -40.5t-44 -45.5zM403 535q-16 -12 -18 -27.5t5.5 -26
t22 -13.5t30.5 9q17 15 18.5 30t-6.5 25t-22.5 12.5t-29.5 -9.5z" />
    <glyph glyph-name="ae" unicode="&#xe6;" horiz-adv-x="557" 
d="M89 240q46 45 88 71t78 35.5t64 4t46 -21.5q11 11 25 17t26 6h29q16 0 16 -12q19 6 38.5 9.5t39.5 3.5q23 0 40 -7.5t25.5 -20t6.5 -30.5t-17 -39q-15 -22 -40.5 -42t-58.5 -36t-72 -27t-80 -14q-6 -25 -1 -43.5t25 -23.5q20 -6 55 8t76 40t83 60.5t76 70.5
q13 15 23.5 18t15.5 -0.5t3.5 -13t-10.5 -20.5q-32 -36 -77 -77t-93 -75.5t-94 -57.5t-82 -23q-32 0 -52.5 10.5t-31.5 27.5q-27 -32 -59 -36q-24 -3 -32 3t-4.5 18.5t15 30.5t25.5 39q-18 -17 -38 -33.5t-41 -29.5t-42 -21.5t-40 -8.5q-28 0 -43 19t-12 51.5t27 76t74 93.5
zM137 200q-24 -27 -36.5 -53.5t-12 -44t15 -20.5t45.5 17q22 13 48 37.5t51.5 52t48 54.5t36.5 45l11 14q-23 13 -51.5 7t-57 -23t-54.5 -40.5t-44 -45.5zM474 304q-17 -6 -34 -18.5t-32.5 -30t-28.5 -37.5t-22 -40q45 5 78 18.5t54 30t30.5 34t8 29.5t-15 17t-38.5 -3z" />
    <glyph glyph-name="ccedilla" unicode="&#xe7;" horiz-adv-x="308" 
d="M48 -48q-7 6 -8 11.5t1 10t6.5 9t9.5 8.5q8 8 17 14q-36 12 -47 42t-2.5 68.5t34.5 80.5t64 77t86 57.5t101 22.5q28 0 44 -9.5t2 -36.5q-9 -16 -27.5 -33.5t-41.5 -25.5q-11 -4 -24 -5t-23.5 1t-14.5 7t3 14q8 11 16.5 21.5t1.5 17.5q-22 -7 -43.5 -26t-39.5 -43
t-31 -51t-18 -50.5t0.5 -41t23.5 -22.5q20 -6 52 8t69.5 40t76 60.5t72.5 70.5q14 15 24.5 18t15.5 -0.5t3.5 -13t-11.5 -20.5q-31 -35 -71.5 -75t-83 -74t-85 -57.5t-77.5 -26.5q-8 -6 -16.5 -14.5t-14.5 -18.5q35 -39 36 -69t-12 -47q-10 -14 -25 -19t-31.5 -4.5t-32.5 5
t-28 9.5q-31 14 -31 27t24 10q18 -2 36 -0.5t32 15.5q9 10 6.5 26t-18.5 32z" />
    <glyph glyph-name="egrave" unicode="&#xe8;" horiz-adv-x="329" 
d="M366 256q-15 -22 -40.5 -42t-58.5 -36t-72 -27t-80 -14q-6 -25 -1 -43.5t25 -23.5q20 -6 55 8t76 40t83 60.5t76 70.5q13 15 23.5 18t15.5 -0.5t3.5 -13t-10.5 -20.5q-32 -36 -77 -77t-93 -75.5t-94 -57.5t-82 -23q-52 0 -74 26t-19.5 65.5t26.5 85t63 85t90.5 65.5
t109.5 26q23 0 40 -7.5t25.5 -20t6.5 -30.5t-17 -39zM443 486q11 -8 16.5 -16.5t2 -14t-16 -7t-37.5 6.5q-50 15 -100.5 27t-91.5 20q-23 4 -25.5 16.5t7.5 25.5t28.5 21t36.5 3q44 -11 93 -34.5t87 -47.5zM246 304q-17 -6 -34 -18.5t-32.5 -30t-28.5 -37.5t-22 -40
q45 5 78 18.5t54 30t30.5 34t8 29.5t-15 17t-38.5 -3z" />
    <glyph glyph-name="eacute" unicode="&#xe9;" horiz-adv-x="329" 
d="M366 256q-15 -22 -40.5 -42t-58.5 -36t-72 -27t-80 -14q-6 -25 -1 -43.5t25 -23.5q20 -6 55 8t76 40t83 60.5t76 70.5q13 15 23.5 18t15.5 -0.5t3.5 -13t-10.5 -20.5q-32 -36 -77 -77t-93 -75.5t-94 -57.5t-82 -23q-52 0 -74 26t-19.5 65.5t26.5 85t63 85t90.5 65.5
t109.5 26q23 0 40 -7.5t25.5 -20t6.5 -30.5t-17 -39zM279 486q19 12 41.5 24t46 23t47 20t45.5 15q18 5 36.5 -3t28.5 -21t7.5 -25.5t-25.5 -16.5q-41 -8 -91.5 -20t-100.5 -27q-25 -8 -37.5 -6.5t-16 7t2 14t16.5 16.5zM246 304q-17 -6 -34 -18.5t-32.5 -30t-28.5 -37.5
t-22 -40q45 5 78 18.5t54 30t30.5 34t8 29.5t-15 17t-38.5 -3z" />
    <glyph glyph-name="ecircumflex" unicode="&#xea;" horiz-adv-x="329" 
d="M366 256q-15 -22 -40.5 -42t-58.5 -36t-72 -27t-80 -14q-6 -25 -1 -43.5t25 -23.5q20 -6 55 8t76 40t83 60.5t76 70.5q13 15 23.5 18t15.5 -0.5t3.5 -13t-10.5 -20.5q-32 -36 -77 -77t-93 -75.5t-94 -57.5t-82 -23q-52 0 -74 26t-19.5 65.5t26.5 85t63 85t90.5 65.5
t109.5 26q23 0 40 -7.5t25.5 -20t6.5 -30.5t-17 -39zM370 456q-4 10 -7 20.5t-5 21.5q-20 -16 -35 -31.5t-37 -28.5q-14 -8 -33 -9t-34 2t-21.5 10t5.5 15q15 10 24.5 16t19.5 11.5t24.5 12.5t41.5 20q39 18 73.5 18.5t47.5 -30.5l27 -66q3 -8 -9.5 -9.5t-30 1.5t-33 10
t-18.5 16zM246 304q-17 -6 -34 -18.5t-32.5 -30t-28.5 -37.5t-22 -40q45 5 78 18.5t54 30t30.5 34t8 29.5t-15 17t-38.5 -3z" />
    <glyph glyph-name="edieresis" unicode="&#xeb;" horiz-adv-x="329" 
d="M366 256q-15 -22 -40.5 -42t-58.5 -36t-72 -27t-80 -14q-6 -25 -1 -43.5t25 -23.5q20 -6 55 8t76 40t83 60.5t76 70.5q13 15 23.5 18t15.5 -0.5t3.5 -13t-10.5 -20.5q-32 -36 -77 -77t-93 -75.5t-94 -57.5t-82 -23q-52 0 -74 26t-19.5 65.5t26.5 85t63 85t90.5 65.5
t109.5 26q23 0 40 -7.5t25.5 -20t6.5 -30.5t-17 -39zM246 304q-17 -6 -34 -18.5t-32.5 -30t-28.5 -37.5t-22 -40q45 5 78 18.5t54 30t30.5 34t8 29.5t-15 17t-38.5 -3zM318 489q0 -20 -13 -33t-33 -13q-19 0 -32 13t-13 33q0 19 13 32t32 13q20 0 33 -13t13 -32zM447 489
q0 -20 -13.5 -33t-32.5 -13t-32 13t-13 33q0 19 13 32t32 13t32.5 -13t13.5 -32z" />
    <glyph glyph-name="igrave" unicode="&#xec;" horiz-adv-x="200" 
d="M248 319q-4 -5 -19 -24t-33.5 -45.5t-38.5 -55t-35 -52.5q-19 -30 -21 -43.5t6 -15.5q10 -3 33.5 13t52 42t57.5 56t50 55q13 16 22.5 20.5t14 0t3.5 -14.5t-9 -22q-7 -10 -23 -30t-38.5 -44t-49.5 -50t-54.5 -48t-53.5 -38.5t-48 -20.5q-29 -6 -45 3t-20.5 28t1.5 44.5
t22 52.5q11 20 30.5 49.5t39.5 58t37 51.5t23 30q11 15 28 24t31 9h29q14 0 16.5 -9.5t-8.5 -23.5zM376 486q11 -8 16.5 -16.5t2 -14t-16 -7t-37.5 6.5q-50 15 -100.5 27t-91.5 20q-23 4 -25.5 16.5t7.5 25.5t28.5 21t36.5 3q44 -11 93 -34.5t87 -47.5z" />
    <glyph glyph-name="iacute" unicode="&#xed;" horiz-adv-x="200" 
d="M248 319q-4 -5 -19 -24t-33.5 -45.5t-38.5 -55t-35 -52.5q-19 -30 -21 -43.5t6 -15.5q10 -3 33.5 13t52 42t57.5 56t50 55q13 16 22.5 20.5t14 0t3.5 -14.5t-9 -22q-7 -10 -23 -30t-38.5 -44t-49.5 -50t-54.5 -48t-53.5 -38.5t-48 -20.5q-29 -6 -45 3t-20.5 28t1.5 44.5
t22 52.5q11 20 30.5 49.5t39.5 58t37 51.5t23 30q11 15 28 24t31 9h29q14 0 16.5 -9.5t-8.5 -23.5zM199 486q19 12 41.5 24t46 23t47 20t45.5 15q18 5 36.5 -3t28.5 -21t7.5 -25.5t-25.5 -16.5q-41 -8 -91.5 -20t-100.5 -27q-25 -8 -37.5 -6.5t-16 7t2 14t16.5 16.5z" />
    <glyph glyph-name="icircumflex" unicode="&#xee;" horiz-adv-x="200" 
d="M248 319q-4 -5 -19 -24t-33.5 -45.5t-38.5 -55t-35 -52.5q-19 -30 -21 -43.5t6 -15.5q10 -3 33.5 13t52 42t57.5 56t50 55q13 16 22.5 20.5t14 0t3.5 -14.5t-9 -22q-7 -10 -23 -30t-38.5 -44t-49.5 -50t-54.5 -48t-53.5 -38.5t-48 -20.5q-29 -6 -45 3t-20.5 28t1.5 44.5
t22 52.5q11 20 30.5 49.5t39.5 58t37 51.5t23 30q11 15 28 24t31 9h29q14 0 16.5 -9.5t-8.5 -23.5zM322 456q-4 10 -7 20.5t-5 21.5q-20 -16 -35 -31.5t-37 -28.5q-14 -8 -33 -9t-34 2t-21.5 10t5.5 15q15 10 24.5 16t19.5 11.5t24.5 12.5t41.5 20q39 18 73.5 18.5
t47.5 -30.5l27 -66q3 -8 -9.5 -9.5t-30 1.5t-33 10t-18.5 16z" />
    <glyph glyph-name="idieresis" unicode="&#xef;" horiz-adv-x="200" 
d="M248 319q-4 -5 -19 -24t-33.5 -45.5t-38.5 -55t-35 -52.5q-19 -30 -21 -43.5t6 -15.5q10 -3 33.5 13t52 42t57.5 56t50 55q13 16 22.5 20.5t14 0t3.5 -14.5t-9 -22q-7 -10 -23 -30t-38.5 -44t-49.5 -50t-54.5 -48t-53.5 -38.5t-48 -20.5q-29 -6 -45 3t-20.5 28t1.5 44.5
t22 52.5q11 20 30.5 49.5t39.5 58t37 51.5t23 30q11 15 28 24t31 9h29q14 0 16.5 -9.5t-8.5 -23.5zM390 489q0 -20 -13.5 -33t-32.5 -13t-32 13t-13 33q0 19 13 32t32 13t32.5 -13t13.5 -32zM261 489q0 -20 -13 -33t-33 -13q-19 0 -32 13t-13 33q0 19 13 32t32 13
q20 0 33 -13t13 -32z" />
    <glyph glyph-name="ntilde" unicode="&#xf1;" horiz-adv-x="387" 
d="M358 350q26 4 43 -2t18 -25.5t-17.5 -55t-63.5 -91.5q-23 -27 -33.5 -45t-14 -28.5t-1.5 -14.5t6 -5q10 -3 33.5 13t52 42t57.5 56t49 55q14 16 23.5 20.5t14 0t3.5 -14.5t-9 -22q-7 -10 -23.5 -30t-39 -44t-49 -50t-53.5 -48t-53.5 -38.5t-47.5 -20.5q-30 -6 -49 4
t-22.5 32.5t10 57.5t48.5 80q42 53 61.5 77.5t8.5 29.5q-9 5 -37.5 -14t-64.5 -50.5t-72.5 -70t-60.5 -72.5q-2 -4 -4 -5l-26 -37q-12 -15 -29 -24.5t-31 -9.5h-29q-14 0 -16 10t9 24l201 285q11 15 28 24t31 9h29q14 0 16.5 -9.5t-8.5 -23.5l-36 -51q38 32 75.5 54.5
t72.5 27.5zM271 533q31 25 51 31.5t35.5 3t27.5 -14t25.5 -18t30.5 -9t43 11.5q20 10 33.5 12t16 -4t-6.5 -19t-34 -32q-38 -30 -63.5 -38t-43 -5t-30.5 14t-26 19t-28.5 9.5t-39.5 -12.5q-11 -7 -20.5 -8t-12 5t6.5 19t35 35z" />
    <glyph glyph-name="ograve" unicode="&#xf2;" horiz-adv-x="337" 
d="M356 330q16 -18 18 -45.5t-10 -60.5t-36 -68t-59 -67q-34 -32 -70.5 -53.5t-69.5 -31t-61 -6.5t-44 21q-17 18 -18.5 45.5t10.5 60.5t35.5 68t58.5 67q34 33 70.5 54.5t70 31t61 6t44.5 -21.5zM255 154q19 25 32 49t19 45t4.5 36.5t-10.5 22.5q-10 7 -25.5 4t-34 -15
t-39 -31t-39.5 -44t-31.5 -49t-18.5 -44.5t-4.5 -36t10.5 -22.5q10 -7 25.5 -4t34 14.5t38.5 30.5t39 44zM431 486q11 -8 16.5 -16.5t2 -14t-16 -7t-37.5 6.5q-50 15 -100.5 27t-91.5 20q-23 4 -25.5 16.5t7.5 25.5t28.5 21t36.5 3q44 -11 93 -34.5t87 -47.5z" />
    <glyph glyph-name="oacute" unicode="&#xf3;" horiz-adv-x="337" 
d="M356 330q16 -18 18 -45.5t-10 -60.5t-36 -68t-59 -67q-34 -32 -70.5 -53.5t-69.5 -31t-61 -6.5t-44 21q-17 18 -18.5 45.5t10.5 60.5t35.5 68t58.5 67q34 33 70.5 54.5t70 31t61 6t44.5 -21.5zM255 154q19 25 32 49t19 45t4.5 36.5t-10.5 22.5q-10 7 -25.5 4t-34 -15
t-39 -31t-39.5 -44t-31.5 -49t-18.5 -44.5t-4.5 -36t10.5 -22.5q10 -7 25.5 -4t34 14.5t38.5 30.5t39 44zM249 486q19 12 41.5 24t46 23t47 20t45.5 15q18 5 36.5 -3t28.5 -21t7.5 -25.5t-25.5 -16.5q-41 -8 -91.5 -20t-100.5 -27q-25 -8 -37.5 -6.5t-16 7t2 14t16.5 16.5z
" />
    <glyph glyph-name="ocircumflex" unicode="&#xf4;" horiz-adv-x="337" 
d="M356 330q16 -18 18 -45.5t-10 -60.5t-36 -68t-59 -67q-34 -32 -70.5 -53.5t-69.5 -31t-61 -6.5t-44 21q-17 18 -18.5 45.5t10.5 60.5t35.5 68t58.5 67q34 33 70.5 54.5t70 31t61 6t44.5 -21.5zM255 154q19 25 32 49t19 45t4.5 36.5t-10.5 22.5q-10 7 -25.5 4t-34 -15
t-39 -31t-39.5 -44t-31.5 -49t-18.5 -44.5t-4.5 -36t10.5 -22.5q10 -7 25.5 -4t34 14.5t38.5 30.5t39 44zM381 456q-4 10 -7 20.5t-5 21.5q-20 -16 -35 -31.5t-37 -28.5q-14 -8 -33 -9t-34 2t-21.5 10t5.5 15q15 10 24.5 16t19.5 11.5t24.5 12.5t41.5 20q39 18 73.5 18.5
t47.5 -30.5l27 -66q3 -8 -9.5 -9.5t-30 1.5t-33 10t-18.5 16z" />
    <glyph glyph-name="ydieresis" unicode="&#xff;" horiz-adv-x="371" 
d="M73 -230q-8 -14 -21 -11t-24 15t-15.5 30.5t4.5 36.5q4 10 21 35t41.5 58.5t54.5 73t60 77.5q-34 -31 -68.5 -54.5t-61.5 -28.5q-29 -6 -45 3t-20.5 28t1.5 44.5t22 52.5q11 20 30.5 49.5t39.5 58t37 51.5t23 30q11 15 28 24t31 9h29q14 0 16.5 -9.5t-8.5 -23.5
q-4 -5 -19 -24t-33.5 -45.5t-38.5 -55t-35 -52.5q-19 -30 -21 -43.5t6 -15.5q9 -3 31 11.5t49 38t55 52.5t49 54q23 33 38.5 54.5t19.5 25.5q11 15 28 24t31 9h29q14 0 16 -9.5t-9 -23.5q-3 -3 -19.5 -25.5t-43.5 -60.5t-62.5 -89.5t-75.5 -111.5t-83.5 -126.5t-86.5 -135.5
zM343 489q0 -20 -13 -33t-33 -13q-19 0 -32 13t-13 33q0 19 13 32t32 13q20 0 33 -13t13 -32zM472 489q0 -20 -13.5 -33t-32.5 -13t-32 13t-13 33q0 19 13 32t32 13t32.5 -13t13.5 -32z" />
    <glyph glyph-name="yacute" unicode="&#xfd;" horiz-adv-x="371" 
d="M73 -230q-8 -14 -21 -11t-24 15t-15.5 30.5t4.5 36.5q4 10 21 35t41.5 58.5t54.5 73t60 77.5q-34 -31 -68.5 -54.5t-61.5 -28.5q-29 -6 -45 3t-20.5 28t1.5 44.5t22 52.5q11 20 30.5 49.5t39.5 58t37 51.5t23 30q11 15 28 24t31 9h29q14 0 16.5 -9.5t-8.5 -23.5
q-4 -5 -19 -24t-33.5 -45.5t-38.5 -55t-35 -52.5q-19 -30 -21 -43.5t6 -15.5q9 -3 31 11.5t49 38t55 52.5t49 54q23 33 38.5 54.5t19.5 25.5q11 15 28 24t31 9h29q14 0 16 -9.5t-9 -23.5q-3 -3 -19.5 -25.5t-43.5 -60.5t-62.5 -89.5t-75.5 -111.5t-83.5 -126.5t-86.5 -135.5
zM269 486q19 12 41.5 24t46 23t47 20t45.5 15q18 5 36.5 -3t28.5 -21t7.5 -25.5t-25.5 -16.5q-41 -8 -91.5 -20t-100.5 -27q-25 -8 -37.5 -6.5t-16 7t2 14t16.5 16.5z" />
    <glyph glyph-name="udieresis" unicode="&#xfc;" 
d="M246 319q-4 -5 -18.5 -24t-33 -45.5t-38.5 -55t-35 -52.5q-19 -30 -21 -43.5t6 -15.5q10 -3 33 12.5t51 41t56.5 55.5t49.5 55q18 26 33 45.5t20 26.5q12 15 29 24t31 9h28q14 0 16.5 -9.5t-8.5 -23.5q-4 -5 -18.5 -24t-33.5 -45.5t-39 -55t-34 -52.5q-19 -30 -21 -43.5
t5 -15.5q10 -3 34 13t52.5 42t57.5 56t49 55q13 16 22.5 20.5t14 0t3.5 -14.5t-8 -22q-7 -10 -23 -30t-38.5 -44t-49.5 -50t-54.5 -48t-53.5 -38.5t-48 -20.5q-24 -5 -39.5 1t-22.5 19t-6.5 31.5t8.5 40.5q-36 -34 -73 -60t-66 -32t-46.5 2t-23 25.5t1 43.5t25.5 57
q12 20 31.5 49.5t39.5 58t36.5 51.5t22.5 30q12 15 29 24t31 9h29q14 0 16 -9.5t-9 -23.5zM344 489q0 -20 -13 -33t-33 -13q-19 0 -32 13t-13 33q0 19 13 32t32 13q20 0 33 -13t13 -32zM473 489q0 -20 -13.5 -33t-32.5 -13t-32 13t-13 33q0 19 13 32t32 13t32.5 -13
t13.5 -32z" />
    <glyph glyph-name="ucircumflex" unicode="&#xfb;" 
d="M246 319q-4 -5 -18.5 -24t-33 -45.5t-38.5 -55t-35 -52.5q-19 -30 -21 -43.5t6 -15.5q10 -3 33 12.5t51 41t56.5 55.5t49.5 55q18 26 33 45.5t20 26.5q12 15 29 24t31 9h28q14 0 16.5 -9.5t-8.5 -23.5q-4 -5 -18.5 -24t-33.5 -45.5t-39 -55t-34 -52.5q-19 -30 -21 -43.5
t5 -15.5q10 -3 34 13t52.5 42t57.5 56t49 55q13 16 22.5 20.5t14 0t3.5 -14.5t-8 -22q-7 -10 -23 -30t-38.5 -44t-49.5 -50t-54.5 -48t-53.5 -38.5t-48 -20.5q-24 -5 -39.5 1t-22.5 19t-6.5 31.5t8.5 40.5q-36 -34 -73 -60t-66 -32t-46.5 2t-23 25.5t1 43.5t25.5 57
q12 20 31.5 49.5t39.5 58t36.5 51.5t22.5 30q12 15 29 24t31 9h29q14 0 16 -9.5t-9 -23.5zM395 456q-4 10 -7 20.5t-5 21.5q-20 -16 -35 -31.5t-37 -28.5q-14 -8 -33 -9t-34 2t-21.5 10t5.5 15q15 10 24.5 16t19.5 11.5t24.5 12.5t41.5 20q39 18 73.5 18.5t47.5 -30.5
l27 -66q3 -8 -9.5 -9.5t-30 1.5t-33 10t-18.5 16z" />
    <glyph glyph-name="uacute" unicode="&#xfa;" 
d="M246 319q-4 -5 -18.5 -24t-33 -45.5t-38.5 -55t-35 -52.5q-19 -30 -21 -43.5t6 -15.5q10 -3 33 12.5t51 41t56.5 55.5t49.5 55q18 26 33 45.5t20 26.5q12 15 29 24t31 9h28q14 0 16.5 -9.5t-8.5 -23.5q-4 -5 -18.5 -24t-33.5 -45.5t-39 -55t-34 -52.5q-19 -30 -21 -43.5
t5 -15.5q10 -3 34 13t52.5 42t57.5 56t49 55q13 16 22.5 20.5t14 0t3.5 -14.5t-8 -22q-7 -10 -23 -30t-38.5 -44t-49.5 -50t-54.5 -48t-53.5 -38.5t-48 -20.5q-24 -5 -39.5 1t-22.5 19t-6.5 31.5t8.5 40.5q-36 -34 -73 -60t-66 -32t-46.5 2t-23 25.5t1 43.5t25.5 57
q12 20 31.5 49.5t39.5 58t36.5 51.5t22.5 30q12 15 29 24t31 9h29q14 0 16 -9.5t-9 -23.5zM266 486q19 12 41.5 24t46 23t47 20t45.5 15q18 5 36.5 -3t28.5 -21t7.5 -25.5t-25.5 -16.5q-41 -8 -91.5 -20t-100.5 -27q-25 -8 -37.5 -6.5t-16 7t2 14t16.5 16.5z" />
    <glyph glyph-name="ugrave" unicode="&#xf9;" 
d="M246 319q-4 -5 -18.5 -24t-33 -45.5t-38.5 -55t-35 -52.5q-19 -30 -21 -43.5t6 -15.5q10 -3 33 12.5t51 41t56.5 55.5t49.5 55q18 26 33 45.5t20 26.5q12 15 29 24t31 9h28q14 0 16.5 -9.5t-8.5 -23.5q-4 -5 -18.5 -24t-33.5 -45.5t-39 -55t-34 -52.5q-19 -30 -21 -43.5
t5 -15.5q10 -3 34 13t52.5 42t57.5 56t49 55q13 16 22.5 20.5t14 0t3.5 -14.5t-8 -22q-7 -10 -23 -30t-38.5 -44t-49.5 -50t-54.5 -48t-53.5 -38.5t-48 -20.5q-24 -5 -39.5 1t-22.5 19t-6.5 31.5t8.5 40.5q-36 -34 -73 -60t-66 -32t-46.5 2t-23 25.5t1 43.5t25.5 57
q12 20 31.5 49.5t39.5 58t36.5 51.5t22.5 30q12 15 29 24t31 9h29q14 0 16 -9.5t-9 -23.5zM477 486q11 -8 16.5 -16.5t2 -14t-16 -7t-37.5 6.5q-50 15 -100.5 27t-91.5 20q-23 4 -25.5 16.5t7.5 25.5t28.5 21t36.5 3q44 -11 93 -34.5t87 -47.5z" />
    <glyph glyph-name="oslash" unicode="&#xf8;" horiz-adv-x="337" 
d="M368 310q8 -20 5 -46.5t-15.5 -56t-35 -60t-53.5 -58.5q-54 -51 -111 -74t-97 -15l-3 -4q-12 -11 -27 -18.5t-25 -7.5h-23q-11 0 -10 7.5t13 18.5l31 32q-12 19 -11 46.5t13.5 58.5t35.5 64t55 63q29 27 59.5 47t59.5 31t55.5 13.5t46.5 -5.5l1 2q12 12 27 19t26 7h22
q11 0 10 -7.5t-12 -18.5zM162 221q-20 -26 -33 -51.5t-18 -46.5l183 187q-11 4 -26 -1t-33 -17t-36.5 -30t-36.5 -41zM255 154q38 50 50 93l-179 -182q22 -6 58 19t71 70z" />
    <glyph glyph-name="odieresis" unicode="&#xf6;" horiz-adv-x="337" 
d="M356 330q16 -18 18 -45.5t-10 -60.5t-36 -68t-59 -67q-34 -32 -70.5 -53.5t-69.5 -31t-61 -6.5t-44 21q-17 18 -18.5 45.5t10.5 60.5t35.5 68t58.5 67q34 33 70.5 54.5t70 31t61 6t44.5 -21.5zM255 154q19 25 32 49t19 45t4.5 36.5t-10.5 22.5q-10 7 -25.5 4t-34 -15
t-39 -31t-39.5 -44t-31.5 -49t-18.5 -44.5t-4.5 -36t10.5 -22.5q10 -7 25.5 -4t34 14.5t38.5 30.5t39 44zM439 474q0 -20 -13.5 -33t-32.5 -13t-32 13t-13 33q0 19 13 32t32 13t32.5 -13t13.5 -32zM310 474q0 -20 -13 -33t-33 -13q-19 0 -32 13t-13 33q0 19 13 32t32 13
q20 0 33 -13t13 -32z" />
    <glyph glyph-name="otilde" unicode="&#xf5;" horiz-adv-x="337" 
d="M356 330q16 -18 18 -45.5t-10 -60.5t-36 -68t-59 -67q-34 -32 -70.5 -53.5t-69.5 -31t-61 -6.5t-44 21q-17 18 -18.5 45.5t10.5 60.5t35.5 68t58.5 67q34 33 70.5 54.5t70 31t61 6t44.5 -21.5zM255 154q19 25 32 49t19 45t4.5 36.5t-10.5 22.5q-10 7 -25.5 4t-34 -15
t-39 -31t-39.5 -44t-31.5 -49t-18.5 -44.5t-4.5 -36t10.5 -22.5q10 -7 25.5 -4t34 14.5t38.5 30.5t39 44zM235 501q30 25 50.5 31.5t36 3t27.5 -14t25.5 -18t30.5 -9t43 11.5q20 10 33.5 12t16 -4t-6.5 -19t-34 -32q-38 -30 -63.5 -38t-43 -5t-30.5 14t-26 19t-28.5 9.5
t-39.5 -12.5q-11 -7 -20.5 -8t-12 5t6.5 19t35 35z" />
    <glyph glyph-name="Aogonek" unicode="&#x104;" horiz-adv-x="739" 
d="M1003 651q-49 -64 -97 -131q-21 -29 -43 -60.5t-44.5 -64t-44 -64.5t-40.5 -62q-47 -73 -68.5 -115t-24 -59.5t13 -12.5t43 27t64.5 58.5t79 81.5q12 13 21 15.5t12 -3t0 -16.5t-13 -24q-57 -71 -114.5 -124.5t-107.5 -79.5q-20 -14 -43.5 -30t-41.5 -34t-26 -38t2 -40
q8 -17 24.5 -19t34.5 0q24 3 24 -10t-31 -26q-12 -6 -28 -10.5t-32.5 -4.5t-31.5 5t-25 19q-8 11 -9.5 28.5t7.5 40t30.5 48t59.5 52.5q-38 8 -38 53t35 114l-232 4l-180 -136q-20 -15 -43 -24.5t-37 -9.5h-29q-14 0 -18.5 10t15.5 24l843 605q21 14 44 23.5t37 9.5h50
q8 0 9.5 -5.5t-6.5 -14.5zM375 213l200 -4q13 21 28.5 43.5t34.5 47.5q31 40 66 85t68.5 87t62.5 75.5t48 50.5z" />
    <glyph glyph-name="Lcaron" unicode="&#x13d;" horiz-adv-x="400" 
d="M271 1q-21 -3 -33.5 2.5t-22.5 13t-19.5 15.5t-22.5 11q-11 2 -24.5 -2t-26.5 -11q-15 -8 -30 -19q5 9 11 19q5 8 11.5 16.5t13.5 15.5l17 12l-30 -42q-12 -15 -28.5 -24.5t-30.5 -9.5h-29q-14 0 -16.5 10t8.5 24l423 604q11 15 28 24.5t31 9.5h29q14 0 16 -10t-9 -24
l-392 -562q41 30 65.5 35t40 -1t26 -15.5t24.5 -9.5q19 0 44.5 16.5t53 41.5t54 54t47.5 54q13 16 23 20t14.5 -0.5t3.5 -14.5t-10 -21q-30 -39 -64.5 -78.5t-69.5 -72.5t-68 -55t-58 -26zM491 490q30 39 48 76t35 71q11 22 31 28.5t35.5 0.5t19.5 -22.5t-16 -40.5
q-25 -29 -51 -57t-61 -61q-17 -16 -28 -21t-16.5 -3t-5 10t8.5 19z" />
    <glyph glyph-name="Sacute" unicode="&#x15a;" horiz-adv-x="469" 
d="M322 554q46 60 117 88.5t180 28.5q28 0 44 -9t2 -36q-9 -16 -28 -34t-42 -26q-11 -3 -24 -4.5t-23 0.5t-14 7.5t3 14.5q4 5 10.5 11.5t11.5 13t7.5 12t-1.5 8.5q-28 5 -54 1.5t-49 -14t-41.5 -27t-30.5 -35.5q-16 -25 -14 -55.5t12.5 -65t24 -73t19.5 -79t-1 -83.5
t-36 -87q-49 -72 -112.5 -96t-137.5 -18q-35 3 -61.5 19.5t-43.5 40t-24.5 52t-5 55.5t15.5 49t37 33q15 7 33 7.5t32 -3t20 -10.5t-3 -15q-21 -20 -30.5 -46.5t-7.5 -52.5t16 -48.5t40 -32.5q17 -7 36 -8.5t37.5 3.5t36.5 19t33 38q21 34 22 70.5t-7.5 74t-21 76.5
t-17.5 78t2 78.5t38 79.5zM476 726q19 12 41.5 24t46 23t47 20t45.5 15q18 5 36.5 -3t28.5 -21t7.5 -25.5t-25.5 -16.5q-41 -8 -91.5 -20t-100.5 -27q-25 -8 -37.5 -6.5t-16 7t2 14t16.5 16.5z" />
    <glyph glyph-name="Scedilla" unicode="&#x15e;" horiz-adv-x="472" 
d="M90 -59q-7 6 -8 11.5t1 10t6.5 9t9.5 8.5q5 6 11.5 11t12.5 10q-45 11 -72 45t-34.5 73t4.5 75t45 52q15 7 33 7.5t32 -3t20 -10.5t-3 -15q-21 -20 -30.5 -46.5t-7.5 -52.5t16 -48.5t40 -32.5q17 -7 36 -8.5t37.5 3.5t36.5 19t33 38q21 34 22 70.5t-7.5 74t-21 76.5
t-17.5 78t2 78.5t38 79.5q46 60 117 88.5t180 28.5q28 0 44 -9t2 -36q-9 -16 -28 -34t-42 -26q-11 -3 -24 -4.5t-23 0.5t-14 7.5t3 14.5q4 5 10.5 11.5t11.5 13t7.5 12t-1.5 8.5q-28 5 -54 1.5t-49 -14t-41.5 -27t-30.5 -35.5q-16 -25 -14 -55.5t12.5 -65t24 -73t19.5 -79
t-1 -83.5t-36 -87q-45 -66 -102 -91.5t-123 -23.5q-7 -5 -19.5 -16t-19.5 -24q35 -39 36 -69t-12 -47q-10 -14 -25 -19t-31.5 -4.5t-32.5 5t-28 9.5q-31 14 -31 27t24 10q18 -2 36 -0.5t32 15.5q9 10 6.5 26t-18.5 32z" />
    <glyph glyph-name="Tcaron" unicode="&#x164;" horiz-adv-x="500" 
d="M284 326q-52 0 -85.5 25.5t-45 64t0 83.5t47.5 83.5t97.5 64t151.5 25.5h546q23 0 23.5 -15t-12 -32.5t-34 -32.5t-42.5 -15q-11 0 -32 2.5t-49 7t-61.5 10t-70.5 11.5q-12 -17 -31 -43.5t-41.5 -57.5t-46 -64.5t-45 -64t-38.5 -55t-26 -37.5q-49 -74 -93 -128t-89 -89.5
t-94 -53t-108 -17.5t-89 38q-7 9 -6.5 18.5t8.5 9.5q6 -1 14.5 -5t20.5 -8.5t26.5 -8t31.5 -3.5q37 0 70 19t64 51t61 75t62 90q8 12 28 40.5t45.5 64.5t54 75.5t53 74t43 60t24.5 33.5q-46 6 -89.5 10t-79.5 4q-64 0 -105.5 -18.5t-64 -46.5t-26 -61t9 -61t39 -46.5
t65.5 -18.5q25 0 26.5 -9t-13 -20t-40.5 -20t-55 -9zM717 779q4 -10 7 -20.5t5 -21.5q20 16 34.5 31.5t37.5 28.5q13 8 32.5 9.5t34.5 -2t21 -10.5t-6 -15l-24 -16t-19 -11.5t-25 -12.5t-41 -20q-39 -18 -73.5 -18.5t-47.5 30.5l-27 67q-3 8 9.5 9.5t29.5 -2t33 -10.5
t19 -16z" />
    <glyph glyph-name="Zacute" unicode="&#x179;" horiz-adv-x="509" 
d="M412 670q21 3 37 -5.5t31.5 -20t31.5 -23t36 -14.5q9 -2 21.5 1.5t26 9t26.5 12.5t24 13q16 14 35 22.5t33 8.5h29q14 0 13 -9.5t-16 -23.5l-536 -525q43 21 74 19t55 -12.5t43 -22.5t37 -12q19 0 44 15.5t52 39.5t53.5 52.5t46.5 53.5q13 16 23 20t14.5 -0.5t3.5 -14.5
t-9 -21q-30 -39 -64.5 -78t-69 -71t-67 -53.5t-58.5 -24.5q-21 -3 -41.5 5.5t-41.5 20t-41.5 23t-40.5 14.5q-11 1 -24.5 -3t-28 -10.5t-28 -14.5t-23.5 -14l-17 -11q-1 0 -2 -1q-24 -13 -41 -13h-30q-14 0 -12.5 10t16.5 24l533 522q-42 -20 -72 -18.5t-53 11.5t-40.5 21.5
t-35.5 11.5q-28 0 -59 -27q-12 -11 -22 -13t-15.5 2t-3.5 13t14 21q35 34 74 60t65 30zM508 725q19 12 41.5 24t46 23t47 20t45.5 15q18 5 36.5 -3t28.5 -21t7.5 -25.5t-25.5 -16.5q-41 -8 -91.5 -20t-100.5 -27q-25 -8 -37.5 -6.5t-16 7t2 14t16.5 16.5z" />
    <glyph glyph-name="uni00AD.001" horiz-adv-x="833" 
 />
    <glyph glyph-name="uni00AD" unicode="&#xad;" horiz-adv-x="398" 
d="M300 202q33 0 57 -9t34.5 -20t7.5 -20t-24 -9h-144q-26 0 -44.5 9t-27 20t-5 20t21.5 9h124z" />
    <glyph glyph-name="Zdotaccent" unicode="&#x17b;" horiz-adv-x="509" 
d="M412 670q21 3 37 -5.5t31.5 -20t31.5 -23t36 -14.5q9 -2 21.5 1.5t26 9t26.5 12.5t24 13q16 14 35 22.5t33 8.5h29q14 0 13 -9.5t-16 -23.5l-536 -525q43 21 74 19t55 -12.5t43 -22.5t37 -12q19 0 44 15.5t52 39.5t53.5 52.5t46.5 53.5q13 16 23 20t14.5 -0.5t3.5 -14.5
t-9 -21q-30 -39 -64.5 -78t-69 -71t-67 -53.5t-58.5 -24.5q-21 -3 -41.5 5.5t-41.5 20t-41.5 23t-40.5 14.5q-11 1 -24.5 -3t-28 -10.5t-28 -14.5t-23.5 -14l-17 -11q-1 0 -2 -1q-24 -13 -41 -13h-30q-14 0 -12.5 10t16.5 24l533 522q-42 -20 -72 -18.5t-53 11.5t-40.5 21.5
t-35.5 11.5q-28 0 -59 -27q-12 -11 -22 -13t-15.5 2t-3.5 13t14 21q35 34 74 60t65 30zM620 720q0 -20 -13 -33t-33 -13q-19 0 -32 13t-13 33q0 19 13 32t32 13q20 0 33 -13t13 -32z" />
    <glyph glyph-name="aogonek" unicode="&#x105;" horiz-adv-x="405" 
d="M89 240q46 45 88 71t78 35.5t64 4t46 -21.5q11 11 25 17t26 6h29q14 0 16.5 -9.5t-8.5 -23.5q-4 -5 -19 -24t-33.5 -45.5t-38.5 -55t-34 -52.5q-19 -30 -21.5 -43.5t5.5 -15.5q10 -3 33.5 13t52 42t57.5 56t50 55q13 16 22.5 20.5t14 0t3.5 -14.5t-9 -22q-9 -14 -34 -43
t-57.5 -62t-69.5 -64t-70 -48q-20 -13 -40.5 -28.5t-35.5 -32.5t-21 -35t3 -36q8 -17 24.5 -19t34.5 0q24 3 24 -10t-31 -26q-12 -6 -28 -10.5t-32.5 -4.5t-31.5 5t-25 19q-8 10 -10 27.5t6.5 39.5t29.5 47t57 51q-23 8 -27 35.5t10 62.5q-18 -17 -39 -35t-43 -32.5
t-44.5 -24t-42.5 -9.5q-28 0 -43 19t-12 51.5t27 76t74 93.5zM137 200q-24 -27 -36.5 -53.5t-12 -44t15 -20.5t45.5 17q22 13 48 37.5t51.5 52t48 54.5t36.5 45l11 14q-23 13 -51.5 7t-57 -23t-54.5 -40.5t-44 -45.5z" />
    <glyph glyph-name="lcaron" unicode="&#x13e;" horiz-adv-x="199" 
d="M470 638q-2 -3 -26 -36.5t-59.5 -83t-77.5 -109t-80 -113.5t-67 -96t-38 -58q-19 -30 -21.5 -43.5t5.5 -15.5q10 -3 34 13t52.5 42t57.5 56t49 55q13 16 22.5 20.5t14 0t3.5 -14.5t-8 -22q-7 -10 -23.5 -30t-39 -44t-49 -50t-54 -48t-53.5 -38.5t-48 -20.5
q-29 -6 -45.5 3t-21 28t2 44.5t21.5 52.5q6 10 23.5 36.5t42.5 63t55 80t61 87.5t60.5 86t53 75t39 54.5t18.5 25.5q12 15 29 24.5t31 9.5h29q14 0 16 -10t-9 -24zM405 466q30 39 48 76t35 71q11 22 31 28.5t35.5 0.5t19.5 -22.5t-16 -40.5q-25 -29 -51 -57t-61 -61
q-17 -16 -28 -21t-16.5 -3t-5 10t8.5 19z" />
    <glyph glyph-name="sacute" unicode="&#x15b;" horiz-adv-x="284" 
d="M122 282q25 32 69 50t102 18q28 0 44 -9t1 -36q-9 -16 -27.5 -34t-41.5 -26q-11 -3 -24 -4.5t-23 0.5t-14 7t3 14q4 5 10 11.5t11 13.5t7.5 12.5t-0.5 9.5q-14 2 -34 -7t-31 -26q-10 -15 -3.5 -26.5t20.5 -21.5t31.5 -21.5t29.5 -26.5t14.5 -36t-13.5 -51
q-13 -24 -34 -42.5t-46 -30t-53.5 -16t-56.5 -2.5q-40 3 -57.5 22t-18 41.5t12 43.5t31.5 30q10 5 25.5 5t27.5 -3t18 -9t-3 -14q-7 -7 -16 -17.5t-14.5 -22t-5.5 -21t11 -13.5q11 -5 26 -4t30 7.5t28 18t20 29.5t-1 31t-21.5 24.5t-29 23t-24 26t-5.5 34.5t25 48zM215 486
q19 12 41.5 24t46 23t47 20t45.5 15q18 5 36.5 -3t28.5 -21t7.5 -25.5t-25.5 -16.5q-41 -8 -91.5 -20t-100.5 -27q-25 -8 -37.5 -6.5t-16 7t2 14t16.5 16.5z" />
    <glyph glyph-name="scedilla" unicode="&#x15f;" horiz-adv-x="284" 
d="M7 -47q-7 6 -8 11.5t1 10t6.5 9t9.5 8.5l18 16q-27 9 -37 27.5t-8 39t13.5 38.5t28.5 26q10 5 25.5 5t27.5 -3t18 -9t-3 -14q-7 -7 -16 -17.5t-14.5 -22t-5.5 -21t11 -13.5q11 -5 26 -4t30 7.5t28 18t20 29.5t-1 31t-21.5 24.5t-29 23t-24 26t-5.5 34.5t25 48
q25 32 69 50t102 18q28 0 44 -9t1 -36q-9 -16 -27.5 -34t-41.5 -26q-11 -3 -24 -4.5t-23 0.5t-14 7t3 14q4 5 10 11.5t11 13.5t7.5 12.5t-0.5 9.5q-14 2 -34 -7t-31 -26q-10 -15 -3.5 -26.5t20.5 -21.5t31.5 -21.5t29.5 -26.5t14.5 -36t-13.5 -51q-24 -45 -71.5 -68
t-99.5 -24q-8 -6 -16.5 -14.5t-14.5 -18.5q35 -39 36 -69t-12 -47q-10 -14 -25 -19t-31.5 -4.5t-32.5 5t-28 9.5q-31 14 -31 27t24 10q18 -2 36 -0.5t32 15.5q9 10 6.5 26t-18.5 32z" />
    <glyph glyph-name="tcaron" unicode="&#x165;" horiz-adv-x="200" 
d="M106 522q24 0 75 0.5t115 1.5l43 58q11 14 28 23.5t31 9.5h29q14 0 16.5 -9.5t-8.5 -23.5q-2 -2 -13.5 -17.5t-28.5 -38.5h40q9 17 17 34t16 33q11 22 31 28.5t35.5 0.5t19.5 -22.5t-16 -40.5l-28 -32q68 1 119.5 1t71.5 1q25 1 47.5 -9t34.5 -22.5t9 -23.5t-28 -11
l-330 -15l-8 -7q-17 -16 -28 -21t-16.5 -3t-5 10t8.5 19l-50 -2q-31 -43 -65 -90t-64 -89.5t-52.5 -75.5t-31.5 -47q-18 -30 -20 -43.5t5 -15.5q10 -3 33.5 13t52 42t57.5 56t49 55q14 16 24 20.5t14.5 0t3 -14.5t-8.5 -22q-7 -10 -23.5 -30t-39 -44t-49 -50t-54 -48
t-53.5 -38.5t-48 -20.5q-30 -6 -46 3t-20.5 28t1.5 44.5t21 52.5q7 12 29.5 45.5t53.5 77t66 93t67 94.5q-68 -3 -118.5 -5t-66.5 -2q-26 -1 -29 13t8 30.5t32.5 31t44.5 14.5z" />
    <glyph glyph-name="zacute" unicode="&#x17a;" horiz-adv-x="353" 
d="M374 333q7 10 17.5 12.5t19.5 0t13.5 -8.5t-0.5 -14q-16 -25 -41.5 -53t-57 -56.5t-67.5 -57t-72 -54.5q12 1 20 -2t14.5 -6.5t13 -6.5t15.5 -3q19 0 45.5 16.5t55 41t56 53.5t47.5 54q13 16 23 20t15 -0.5t4 -14.5t-10 -21q-30 -39 -65.5 -78.5t-71.5 -72t-69.5 -54.5
t-59.5 -26q-21 -3 -31.5 2t-17.5 13l-14 16t-20 11q-12 2 -27 -3t-29 -12q-7 -5 -14 -9.5t-14 -8.5q-15 -9 -25.5 -8t-14 8.5t1 18t19.5 20.5q35 23 72 48.5t73.5 53t70.5 55.5t63 55q-43 -13 -76 -5t-51 27q-12 -26 -36 -54q-12 -13 -22 -16.5t-15 0t-4 13t11 22.5
q15 19 29 40.5t18 36.5v6q0 12 15.5 18.5t35 7.5t37 -3.5t21.5 -15.5q4 -10 13 -19t22 -12t29.5 2t34.5 23zM260 486q19 12 41.5 24t46 23t47 20t45.5 15q18 5 36.5 -3t28.5 -21t7.5 -25.5t-25.5 -16.5q-41 -8 -91.5 -20t-100.5 -27q-25 -8 -37.5 -6.5t-16 7t2 14t16.5 16.5
z" />
    <glyph glyph-name="zdotaccent" unicode="&#x17c;" horiz-adv-x="334" 
d="M355 333q7 10 17.5 12.5t19.5 0t13.5 -8.5t-0.5 -14q-16 -25 -41.5 -53t-57 -56.5t-67.5 -57t-72 -54.5q12 1 20 -2t14.5 -6.5t13 -6.5t15.5 -3q19 0 45.5 16.5t55 41t56 53.5t47.5 54q13 16 23 20t15 -0.5t4 -14.5t-10 -21q-30 -39 -65.5 -78.5t-71.5 -72t-69.5 -54.5
t-59.5 -26q-21 -3 -31.5 2t-17.5 13l-14 16t-20 11q-12 2 -27 -3t-29 -12q-7 -5 -14 -9.5t-14 -8.5q-15 -9 -25.5 -8t-14 8.5t1 18t19.5 20.5q35 23 72 48.5t73.5 53t70.5 55.5t63 55q-43 -13 -76 -5t-51 27q-12 -26 -36 -54q-12 -13 -22 -16.5t-15 0t-4 13t11 22.5
q15 19 29 40.5t18 36.5v6q0 12 15.5 18.5t35 7.5t37 -3.5t21.5 -15.5q4 -10 13 -19t22 -12t29.5 2t34.5 23zM372 489q0 -20 -13 -33t-33 -13q-19 0 -32 13t-13 33q0 19 13 32t32 13q20 0 33 -13t13 -32z" />
    <glyph glyph-name="Racute" unicode="&#x154;" horiz-adv-x="787" 
d="M712 673q98 -2 152 -27t71 -61t1 -78t-57.5 -80t-105.5 -66t-142 -36q-6 -35 -2 -77.5t13 -80.5t22 -64.5t26 -27.5q15 -2 40.5 16t53.5 45t55.5 57.5t47.5 55.5q14 16 23.5 20.5t14 0t3.5 -14.5t-9 -22q-7 -10 -23.5 -31t-39 -47t-50 -53.5t-55 -50.5t-54.5 -39t-49 -18
q-25 -2 -44.5 15t-35 45.5t-26 65t-16.5 73.5t-7 71.5t3 58.5h-7l-25 -37q-49 -74 -93 -128t-89 -89.5t-94 -53t-109 -17.5q-29 0 -51.5 10.5t-36.5 27.5q-8 9 -7 19t9 9q5 -1 14 -5t20.5 -8.5t26 -8t31.5 -3.5q37 0 70 19t64 51t61.5 75t61.5 90q8 13 25 36.5t37 52
t41.5 59t40 56t31.5 44t17 23.5q11 14 27 27t46 21q17 5 27.5 7t21.5 4q11 3 14.5 -8.5t-7.5 -25.5q-3 -3 -17.5 -23.5t-35.5 -50t-45.5 -64.5t-46.5 -67h45q64 0 110.5 20t75.5 50t40.5 65t5.5 65t-28.5 50t-62.5 20q-71 0 -113.5 -13t-73 -40t-57.5 -69t-66 -100
q-40 12 -54 36.5t-6 54t36.5 60t74 55.5t107 40.5t134.5 13.5zM694 738q19 12 41.5 24t46 23t47 20t45.5 15q18 5 36.5 -3t28.5 -21t7.5 -25.5t-25.5 -16.5q-41 -8 -91.5 -20t-100.5 -27q-25 -8 -37.5 -6.5t-16 7t2 14t16.5 16.5z" />
    <glyph glyph-name="Abreve" unicode="&#x102;" horiz-adv-x="739" 
d="M1003 651q-49 -64 -97 -131q-21 -29 -43 -60.5t-44.5 -64t-44 -64.5t-40.5 -62q-47 -73 -68.5 -115t-24 -59.5t13 -12.5t43 27t64.5 58.5t79 81.5q12 13 21 15.5t12 -3t0 -16.5t-13 -24q-39 -49 -79.5 -90.5t-78.5 -71.5t-72 -46.5t-61 -16.5q-51 0 -55 46.5t35 122.5
l-232 4l-180 -136q-20 -15 -43 -24.5t-37 -9.5h-29q-14 0 -18.5 10t15.5 24l843 605q21 14 44 23.5t37 9.5h50q8 0 9.5 -5.5t-6.5 -14.5zM375 213l200 -4q13 21 28.5 43.5t34.5 47.5q31 40 66 85t68.5 87t62.5 75.5t48 50.5zM1082 800q8 10 21.5 15t24 3.5t13 -11
t-10.5 -28.5q-12 -17 -29.5 -31t-36.5 -23.5t-39 -14.5t-38 -3q-37 5 -47.5 32.5t15.5 60.5q12 15 24.5 20.5t22 5.5t14 -5t-0.5 -12q-15 -20 -16.5 -34.5t4.5 -22t17.5 -7.5t24.5 10q8 6 19 21.5t18 23.5z" />
    <glyph glyph-name="Lacute" unicode="&#x139;" horiz-adv-x="400" 
d="M271 1q-21 -3 -33.5 2.5t-22.5 13t-19.5 15.5t-22.5 11q-11 2 -24.5 -2t-26.5 -11q-15 -8 -30 -19q5 9 11 19q5 8 11.5 16.5t13.5 15.5l17 12l-30 -42q-12 -15 -28.5 -24.5t-30.5 -9.5h-29q-14 0 -16.5 10t8.5 24l423 604q11 15 28 24.5t31 9.5h29q14 0 16 -10t-9 -24
l-392 -562q41 30 65.5 35t40 -1t26 -15.5t24.5 -9.5q19 0 44.5 16.5t53 41.5t54 54t47.5 54q13 16 23 20t14.5 -0.5t3.5 -14.5t-10 -21q-30 -39 -64.5 -78.5t-69.5 -72.5t-68 -55t-58 -26zM518 740q19 12 41.5 24t46 23t47 20t45.5 15q18 5 36.5 -3t28.5 -21t7.5 -25.5
t-25.5 -16.5q-41 -8 -91.5 -20t-100.5 -27q-25 -8 -37.5 -6.5t-16 7t2 14t16.5 16.5z" />
    <glyph glyph-name="Cacute" unicode="&#x106;" horiz-adv-x="416" 
d="M551 567q-11 -3 -24 -4.5t-23 0.5t-14.5 7t3.5 14q4 6 8.5 11.5t7.5 10.5t4 9.5t-3 7.5q-74 -14 -136.5 -58.5t-110.5 -103t-79 -123.5t-42 -122t1 -97.5t50 -48.5q45 -11 91 4.5t88 44.5t79 64.5t65 65.5q14 15 24.5 18t15.5 -0.5t3.5 -13t-11.5 -20.5q-32 -36 -70 -77
t-84.5 -75.5t-102 -57.5t-121.5 -23q-65 0 -102 29t-50 76t-3 107.5t41 123.5t81 123.5t116 107.5t147 76t174 29q14 0 26 -2t19 -7t7.5 -14t-6.5 -22q-9 -16 -27.5 -34t-41.5 -26zM470 746q19 12 41.5 24t46 23t47 20t45.5 15q18 5 36.5 -3t28.5 -21t7.5 -25.5t-25.5 -16.5
q-41 -8 -91.5 -20t-100.5 -27q-25 -8 -37.5 -6.5t-16 7t2 14t16.5 16.5z" />
    <glyph glyph-name="Ccaron" unicode="&#x10c;" horiz-adv-x="416" 
d="M551 567q-11 -3 -24 -4.5t-23 0.5t-14.5 7t3.5 14q4 6 8.5 11.5t7.5 10.5t4 9.5t-3 7.5q-74 -14 -136.5 -58.5t-110.5 -103t-79 -123.5t-42 -122t1 -97.5t50 -48.5q45 -11 91 4.5t88 44.5t79 64.5t65 65.5q14 15 24.5 18t15.5 -0.5t3.5 -13t-11.5 -20.5q-32 -36 -70 -77
t-84.5 -75.5t-102 -57.5t-121.5 -23q-65 0 -102 29t-50 76t-3 107.5t41 123.5t81 123.5t116 107.5t147 76t174 29q14 0 26 -2t19 -7t7.5 -14t-6.5 -22q-9 -16 -27.5 -34t-41.5 -26zM553 785q4 -10 7 -20.5t5 -21.5q20 16 34.5 31.5t37.5 28.5q13 8 32.5 9.5t34.5 -2
t21 -10.5t-6 -15l-24 -16t-19 -11.5t-25 -12.5t-41 -20q-39 -18 -73.5 -18.5t-47.5 30.5l-27 67q-3 8 9.5 9.5t29.5 -2t33 -10.5t19 -16z" />
    <glyph glyph-name="Eogonek" unicode="&#x118;" horiz-adv-x="459" 
d="M353 524q-40 -60 -10 -98.5t121 -38.5q25 0 36.5 -6.5t9.5 -14.5t-18.5 -15.5t-46.5 -8.5q-72 -3 -127.5 -21.5t-93.5 -45.5t-57 -58.5t-18.5 -61t22 -52.5t65.5 -33q46 -11 91.5 4.5t87.5 44.5t79 64.5t65 65.5q14 15 24.5 18t15.5 -0.5t3.5 -13t-11.5 -20.5
q-23 -25 -48 -53t-54.5 -55t-62.5 -51.5t-70 -41.5q-20 -13 -41 -28.5t-36.5 -32.5t-21.5 -35t3 -37q8 -17 24.5 -19t34.5 0q24 3 24 -10t-31 -26q-12 -6 -28 -10.5t-32.5 -4.5t-31.5 5t-25 19q-8 10 -10 25.5t4.5 35t23 42.5t45.5 47q-21 -3 -45 -3q-75 0 -122 21t-66.5 54
t-12.5 74t40.5 81t92.5 75t144 57q-48 10 -69.5 32.5t-20.5 51t21.5 59.5t56.5 58q66 51 154.5 80t185.5 29q14 0 26 -2t19 -7t7.5 -14t-6.5 -22q-8 -16 -27 -34t-42 -26q-11 -3 -24 -4.5t-23 0.5t-14 7t3 14q8 11 16.5 21.5t1.5 17.5q-25 -1 -53.5 -8t-56 -19t-51.5 -30
t-40 -42z" />
    <glyph glyph-name="Ecaron" unicode="&#x11a;" horiz-adv-x="459" 
d="M353 524q-40 -60 -10 -98.5t121 -38.5q25 0 36.5 -6.5t9.5 -14.5t-18.5 -15.5t-46.5 -8.5q-72 -3 -127.5 -21.5t-93.5 -45.5t-57 -58.5t-18.5 -61t22 -52.5t65.5 -33q46 -11 91.5 4.5t87.5 44.5t79 64.5t65 65.5q14 15 24.5 18t15.5 -0.5t3.5 -13t-11.5 -20.5
q-32 -36 -70 -77t-84.5 -75.5t-102 -57.5t-121.5 -23q-75 0 -122 21t-66.5 54t-12.5 74t40.5 81t92.5 75t144 57q-48 10 -69.5 32.5t-20.5 51t21.5 59.5t56.5 58q66 51 154.5 80t185.5 29q14 0 26 -2t19 -7t7.5 -14t-6.5 -22q-8 -16 -27 -34t-42 -26q-11 -3 -24 -4.5
t-23 0.5t-14 7t3 14q8 11 16.5 21.5t1.5 17.5q-25 -1 -53.5 -8t-56 -19t-51.5 -30t-40 -42zM572 771q4 -10 7 -20.5t5 -21.5q20 16 34.5 31.5t37.5 28.5q13 8 32.5 9.5t34.5 -2t21 -10.5t-6 -15l-24 -16t-19 -11.5t-25 -12.5t-41 -20q-39 -18 -73.5 -18.5t-47.5 30.5l-27 67
q-3 8 9.5 9.5t29.5 -2t33 -10.5t19 -16z" />
    <glyph glyph-name="Dcaron" unicode="&#x10e;" horiz-adv-x="834" 
d="M717 673q79 -2 127 -32t69 -77.5t16.5 -107.5t-31 -122.5t-73 -122.5t-110 -106.5t-141.5 -75t-168 -28.5q-54 0 -82.5 15.5t-42.5 32.5q-39 -26 -81.5 -38.5t-93.5 -12.5q-30 0 -52.5 10.5t-36.5 27.5q-7 9 -6.5 19t8.5 9q6 -1 14.5 -5t20.5 -8.5t26.5 -8t31.5 -3.5
q37 0 70 19t64 51t61 75t62 90q8 13 24.5 36.5t37 52t42 59t40 56t31.5 44t17 23.5q11 14 26.5 27t46.5 21q17 5 27 7t21 4q11 3 15 -8.5t-7 -25.5q-2 -3 -15 -20.5t-32 -44t-41 -58.5t-43.5 -62.5t-40 -57t-28.5 -41.5q-48 -72 -90 -124.5t-86 -88.5q15 -10 36.5 -17.5
t49.5 -7.5q53 0 107.5 25t105 66t94 93.5t75 107.5t48.5 107.5t13 93.5t-30.5 66t-81.5 25q-71 0 -113 -12.5t-71.5 -39t-56 -68t-65.5 -99.5q-40 12 -54 36.5t-6 54t36.5 60t74 55.5t107 40.5t134.5 13.5zM806 774q4 -10 7 -20.5t5 -21.5q20 16 34.5 31.5t37.5 28.5
q13 8 32.5 9.5t34.5 -2t21 -10.5t-6 -15l-24 -16t-19 -11.5t-25 -12.5t-41 -20q-39 -18 -73.5 -18.5t-47.5 30.5l-27 67q-3 8 9.5 9.5t29.5 -2t33 -10.5t19 -16z" />
    <glyph glyph-name="Dcroat" unicode="&#x110;" horiz-adv-x="834" 
d="M430 363q20 28 41.5 58.5t40.5 56t32 44t17 23.5q11 14 26.5 27t46.5 21q17 5 27 7t21 4q11 3 15 -8.5t-7 -25.5q-3 -3 -18.5 -24.5t-37 -52t-47 -66.5t-47.5 -68q28 -5 47 -14.5t26 -18.5t1 -16t-27 -7h-86l-11 -17q-48 -72 -90 -124.5t-86 -88.5q15 -10 36.5 -17.5
t49.5 -7.5q53 0 107.5 25t105 66t94 93.5t75 107.5t48.5 107.5t13 93.5t-30.5 66t-81.5 25q-71 0 -113 -12.5t-71.5 -39t-56 -68t-65.5 -99.5q-40 12 -54 36.5t-6 54t36.5 60t74 55.5t107 40.5t134.5 13.5q79 -2 127 -32t69 -77.5t16.5 -107.5t-31 -122.5t-73 -122.5
t-110 -106.5t-141.5 -75t-168 -28.5q-54 0 -82.5 15.5t-42.5 32.5q-39 -26 -81.5 -38.5t-93.5 -12.5q-30 0 -52.5 10.5t-36.5 27.5q-7 9 -6.5 19t8.5 9q6 -1 14.5 -5t20.5 -8.5t26.5 -8t31.5 -3.5q37 0 70 19t64 51t61 75t62 90l20 30q-26 3 -43.5 13t-24.5 20t-1.5 18
t25.5 8h85z" />
    <glyph glyph-name="Nacute" unicode="&#x143;" horiz-adv-x="778" 
d="M631 182l310 455q11 15 28 24.5t31 9.5h43q14 0 16.5 -10t-8.5 -24l-422 -605q-12 -14 -27 -23t-29 -9h-18q-14 0 -21 10t-2 24l79 425q-19 -27 -38 -53.5t-35 -49.5t-28.5 -41.5t-19.5 -28.5q-49 -74 -93 -128t-89 -89.5t-94 -53t-108 -17.5q-30 0 -52.5 10.5
t-36.5 27.5q-7 9 -6.5 19t8.5 9q6 -1 14.5 -5t20 -8.5t26 -8t31.5 -3.5q37 0 70 19t64 51t61.5 75t61.5 90q9 13 30.5 43.5t48.5 68.5t57 80t56 77.5t43.5 60.5t21.5 30q9 12 21 22t32 14q2 1 8 1h18q14 0 14 -11.5t-2 -22.5zM792 713q19 12 41.5 24t46 23t47 20t45.5 15
q18 5 36.5 -3t28.5 -21t7.5 -25.5t-25.5 -16.5q-41 -8 -91.5 -20t-100.5 -27q-25 -8 -37.5 -6.5t-16 7t2 14t16.5 16.5z" />
    <glyph glyph-name="Ncaron" unicode="&#x147;" horiz-adv-x="778" 
d="M631 182l310 455q11 15 28 24.5t31 9.5h43q14 0 16.5 -10t-8.5 -24l-422 -605q-12 -14 -27 -23t-29 -9h-18q-14 0 -21 10t-2 24l79 425q-19 -27 -38 -53.5t-35 -49.5t-28.5 -41.5t-19.5 -28.5q-49 -74 -93 -128t-89 -89.5t-94 -53t-108 -17.5q-30 0 -52.5 10.5
t-36.5 27.5q-7 9 -6.5 19t8.5 9q6 -1 14.5 -5t20 -8.5t26 -8t31.5 -3.5q37 0 70 19t64 51t61.5 75t61.5 90q9 13 30.5 43.5t48.5 68.5t57 80t56 77.5t43.5 60.5t21.5 30q9 12 21 22t32 14q2 1 8 1h1h6h11q14 0 14 -11.5t-2 -22.5zM866 750q4 -10 7 -20.5t5 -21.5
q20 16 34.5 31.5t37.5 28.5q13 8 32.5 9.5t34.5 -2t21 -10.5t-6 -15l-24 -16t-19 -11.5t-25 -12.5t-41 -20q-39 -18 -73.5 -18.5t-47.5 30.5l-27 67q-3 8 9.5 9.5t29.5 -2t33 -10.5t19 -16z" />
    <glyph glyph-name="Ohungarumlaut" unicode="&#x150;" horiz-adv-x="523" 
d="M628 631q26 -33 25 -83.5t-20.5 -107.5t-52 -115.5t-69.5 -107.5q-60 -79 -128.5 -130.5t-133 -74t-119 -16t-86.5 44.5q-29 34 -33 86.5t14.5 114.5t59 128.5t100.5 127.5t126 104t126.5 62t111 12t79.5 -45zM483 269q40 56 68 112t40.5 103.5t8 83.5t-28.5 52t-64 8.5
t-87.5 -34t-96 -70t-88.5 -99.5q-40 -57 -64 -112t-32.5 -102t-1.5 -82t31 -51t61.5 -9t80.5 33t88 68.5t85 98.5zM427 731q32 32 75.5 64.5t84.5 52.5q17 9 36.5 4.5t31.5 -14.5t12.5 -22.5t-21.5 -21.5q-38 -17 -85.5 -38.5t-92.5 -47.5q-23 -12 -35.5 -13.5t-17 3.5
t-1 14.5t12.5 18.5zM595 731q32 32 75 64.5t84 52.5q17 9 37 4.5t32 -14.5t12.5 -22.5t-21.5 -21.5q-38 -17 -86 -38.5t-93 -47.5q-23 -12 -35.5 -13.5t-17 3.5t-1 14.5t13.5 18.5z" />
    <glyph glyph-name="Rcaron" unicode="&#x158;" horiz-adv-x="787" 
d="M712 673q98 -2 152 -27t71 -61t1 -78t-57.5 -80t-105.5 -66t-142 -36q-6 -35 -2 -77.5t13 -80.5t22 -64.5t26 -27.5q15 -2 40.5 16t53.5 45t55.5 57.5t47.5 55.5q14 16 23.5 20.5t14 0t3.5 -14.5t-9 -22q-7 -10 -23.5 -31t-39 -47t-50 -53.5t-55 -50.5t-54.5 -39t-49 -18
q-25 -2 -44.5 15t-35 45.5t-26 65t-16.5 73.5t-7 71.5t3 58.5h-7l-25 -37q-49 -74 -93 -128t-89 -89.5t-94 -53t-109 -17.5q-29 0 -51.5 10.5t-36.5 27.5q-8 9 -7 19t9 9q5 -1 14 -5t20.5 -8.5t26 -8t31.5 -3.5q37 0 70 19t64 51t61.5 75t61.5 90q8 13 25 36.5t37 52
t41.5 59t40 56t31.5 44t17 23.5q11 14 27 27t46 21q17 5 27.5 7t21.5 4q11 3 14.5 -8.5t-7.5 -25.5q-3 -3 -17.5 -23.5t-35.5 -50t-45.5 -64.5t-46.5 -67h45q64 0 110.5 20t75.5 50t40.5 65t5.5 65t-28.5 50t-62.5 20q-71 0 -113.5 -13t-73 -40t-57.5 -69t-66 -100
q-40 12 -54 36.5t-6 54t36.5 60t74 55.5t107 40.5t134.5 13.5zM777 770q4 -10 7 -20.5t5 -21.5q20 16 34.5 31.5t37.5 28.5q13 8 32.5 9.5t34.5 -2t21 -10.5t-6 -15l-24 -16t-19 -11.5t-25 -12.5t-41 -20q-39 -18 -73.5 -18.5t-47.5 30.5l-27 67q-3 8 9.5 9.5t29.5 -2
t33 -10.5t19 -16z" />
    <glyph glyph-name="Uring" unicode="&#x16e;" horiz-adv-x="488" 
d="M759 636q-2 -3 -26.5 -36.5t-60 -83.5t-77 -109t-79.5 -113.5t-67 -96.5t-39 -58q-18 -30 -20.5 -43t5.5 -15q10 -3 34 13t52.5 42.5t57.5 57t49 55.5q14 16 23.5 20.5t14 0t3.5 -14.5t-9 -22q-7 -10 -23 -30t-38.5 -44.5t-49.5 -51t-54.5 -49t-53.5 -38.5t-48 -20
q-28 -5 -44 2.5t-21.5 24t-1.5 39t17 48.5q-54 -48 -109.5 -81.5t-105.5 -33.5q-47 0 -64.5 22t-11 61t35.5 93t74 118q20 28 44.5 63.5t50 72t50 71.5t44.5 64t33.5 48t17.5 24q11 15 28.5 24.5t31.5 9.5h42q14 0 16.5 -10t-8.5 -24q-3 -3 -18 -24t-38 -53.5t-50.5 -71.5
t-55.5 -78t-52.5 -74.5t-41.5 -58.5q-32 -45 -56 -83t-36 -66t-11 -44t20 -16q30 0 71 25t85 64t86 86.5t75 92.5l5 6q35 51 71 101.5t65 92.5t49 69.5t23 31.5q12 15 29 24.5t31 9.5h28q14 0 16.5 -10t-8.5 -24zM545 771q11 17 28 31.5t36.5 24t40 14t38.5 2.5
q37 -4 46 -31t-14 -62q-11 -17 -28 -31t-36.5 -24t-39.5 -14.5t-38 -2.5q-38 5 -47.5 31.5t14.5 61.5zM612 789q-16 -12 -18 -27.5t5.5 -26t22 -13.5t30.5 9q17 15 18.5 30t-6.5 25t-22.5 12.5t-29.5 -9.5z" />
    <glyph glyph-name="Uhungarumlaut" unicode="&#x170;" horiz-adv-x="488" 
d="M759 636q-2 -3 -26.5 -36.5t-60 -83.5t-77 -109t-79.5 -113.5t-67 -96.5t-39 -58q-18 -30 -20.5 -43t5.5 -15q10 -3 34 13t52.5 42.5t57.5 57t49 55.5q14 16 23.5 20.5t14 0t3.5 -14.5t-9 -22q-7 -10 -23 -30t-38.5 -44.5t-49.5 -51t-54.5 -49t-53.5 -38.5t-48 -20
q-28 -5 -44 2.5t-21.5 24t-1.5 39t17 48.5q-54 -48 -109.5 -81.5t-105.5 -33.5q-47 0 -64.5 22t-11 61t35.5 93t74 118q20 28 44.5 63.5t50 72t50 71.5t44.5 64t33.5 48t17.5 24q11 15 28.5 24.5t31.5 9.5h42q14 0 16.5 -10t-8.5 -24q-3 -3 -18 -24t-38 -53.5t-50.5 -71.5
t-55.5 -78t-52.5 -74.5t-41.5 -58.5q-32 -45 -56 -83t-36 -66t-11 -44t20 -16q30 0 71 25t85 64t86 86.5t75 92.5l5 6q35 51 71 101.5t65 92.5t49 69.5t23 31.5q12 15 29 24.5t31 9.5h28q14 0 16.5 -10t-8.5 -24zM658 731q32 32 75 64.5t84 52.5q17 9 37 4.5t32 -14.5
t12.5 -22.5t-21.5 -21.5q-38 -17 -86 -38.5t-93 -47.5q-23 -12 -35.5 -13.5t-17 3.5t-1 14.5t13.5 18.5zM490 731q32 32 75.5 64.5t84.5 52.5q17 9 36.5 4.5t31.5 -14.5t12.5 -22.5t-21.5 -21.5q-38 -17 -85.5 -38.5t-92.5 -47.5q-23 -12 -35.5 -13.5t-17 3.5t-1 14.5
t12.5 18.5z" />
    <glyph glyph-name="uhungarumlaut" unicode="&#x171;" 
d="M246 319q-4 -5 -18.5 -24t-33 -45.5t-38.5 -55t-35 -52.5q-19 -30 -21 -43.5t6 -15.5q10 -3 33 12.5t51 41t56.5 55.5t49.5 55q18 26 33 45.5t20 26.5q12 15 29 24t31 9h28q14 0 16.5 -9.5t-8.5 -23.5q-4 -5 -18.5 -24t-33.5 -45.5t-39 -55t-34 -52.5q-19 -30 -21 -43.5
t5 -15.5q10 -3 34 13t52.5 42t57.5 56t49 55q13 16 22.5 20.5t14 0t3.5 -14.5t-8 -22q-7 -10 -23 -30t-38.5 -44t-49.5 -50t-54.5 -48t-53.5 -38.5t-48 -20.5q-24 -5 -39.5 1t-22.5 19t-6.5 31.5t8.5 40.5q-36 -34 -73 -60t-66 -32t-46.5 2t-23 25.5t1 43.5t25.5 57
q12 20 31.5 49.5t39.5 58t36.5 51.5t22.5 30q12 15 29 24t31 9h29q14 0 16 -9.5t-9 -23.5zM400 436q32 32 75 64.5t84 52.5q17 9 37 4.5t32 -14.5t12.5 -22.5t-21.5 -21.5q-38 -17 -86 -38.5t-93 -47.5q-23 -12 -35.5 -13.5t-17 3.5t-1 14.5t13.5 18.5zM232 436
q32 32 75.5 64.5t84.5 52.5q17 9 36.5 4.5t31.5 -14.5t12.5 -22.5t-21.5 -21.5q-38 -17 -85.5 -38.5t-92.5 -47.5q-23 -12 -35.5 -13.5t-17 3.5t-1 14.5t12.5 18.5z" />
    <glyph glyph-name="uring" unicode="&#x16f;" 
d="M246 319q-4 -5 -18.5 -24t-33 -45.5t-38.5 -55t-35 -52.5q-19 -30 -21 -43.5t6 -15.5q10 -3 33 12.5t51 41t56.5 55.5t49.5 55q18 26 33 45.5t20 26.5q12 15 29 24t31 9h28q14 0 16.5 -9.5t-8.5 -23.5q-4 -5 -18.5 -24t-33.5 -45.5t-39 -55t-34 -52.5q-19 -30 -21 -43.5
t5 -15.5q10 -3 34 13t52.5 42t57.5 56t49 55q13 16 22.5 20.5t14 0t3.5 -14.5t-8 -22q-7 -10 -23 -30t-38.5 -44t-49.5 -50t-54.5 -48t-53.5 -38.5t-48 -20.5q-24 -5 -39.5 1t-22.5 19t-6.5 31.5t8.5 40.5q-36 -34 -73 -60t-66 -32t-46.5 2t-23 25.5t1 43.5t25.5 57
q12 20 31.5 49.5t39.5 58t36.5 51.5t22.5 30q12 15 29 24t31 9h29q14 0 16 -9.5t-9 -23.5zM305 492q11 17 28 31.5t36.5 24t40 14t38.5 2.5q37 -4 46 -31t-14 -62q-11 -17 -28 -31t-36.5 -24t-39.5 -14.5t-38 -2.5q-38 5 -47.5 31.5t14.5 61.5zM372 510q-16 -12 -18 -27.5
t5.5 -26t22 -13.5t30.5 9q17 15 18.5 30t-6.5 25t-22.5 12.5t-29.5 -9.5z" />
    <glyph glyph-name="rcaron" unicode="&#x159;" horiz-adv-x="298" 
d="M398 249q11 10 21 13.5t16 1.5t5.5 -10t-10.5 -21q-37 -45 -79 -71t-78 -36.5t-61.5 -7.5t-28.5 16q-2 8 8.5 25t25.5 37.5t31.5 40.5t26.5 34q-16 -4 -38.5 -19.5t-45.5 -36t-44.5 -43.5t-35.5 -43t-26 -37.5t-21 -30.5q-11 -15 -19 -27q-12 -15 -29 -24.5t-31 -9.5h-29
q-14 0 -16 10t9 24l201 285q11 15 28 24t31 9h29q14 0 16.5 -9.5t-8.5 -23.5l-35 -47q31 27 61 45.5t54.5 28.5t42 11t24.5 -6q13 -14 1 -38.5t-33 -50.5t-42 -49t-25 -34q32 11 55.5 28t48.5 42zM333 505q4 -10 7 -20.5t5 -21.5q20 16 34.5 31.5t37.5 28.5q13 8 32.5 9.5
t34.5 -2t21 -10.5t-6 -15l-24 -16t-19 -11.5t-25 -12.5t-41 -20q-39 -18 -73.5 -18.5t-47.5 30.5l-27 67q-3 8 9.5 9.5t29.5 -2t33 -10.5t19 -16z" />
    <glyph glyph-name="ohungarumlaut" unicode="&#x151;" horiz-adv-x="337" 
d="M356 330q16 -18 18 -45.5t-10 -60.5t-36 -68t-59 -67q-34 -32 -70.5 -53.5t-69.5 -31t-61 -6.5t-44 21q-17 18 -18.5 45.5t10.5 60.5t35.5 68t58.5 67q34 33 70.5 54.5t70 31t61 6t44.5 -21.5zM255 154q19 25 32 49t19 45t4.5 36.5t-10.5 22.5q-10 7 -25.5 4t-34 -15
t-39 -31t-39.5 -44t-31.5 -49t-18.5 -44.5t-4.5 -36t10.5 -22.5q10 -7 25.5 -4t34 14.5t38.5 30.5t39 44zM192 468q32 32 75.5 64.5t84.5 52.5q17 9 36.5 4.5t31.5 -14.5t12.5 -22.5t-21.5 -21.5q-38 -17 -85.5 -38.5t-92.5 -47.5q-23 -12 -35.5 -13.5t-17 3.5t-1 14.5
t12.5 18.5zM360 468q32 32 75 64.5t84 52.5q17 9 37 4.5t32 -14.5t12.5 -22.5t-21.5 -21.5q-38 -17 -86 -38.5t-93 -47.5q-23 -12 -35.5 -13.5t-17 3.5t-1 14.5t13.5 18.5z" />
    <glyph glyph-name="ncaron" unicode="&#x148;" horiz-adv-x="387" 
d="M358 350q26 4 43 -2t18 -25.5t-17.5 -55t-63.5 -91.5q-23 -27 -33.5 -45t-14 -28.5t-1.5 -14.5t6 -5q10 -3 33.5 13t52 42t57.5 56t49 55q14 16 23.5 20.5t14 0t3.5 -14.5t-9 -22q-7 -10 -23.5 -30t-39 -44t-49 -50t-53.5 -48t-53.5 -38.5t-47.5 -20.5q-30 -6 -49 4
t-22.5 32.5t10 57.5t48.5 80q42 53 61.5 77.5t8.5 29.5q-9 5 -37.5 -14t-64.5 -50.5t-72.5 -70t-60.5 -72.5q-2 -4 -4 -5l-26 -37q-12 -15 -29 -24.5t-31 -9.5h-29q-14 0 -16 10t9 24l201 285q11 15 28 24t31 9h29q14 0 16.5 -9.5t-8.5 -23.5l-36 -51q38 32 75.5 54.5
t72.5 27.5zM345 510q4 -10 7 -20.5t5 -21.5q20 16 34.5 31.5t37.5 28.5q13 8 32.5 9.5t34.5 -2t21 -10.5t-6 -15l-24 -16t-19 -11.5t-25 -12.5t-41 -20q-39 -18 -73.5 -18.5t-47.5 30.5l-27 67q-3 8 9.5 9.5t29.5 -2t33 -10.5t19 -16z" />
    <glyph glyph-name="nacute" unicode="&#x144;" horiz-adv-x="387" 
d="M358 350q26 4 43 -2t18 -25.5t-17.5 -55t-63.5 -91.5q-23 -27 -33.5 -45t-14 -28.5t-1.5 -14.5t6 -5q10 -3 33.5 13t52 42t57.5 56t49 55q14 16 23.5 20.5t14 0t3.5 -14.5t-9 -22q-7 -10 -23.5 -30t-39 -44t-49 -50t-53.5 -48t-53.5 -38.5t-47.5 -20.5q-30 -6 -49 4
t-22.5 32.5t10 57.5t48.5 80q42 53 61.5 77.5t8.5 29.5q-9 5 -37.5 -14t-64.5 -50.5t-72.5 -70t-60.5 -72.5q-2 -4 -4 -5l-26 -37q-12 -15 -29 -24.5t-31 -9.5h-29q-14 0 -16 10t9 24l201 285q11 15 28 24t31 9h29q14 0 16.5 -9.5t-8.5 -23.5l-36 -51q38 32 75.5 54.5
t72.5 27.5zM304 483q19 12 41.5 24t46 23t47 20t45.5 15q18 5 36.5 -3t28.5 -21t7.5 -25.5t-25.5 -16.5q-41 -8 -91.5 -20t-100.5 -27q-25 -8 -37.5 -6.5t-16 7t2 14t16.5 16.5z" />
    <glyph glyph-name="dcroat" unicode="&#x111;" horiz-adv-x="406" 
d="M497 520q35 48 58 80.5t27 37.5q12 15 29 24.5t31 9.5h28q14 0 16.5 -10t-8.5 -24q-3 -3 -28.5 -38t-62.5 -88q19 -6 30.5 -14.5t15.5 -16.5t-1.5 -13.5t-21.5 -5.5h-59q-34 -48 -70 -99t-67 -95.5t-54 -78.5t-31 -47q-19 -30 -21 -43.5t6 -15.5q10 -3 33.5 13t52 42
t57.5 56t49 55q14 16 23.5 20.5t14 0t3.5 -14.5t-9 -22q-7 -10 -23 -30t-38.5 -44t-49.5 -50t-54 -48t-53.5 -38.5t-47.5 -20.5q-26 -5 -42 1.5t-22 21.5t-4 35.5t12 44.5q-18 -18 -39.5 -36.5t-44 -33.5t-45.5 -25t-44 -10q-28 0 -43.5 19t-12.5 51.5t27 76t75 93.5
q45 45 87 71t77.5 35.5t64 4.5t46.5 -21q23 33 46 66.5t46 65.5q-23 2 -39.5 11t-23.5 19.5t-3 19t21 8.5h86zM136 200q-24 -27 -36.5 -53.5t-12 -44t15 -20.5t45.5 17q24 15 54 43t57.5 59t50.5 58.5t34 42.5q-24 13 -52.5 7t-57 -23t-54.5 -40.5t-44 -45.5z" />
    <glyph glyph-name="dcaron" unicode="&#x10f;" horiz-adv-x="406" 
d="M89 240q45 45 87 71t77.5 35.5t64 4.5t46.5 -21q36 52 73.5 105t68.5 96.5t52 72.5t24 34q12 15 29 24.5t31 9.5h28q14 0 16.5 -10t-8.5 -24q-2 -3 -26.5 -36.5t-60 -83t-77.5 -109t-80 -113.5t-67 -96t-38 -58q-19 -30 -21 -43.5t6 -15.5q10 -3 33.5 13t52 42t57.5 56
t49 55q14 16 23.5 20.5t14 0t3.5 -14.5t-9 -22q-7 -10 -23 -30t-38.5 -44t-49.5 -50t-54 -48t-53.5 -38.5t-47.5 -20.5q-26 -5 -42 1.5t-22 21.5t-4 35.5t12 44.5q-18 -18 -39.5 -36.5t-44 -33.5t-45.5 -25t-44 -10q-28 0 -43.5 19t-12.5 51.5t27 76t75 93.5zM136 200
q-24 -27 -36.5 -53.5t-12 -44t15 -20.5t45.5 17q24 15 54 43t57.5 59t50.5 58.5t34 42.5q-24 13 -52.5 7t-57 -23t-54.5 -40.5t-44 -45.5zM638 490q30 39 48 76t35 71q11 22 31 28.5t35.5 0.5t19.5 -22.5t-16 -40.5q-25 -29 -51 -57t-61 -61q-17 -16 -28 -21t-16.5 -3t-5 10
t8.5 19z" />
    <glyph glyph-name="ecaron" unicode="&#x11b;" horiz-adv-x="329" 
d="M366 256q-15 -22 -40.5 -42t-58.5 -36t-72 -27t-80 -14q-6 -25 -1 -43.5t25 -23.5q20 -6 55 8t76 40t83 60.5t76 70.5q13 15 23.5 18t15.5 -0.5t3.5 -13t-10.5 -20.5q-32 -36 -77 -77t-93 -75.5t-94 -57.5t-82 -23q-52 0 -74 26t-19.5 65.5t26.5 85t63 85t90.5 65.5
t109.5 26q23 0 40 -7.5t25.5 -20t6.5 -30.5t-17 -39zM325 505q4 -10 7 -20.5t5 -21.5q20 16 34.5 31.5t37.5 28.5q13 8 32.5 9.5t34.5 -2t21 -10.5t-6 -15l-24 -16t-19 -11.5t-25 -12.5t-41 -20q-39 -18 -73.5 -18.5t-47.5 30.5l-27 67q-3 8 9.5 9.5t29.5 -2t33 -10.5
t19 -16zM246 304q-17 -6 -34 -18.5t-32.5 -30t-28.5 -37.5t-22 -40q45 5 78 18.5t54 30t30.5 34t8 29.5t-15 17t-38.5 -3z" />
    <glyph glyph-name="eogonek" unicode="&#x119;" horiz-adv-x="329" 
d="M238 44q-20 -14 -44 -30.5t-43 -35t-28.5 -38.5t1.5 -41q8 -17 24.5 -19t34.5 0q24 3 24 -10t-31 -26q-12 -6 -28 -10.5t-32.5 -4.5t-31.5 5t-25 19q-7 10 -9 25.5t4 34.5t21.5 41.5t43.5 45.5h-4q-52 0 -74 26t-19.5 65.5t26.5 85t63 85t90.5 65.5t109.5 26
q23 0 40 -7.5t25.5 -20t6.5 -30.5t-17 -39q-15 -22 -40.5 -42t-58.5 -36t-72 -27t-80 -14q-6 -25 -1 -43.5t25 -23.5q20 -6 55 8t76 40t83 60.5t76 70.5q13 15 23.5 18t15.5 -0.5t3.5 -13t-10.5 -20.5q-32 -36 -76 -76t-91.5 -74.5t-93 -58t-81.5 -24.5q34 30 97 62
q11 6 23.5 9t18.5 1.5t3 -8.5t-23 -20zM246 304q-17 -6 -34 -18.5t-32.5 -30t-28.5 -37.5t-22 -40q45 5 78 18.5t54 30t30.5 34t8 29.5t-15 17t-38.5 -3z" />
    <glyph glyph-name="ccaron" unicode="&#x10d;" horiz-adv-x="308" 
d="M287 248q-11 -4 -24 -5t-23.5 1t-14.5 7t3 14q8 11 16.5 21.5t1.5 17.5q-22 -7 -43.5 -26t-39.5 -43t-31 -51t-18 -50.5t0.5 -41t23.5 -22.5q20 -6 52 8t69.5 40t76 60.5t72.5 70.5q14 15 24.5 18t15.5 -0.5t3.5 -13t-11.5 -20.5q-32 -36 -73.5 -77t-85.5 -75.5
t-87.5 -57.5t-78.5 -23q-53 0 -75 26t-19.5 65.5t26.5 85t63.5 85t90.5 65.5t109 26q28 0 44 -9.5t2 -36.5q-9 -16 -27.5 -33.5t-41.5 -25.5zM330 505q4 -10 7 -20.5t5 -21.5q20 16 34.5 31.5t37.5 28.5q13 8 32.5 9.5t34.5 -2t21 -10.5t-6 -15l-24 -16t-19 -11.5t-25 -12.5
t-41 -20q-39 -18 -73.5 -18.5t-47.5 30.5l-27 67q-3 8 9.5 9.5t29.5 -2t33 -10.5t19 -16z" />
    <glyph glyph-name="cacute" unicode="&#x107;" horiz-adv-x="308" 
d="M287 248q-11 -4 -24 -5t-23.5 1t-14.5 7t3 14q8 11 16.5 21.5t1.5 17.5q-22 -7 -43.5 -26t-39.5 -43t-31 -51t-18 -50.5t0.5 -41t23.5 -22.5q20 -6 52 8t69.5 40t76 60.5t72.5 70.5q14 15 24.5 18t15.5 -0.5t3.5 -13t-11.5 -20.5q-32 -36 -73.5 -77t-85.5 -75.5
t-87.5 -57.5t-78.5 -23q-53 0 -75 26t-19.5 65.5t26.5 85t63.5 85t90.5 65.5t109 26q28 0 44 -9.5t2 -36.5q-9 -16 -27.5 -33.5t-41.5 -25.5zM248 486q19 12 41.5 24t46 23t47 20t45.5 15q18 5 36.5 -3t28.5 -21t7.5 -25.5t-25.5 -16.5q-41 -8 -91.5 -20t-100.5 -27
q-25 -8 -37.5 -6.5t-16 7t2 14t16.5 16.5z" />
    <glyph glyph-name="lacute" unicode="&#x13a;" horiz-adv-x="199" 
d="M470 638q-2 -3 -26 -36.5t-59.5 -83t-77.5 -109t-80 -113.5t-67 -96t-38 -58q-19 -30 -21.5 -43.5t5.5 -15.5q10 -3 34 13t52.5 42t57.5 56t49 55q13 16 22.5 20.5t14 0t3.5 -14.5t-8 -22q-7 -10 -23.5 -30t-39 -44t-49 -50t-54 -48t-53.5 -38.5t-48 -20.5
q-29 -6 -45.5 3t-21 28t2 44.5t21.5 52.5q6 10 23.5 36.5t42.5 63t55 80t61 87.5t60.5 86t53 75t39 54.5t18.5 25.5q12 15 29 24.5t31 9.5h29q14 0 16 -10t-9 -24zM413 729q19 12 41.5 24t46 23t47 20t45.5 15q18 5 36.5 -3t28.5 -21t7.5 -25.5t-25.5 -16.5
q-41 -8 -91.5 -20t-100.5 -27q-25 -8 -37.5 -6.5t-16 7t2 14t16.5 16.5z" />
    <glyph glyph-name="abreve" unicode="&#x103;" horiz-adv-x="405" 
d="M89 240q46 45 88 71t78 35.5t64 4t46 -21.5q11 11 25 17t26 6h29q14 0 16.5 -9.5t-8.5 -23.5q-4 -5 -19 -24t-33.5 -45.5t-38.5 -55t-34 -52.5q-19 -30 -21.5 -43.5t5.5 -15.5q10 -3 33.5 13t52 42t57.5 56t50 55q13 16 22.5 20.5t14 0t3.5 -14.5t-9 -22q-7 -10 -23 -30
t-38.5 -44t-49.5 -50t-54.5 -48t-53.5 -38.5t-48 -20.5q-25 -5 -40.5 1.5t-22 20.5t-5 34t10.5 43q-18 -17 -39 -35t-43 -32.5t-44.5 -24t-42.5 -9.5q-28 0 -43 19t-12 51.5t27 76t74 93.5zM137 200q-24 -27 -36.5 -53.5t-12 -44t15 -20.5t45.5 17q22 13 48 37.5t51.5 52
t48 54.5t36.5 45l11 14q-23 13 -51.5 7t-57 -23t-54.5 -40.5t-44 -45.5zM440 517q8 10 21.5 15t24 3.5t13 -11t-10.5 -28.5q-12 -17 -29.5 -31t-36.5 -23.5t-39 -14.5t-38 -3q-37 5 -47.5 32.5t15.5 60.5q12 15 24.5 20.5t22 5.5t14 -5t-0.5 -12q-15 -20 -16.5 -34.5
t4.5 -22t17.5 -7.5t24.5 10q8 6 19 21.5t18 23.5z" />
    <glyph glyph-name="racute" unicode="&#x155;" horiz-adv-x="298" 
d="M398 249q11 10 21 13.5t16 1.5t5.5 -10t-10.5 -21q-37 -45 -79 -71t-78 -36.5t-61.5 -7.5t-28.5 16q-2 8 8.5 25t25.5 37.5t31.5 40.5t26.5 34q-16 -4 -38.5 -19.5t-45.5 -36t-44.5 -43.5t-35.5 -43t-26 -37.5t-21 -30.5q-11 -15 -19 -27q-12 -15 -29 -24.5t-31 -9.5h-29
q-14 0 -16 10t9 24l201 285q11 15 28 24t31 9h29q14 0 16.5 -9.5t-8.5 -23.5l-35 -47q31 27 61 45.5t54.5 28.5t42 11t24.5 -6q13 -14 1 -38.5t-33 -50.5t-42 -49t-25 -34q32 11 55.5 28t48.5 42zM266 486q19 12 41.5 24t46 23t47 20t45.5 15q18 5 36.5 -3t28.5 -21
t7.5 -25.5t-25.5 -16.5q-41 -8 -91.5 -20t-100.5 -27q-25 -8 -37.5 -6.5t-16 7t2 14t16.5 16.5z" />
    <glyph glyph-name="uni0162.001" horiz-adv-x="833" 
 />
    <glyph glyph-name="uni0162" unicode="&#x162;" horiz-adv-x="542" 
d="M326 326q-53 0 -86 25.5t-44.5 64t0 83.5t47.5 83.5t97.5 64t151.5 25.5h546q23 0 23.5 -15t-12 -32.5t-34 -32.5t-42.5 -15q-11 0 -32 2.5t-49 7t-61.5 10t-70.5 11.5q-12 -17 -31 -43.5t-41.5 -57.5t-46 -64.5t-45 -64t-38.5 -55t-26 -37.5q-49 -74 -93 -128t-89 -89.5
t-94 -53t-108 -17.5t-89 38q-7 9 -6.5 18.5t8.5 9.5q6 -1 14.5 -5t20.5 -8.5t26.5 -8t31.5 -3.5q37 0 70 19t64 51t61 75t62 90q8 12 28 40.5t45.5 64.5t54 75.5t53 74t43 60t24.5 33.5q-46 6 -89.5 10t-79.5 4q-64 0 -105.5 -18.5t-64 -46.5t-26 -61t9 -61t39 -46.5
t65.5 -18.5q25 0 26.5 -9t-13 -20t-40.5 -20t-55 -9zM26 -186q42 26 63.5 56.5t37.5 64.5q11 22 30 29t34 1t19.5 -22.5t-12.5 -41.5q-23 -31 -56 -59.5t-78 -46.5q-21 -9 -34 -9.5t-17.5 3.5t-1 11t14.5 14z" />
    <glyph glyph-name="uni0163" unicode="&#x163;" horiz-adv-x="197" 
d="M106 522q24 0 75 0.5t115 1.5l43 58q11 14 28 23.5t31 9.5h29q14 0 16.5 -9.5t-8.5 -23.5q-2 -2 -13.5 -17.5t-28.5 -38.5q50 0 99 0.5t90.5 1t72 1t44.5 0.5q25 1 47.5 -9t34.5 -22.5t9 -23.5t-28 -11q-15 0 -58.5 -2t-103 -5t-129 -6t-138.5 -6q-31 -43 -65 -90
t-64 -89.5t-52.5 -75.5t-31.5 -47q-18 -30 -20 -43.5t5 -15.5q10 -3 33.5 13t52 42t57.5 56t49 55q14 16 24 20.5t14.5 0t3 -14.5t-8.5 -22q-7 -10 -23.5 -30t-39 -44t-49 -50t-54 -48t-53.5 -38.5t-48 -20.5q-30 -6 -46 3t-20.5 28t1.5 44.5t21 52.5q7 12 29.5 45.5
t53.5 77t66 93t67 94.5q-68 -3 -118.5 -5t-66.5 -2q-26 -1 -29 13t8 30.5t32.5 31t44.5 14.5zM-128 -186q42 26 63.5 56.5t37.5 64.5q11 22 30 29t34 1t19.5 -22.5t-12.5 -41.5q-23 -31 -56 -59.5t-78 -46.5q-21 -9 -34 -9.5t-17.5 3.5t-1 11t14.5 14z" />
    <glyph glyph-name="scircumflex" unicode="&#x15d;" horiz-adv-x="284" 
d="M122 282q25 32 69 50t102 18q28 0 44 -9t1 -36q-9 -16 -27.5 -34t-41.5 -26q-11 -3 -24 -4.5t-23 0.5t-14 7t3 14q4 5 10 11.5t11 13.5t7.5 12.5t-0.5 9.5q-14 2 -34 -7t-31 -26q-10 -15 -3.5 -26.5t20.5 -21.5t31.5 -21.5t29.5 -26.5t14.5 -36t-13.5 -51
q-13 -24 -34 -42.5t-46 -30t-53.5 -16t-56.5 -2.5q-40 3 -57.5 22t-18 41.5t12 43.5t31.5 30q10 5 25.5 5t27.5 -3t18 -9t-3 -14q-7 -7 -16 -17.5t-14.5 -22t-5.5 -21t11 -13.5q11 -5 26 -4t30 7.5t28 18t20 29.5t-1 31t-21.5 24.5t-29 23t-24 26t-5.5 34.5t25 48zM333 456
q-4 10 -7 20.5t-5 21.5q-20 -16 -35 -31.5t-37 -28.5q-14 -8 -33 -9t-34 2t-21.5 10t5.5 15q15 10 24.5 16t19.5 11.5t24.5 12.5t41.5 20q39 18 73.5 18.5t47.5 -30.5l27 -66q3 -8 -9.5 -9.5t-30 1.5t-33 10t-18.5 16z" />
    <glyph glyph-name="ubreve" unicode="&#x16d;" 
d="M246 319q-4 -5 -18.5 -24t-33 -45.5t-38.5 -55t-35 -52.5q-19 -30 -21 -43.5t6 -15.5q10 -3 33 12.5t51 41t56.5 55.5t49.5 55q18 26 33 45.5t20 26.5q12 15 29 24t31 9h28q14 0 16.5 -9.5t-8.5 -23.5q-4 -5 -18.5 -24t-33.5 -45.5t-39 -55t-34 -52.5q-19 -30 -21 -43.5
t5 -15.5q10 -3 34 13t52.5 42t57.5 56t49 55q13 16 22.5 20.5t14 0t3.5 -14.5t-8 -22q-7 -10 -23 -30t-38.5 -44t-49.5 -50t-54.5 -48t-53.5 -38.5t-48 -20.5q-24 -5 -39.5 1t-22.5 19t-6.5 31.5t8.5 40.5q-36 -34 -73 -60t-66 -32t-46.5 2t-23 25.5t1 43.5t25.5 57
q12 20 31.5 49.5t39.5 58t36.5 51.5t22.5 30q12 15 29 24t31 9h29q14 0 16 -9.5t-9 -23.5zM432 517q8 10 21.5 15t24 3.5t13 -11t-10.5 -28.5q-12 -17 -29.5 -31t-36.5 -23.5t-39 -14.5t-38 -3q-37 5 -47.5 32.5t15.5 60.5q12 15 24.5 20.5t22 5.5t14 -5t-0.5 -12
q-15 -20 -16.5 -34.5t4.5 -22t17.5 -7.5t24.5 10q8 6 19 21.5t18 23.5z" />
    <glyph glyph-name="gcircumflex" unicode="&#x11d;" horiz-adv-x="365" 
d="M89 240q46 45 88 71t78 35.5t64 4t46 -21.5q11 11 25 17t26 6h29q14 0 16.5 -9.5t-8.5 -23.5q-3 -3 -19.5 -25.5t-43.5 -60.5t-62.5 -89.5t-76 -111.5t-83.5 -126.5t-86 -135.5q-8 -14 -21.5 -11t-24.5 15t-15.5 30.5t4.5 36.5q5 11 25 40t48.5 68t63 83t67.5 85
q-18 -18 -40.5 -38.5t-47.5 -38t-50 -29t-48 -11.5q-28 0 -43 19t-12 51.5t27 76t74 93.5zM137 200q-24 -27 -36.5 -53.5t-12 -44t15 -20.5t45.5 17q24 15 54 43t57.5 59t50 58.5t33.5 42.5q-23 13 -51.5 7t-57 -23t-54.5 -40.5t-44 -45.5zM402 456q-4 10 -7 20.5t-5 21.5
q-20 -16 -35 -31.5t-37 -28.5q-14 -8 -33 -9t-34 2t-21.5 10t5.5 15q15 10 24.5 16t19.5 11.5t24.5 12.5t41.5 20q39 18 73.5 18.5t47.5 -30.5l27 -66q3 -8 -9.5 -9.5t-30 1.5t-33 10t-18.5 16z" />
    <glyph glyph-name="gdotaccent" unicode="&#x121;" horiz-adv-x="365" 
d="M89 240q46 45 88 71t78 35.5t64 4t46 -21.5q11 11 25 17t26 6h29q14 0 16.5 -9.5t-8.5 -23.5q-3 -3 -19.5 -25.5t-43.5 -60.5t-62.5 -89.5t-76 -111.5t-83.5 -126.5t-86 -135.5q-8 -14 -21.5 -11t-24.5 15t-15.5 30.5t4.5 36.5q5 11 25 40t48.5 68t63 83t67.5 85
q-18 -18 -40.5 -38.5t-47.5 -38t-50 -29t-48 -11.5q-28 0 -43 19t-12 51.5t27 76t74 93.5zM137 200q-24 -27 -36.5 -53.5t-12 -44t15 -20.5t45.5 17q24 15 54 43t57.5 59t50 58.5t33.5 42.5q-23 13 -51.5 7t-57 -23t-54.5 -40.5t-44 -45.5zM421 489q0 -20 -13 -33t-33 -13
q-19 0 -32 13t-13 33q0 19 13 32t32 13q20 0 33 -13t13 -32z" />
    <glyph glyph-name="ccircumflex" unicode="&#x109;" horiz-adv-x="308" 
d="M287 248q-11 -4 -24 -5t-23.5 1t-14.5 7t3 14q8 11 16.5 21.5t1.5 17.5q-22 -7 -43.5 -26t-39.5 -43t-31 -51t-18 -50.5t0.5 -41t23.5 -22.5q20 -6 52 8t69.5 40t76 60.5t72.5 70.5q14 15 24.5 18t15.5 -0.5t3.5 -13t-11.5 -20.5q-32 -36 -73.5 -77t-85.5 -75.5
t-87.5 -57.5t-78.5 -23q-53 0 -75 26t-19.5 65.5t26.5 85t63.5 85t90.5 65.5t109 26q28 0 44 -9.5t2 -36.5q-9 -16 -27.5 -33.5t-41.5 -25.5zM370 456q-4 10 -7 20.5t-5 21.5q-20 -16 -35 -31.5t-37 -28.5q-14 -8 -33 -9t-34 2t-21.5 10t5.5 15q15 10 24.5 16t19.5 11.5
t24.5 12.5t41.5 20q39 18 73.5 18.5t47.5 -30.5l27 -66q3 -8 -9.5 -9.5t-30 1.5t-33 10t-18.5 16z" />
    <glyph glyph-name="cdotaccent" unicode="&#x10b;" horiz-adv-x="308" 
d="M287 248q-11 -4 -24 -5t-23.5 1t-14.5 7t3 14q8 11 16.5 21.5t1.5 17.5q-22 -7 -43.5 -26t-39.5 -43t-31 -51t-18 -50.5t0.5 -41t23.5 -22.5q20 -6 52 8t69.5 40t76 60.5t72.5 70.5q14 15 24.5 18t15.5 -0.5t3.5 -13t-11.5 -20.5q-32 -36 -73.5 -77t-85.5 -75.5
t-87.5 -57.5t-78.5 -23q-53 0 -75 26t-19.5 65.5t26.5 85t63.5 85t90.5 65.5t109 26q28 0 44 -9.5t2 -36.5q-9 -16 -27.5 -33.5t-41.5 -25.5zM388 489q0 -20 -13 -33t-33 -13q-19 0 -32 13t-13 33q0 19 13 32t32 13q20 0 33 -13t13 -32z" />
    <glyph glyph-name="Scircumflex" unicode="&#x15c;" horiz-adv-x="469" 
d="M322 554q46 60 117 88.5t180 28.5q28 0 44 -9t2 -36q-9 -16 -28 -34t-42 -26q-11 -3 -24 -4.5t-23 0.5t-14 7.5t3 14.5q4 5 10.5 11.5t11.5 13t7.5 12t-1.5 8.5q-28 5 -54 1.5t-49 -14t-41.5 -27t-30.5 -35.5q-16 -25 -14 -55.5t12.5 -65t24 -73t19.5 -79t-1 -83.5
t-36 -87q-49 -72 -112.5 -96t-137.5 -18q-35 3 -61.5 19.5t-43.5 40t-24.5 52t-5 55.5t15.5 49t37 33q15 7 33 7.5t32 -3t20 -10.5t-3 -15q-21 -20 -30.5 -46.5t-7.5 -52.5t16 -48.5t40 -32.5q17 -7 36 -8.5t37.5 3.5t36.5 19t33 38q21 34 22 70.5t-7.5 74t-21 76.5
t-17.5 78t2 78.5t38 79.5zM618 728q-4 10 -7 20.5t-5 21.5q-20 -16 -35 -31.5t-37 -28.5q-14 -8 -33 -9t-34 2t-21.5 10t5.5 15q15 10 24.5 16t19.5 11.5t24.5 12.5t41.5 20q39 18 73.5 18.5t47.5 -30.5l27 -66q3 -8 -9.5 -9.5t-30 1.5t-33 10t-18.5 16z" />
    <glyph glyph-name="Ubreve" unicode="&#x16c;" horiz-adv-x="488" 
d="M759 636q-2 -3 -26.5 -36.5t-60 -83.5t-77 -109t-79.5 -113.5t-67 -96.5t-39 -58q-18 -30 -20.5 -43t5.5 -15q10 -3 34 13t52.5 42.5t57.5 57t49 55.5q14 16 23.5 20.5t14 0t3.5 -14.5t-9 -22q-7 -10 -23 -30t-38.5 -44.5t-49.5 -51t-54.5 -49t-53.5 -38.5t-48 -20
q-28 -5 -44 2.5t-21.5 24t-1.5 39t17 48.5q-54 -48 -109.5 -81.5t-105.5 -33.5q-47 0 -64.5 22t-11 61t35.5 93t74 118q20 28 44.5 63.5t50 72t50 71.5t44.5 64t33.5 48t17.5 24q11 15 28.5 24.5t31.5 9.5h42q14 0 16.5 -10t-8.5 -24q-3 -3 -18 -24t-38 -53.5t-50.5 -71.5
t-55.5 -78t-52.5 -74.5t-41.5 -58.5q-32 -45 -56 -83t-36 -66t-11 -44t20 -16q30 0 71 25t85 64t86 86.5t75 92.5l5 6q35 51 71 101.5t65 92.5t49 69.5t23 31.5q12 15 29 24.5t31 9.5h28q14 0 16.5 -10t-8.5 -24zM670 781q8 10 21.5 15t24 3.5t13 -11t-10.5 -28.5
q-12 -17 -29.5 -31t-36.5 -23.5t-39 -14.5t-38 -3q-37 5 -47.5 32.5t15.5 60.5q12 15 24.5 20.5t22 5.5t14 -5t-0.5 -12q-15 -20 -16.5 -34.5t4.5 -22t17.5 -7.5t24.5 10q8 6 19 21.5t18 23.5z" />
    <glyph glyph-name="Gcircumflex" unicode="&#x11c;" horiz-adv-x="458" 
d="M409 318q-15 0 -22.5 5t-7.5 11.5t8.5 11.5t25.5 5h84q14 0 16 -9.5t-9 -23.5q-4 -5 -18.5 -24t-33 -45.5t-38.5 -55t-35 -52.5q-19 -31 -21 -44t6 -16q10 -3 33.5 13.5t52.5 42.5t58 56.5t50 55.5q13 16 22.5 20.5t14 0t3.5 -14.5t-9 -22q-7 -10 -23.5 -30t-39 -44.5
t-49 -50.5t-54 -48.5t-54 -38.5t-48.5 -20q-35 -7 -51 6t-17 38q-25 -23 -51 -35t-55 -9q-58 5 -90.5 37t-42 80t3 108t44 121.5t81.5 120t115.5 104t145 73t170.5 27.5q14 0 26 -2t18.5 -7t7.5 -14t-7 -22q-8 -16 -26.5 -34t-41.5 -26q-11 -3 -24 -4.5t-23 0.5t-14.5 7
t3.5 14q4 6 8.5 11.5t7.5 10.5t4 9.5t-3 7.5q-71 -14 -132.5 -56t-109 -98.5t-80 -120t-45.5 -119.5t-5 -98.5t40 -55.5q26 -11 54 11.5t59 64.5q14 22 32 48.5t35 50t31 42t20 26.5zM580 733q-4 10 -7 20.5t-5 21.5q-20 -16 -35 -31.5t-37 -28.5q-14 -8 -33 -9t-34 2
t-21.5 10t5.5 15q15 10 24.5 16t19.5 11.5t24.5 12.5t41.5 20q39 18 73.5 18.5t47.5 -30.5l27 -66q3 -8 -9.5 -9.5t-30 1.5t-33 10t-18.5 16z" />
    <glyph glyph-name="Gdotaccent" unicode="&#x120;" horiz-adv-x="458" 
d="M409 318q-15 0 -22.5 5t-7.5 11.5t8.5 11.5t25.5 5h84q14 0 16 -9.5t-9 -23.5q-4 -5 -18.5 -24t-33 -45.5t-38.5 -55t-35 -52.5q-19 -31 -21 -44t6 -16q10 -3 33.5 13.5t52.5 42.5t58 56.5t50 55.5q13 16 22.5 20.5t14 0t3.5 -14.5t-9 -22q-7 -10 -23.5 -30t-39 -44.5
t-49 -50.5t-54 -48.5t-54 -38.5t-48.5 -20q-35 -7 -51 6t-17 38q-25 -23 -51 -35t-55 -9q-58 5 -90.5 37t-42 80t3 108t44 121.5t81.5 120t115.5 104t145 73t170.5 27.5q14 0 26 -2t18.5 -7t7.5 -14t-7 -22q-8 -16 -26.5 -34t-41.5 -26q-11 -3 -24 -4.5t-23 0.5t-14.5 7
t3.5 14q4 6 8.5 11.5t7.5 10.5t4 9.5t-3 7.5q-71 -14 -132.5 -56t-109 -98.5t-80 -120t-45.5 -119.5t-5 -98.5t40 -55.5q26 -11 54 11.5t59 64.5q14 22 32 48.5t35 50t31 42t20 26.5zM573 748q0 -20 -13 -33t-33 -13q-19 0 -32 13t-13 33q0 19 13 32t32 13q20 0 33 -13
t13 -32z" />
    <glyph glyph-name="Ccircumflex" unicode="&#x108;" horiz-adv-x="416" 
d="M551 567q-11 -3 -24 -4.5t-23 0.5t-14.5 7t3.5 14q4 6 8.5 11.5t7.5 10.5t4 9.5t-3 7.5q-74 -14 -136.5 -58.5t-110.5 -103t-79 -123.5t-42 -122t1 -97.5t50 -48.5q45 -11 91 4.5t88 44.5t79 64.5t65 65.5q14 15 24.5 18t15.5 -0.5t3.5 -13t-11.5 -20.5q-32 -36 -70 -77
t-84.5 -75.5t-102 -57.5t-121.5 -23q-65 0 -102 29t-50 76t-3 107.5t41 123.5t81 123.5t116 107.5t147 76t174 29q14 0 26 -2t19 -7t7.5 -14t-6.5 -22q-9 -16 -27.5 -34t-41.5 -26zM563 743q-4 10 -7 20.5t-5 21.5q-20 -16 -35 -31.5t-37 -28.5q-14 -8 -33 -9t-34 2
t-21.5 10t5.5 15q15 10 24.5 16t19.5 11.5t24.5 12.5t41.5 20q39 18 73.5 18.5t47.5 -30.5l27 -66q3 -8 -9.5 -9.5t-30 1.5t-33 10t-18.5 16z" />
    <glyph glyph-name="Cdotaccent" unicode="&#x10a;" horiz-adv-x="416" 
d="M551 567q-11 -3 -24 -4.5t-23 0.5t-14.5 7t3.5 14q4 6 8.5 11.5t7.5 10.5t4 9.5t-3 7.5q-74 -14 -136.5 -58.5t-110.5 -103t-79 -123.5t-42 -122t1 -97.5t50 -48.5q45 -11 91 4.5t88 44.5t79 64.5t65 65.5q14 15 24.5 18t15.5 -0.5t3.5 -13t-11.5 -20.5q-32 -36 -70 -77
t-84.5 -75.5t-102 -57.5t-121.5 -23q-65 0 -102 29t-50 76t-3 107.5t41 123.5t81 123.5t116 107.5t147 76t174 29q14 0 26 -2t19 -7t7.5 -14t-6.5 -22q-9 -16 -27.5 -34t-41.5 -26zM590 756q0 -20 -13 -33t-33 -13q-19 0 -32 13t-13 33q0 19 13 32t32 13q20 0 33 -13t13 -32
z" />
    <glyph glyph-name="jcircumflex" unicode="&#x135;" horiz-adv-x="160" 
d="M-125 -230q-8 -14 -21.5 -11t-24.5 15t-15.5 30.5t4.5 36.5q4 8 29.5 46t62 90.5t78 112t77.5 110t60 84t25 35.5q12 15 28.5 24t30.5 9h29q14 0 16.5 -9.5t-8.5 -23.5q-3 -3 -19.5 -25.5t-43.5 -60.5t-62.5 -89.5t-75.5 -111.5t-83.5 -126.5t-86.5 -135.5zM297 456
q-4 10 -7 20.5t-5 21.5q-20 -16 -35 -31.5t-37 -28.5q-14 -8 -33 -9t-34 2t-21.5 10t5.5 15q15 10 24.5 16t19.5 11.5t24.5 12.5t41.5 20q39 18 73.5 18.5t47.5 -30.5l27 -66q3 -8 -9.5 -9.5t-30 1.5t-33 10t-18.5 16z" />
    <glyph glyph-name="gbreve" unicode="&#x11f;" horiz-adv-x="365" 
d="M89 240q46 45 88 71t78 35.5t64 4t46 -21.5q11 11 25 17t26 6h29q14 0 16.5 -9.5t-8.5 -23.5q-3 -3 -19.5 -25.5t-43.5 -60.5t-62.5 -89.5t-76 -111.5t-83.5 -126.5t-86 -135.5q-8 -14 -21.5 -11t-24.5 15t-15.5 30.5t4.5 36.5q5 11 25 40t48.5 68t63 83t67.5 85
q-18 -18 -40.5 -38.5t-47.5 -38t-50 -29t-48 -11.5q-28 0 -43 19t-12 51.5t27 76t74 93.5zM137 200q-24 -27 -36.5 -53.5t-12 -44t15 -20.5t45.5 17q24 15 54 43t57.5 59t50 58.5t33.5 42.5q-23 13 -51.5 7t-57 -23t-54.5 -40.5t-44 -45.5zM441 517q8 10 21.5 15t24 3.5
t13 -11t-10.5 -28.5q-12 -17 -29.5 -31t-36.5 -23.5t-39 -14.5t-38 -3q-37 5 -47.5 32.5t15.5 60.5q12 15 24.5 20.5t22 5.5t14 -5t-0.5 -12q-15 -20 -16.5 -34.5t4.5 -22t17.5 -7.5t24.5 10q8 6 19 21.5t18 23.5z" />
    <glyph glyph-name="hcircumflex" unicode="&#x125;" horiz-adv-x="386" 
d="M357 350q26 4 43 -2t18 -25.5t-17.5 -55t-63.5 -91.5q-23 -27 -34 -45t-14.5 -28.5t-1.5 -14.5t6 -5q10 -3 33.5 13t52 42t57.5 56t50 55q13 16 22.5 20.5t14 0t3.5 -14.5t-9 -22q-7 -10 -23 -30t-38.5 -44t-49.5 -50t-54 -48t-53.5 -38.5t-47.5 -20.5q-29 -6 -48 4
t-23 32.5t9.5 57.5t49.5 80q41 53 61 77.5t9 29.5q-9 4 -34.5 -12t-57.5 -43.5t-66.5 -62.5t-61.5 -68l-44 -63q-12 -15 -29 -24.5t-31 -9.5h-29q-14 0 -16 10t9 24l422 604q11 15 28 24.5t31 9.5h29q14 0 16.5 -10t-8.5 -24l-259 -370q38 32 76 54.5t73 27.5zM586 720
q-4 10 -7 20.5t-5 21.5q-20 -16 -35 -31.5t-37 -28.5q-14 -8 -33 -9t-34 2t-21.5 10t5.5 15q15 10 24.5 16t19.5 11.5t24.5 12.5t41.5 20q39 18 73.5 18.5t47.5 -30.5l27 -66q3 -8 -9.5 -9.5t-30 1.5t-33 10t-18.5 16z" />
    <glyph glyph-name="hbar" unicode="&#x127;" horiz-adv-x="386" 
d="M302 540l69 98q11 15 28 24.5t31 9.5h29q14 0 16.5 -10t-8.5 -24l-69 -99q28 -3 48 -12t28 -19t4 -18t-23 -8h-97l-150 -214q38 32 76 54.5t73 27.5q26 4 43 -2t18 -25.5t-17.5 -55t-63.5 -91.5q-23 -27 -34 -45t-14.5 -28.5t-1.5 -14.5t6 -5q10 -3 33.5 13t52 42
t57.5 56t50 55q13 16 22.5 20.5t14 0t3.5 -14.5t-9 -22q-7 -10 -23 -30t-38.5 -44t-49.5 -50t-54 -48t-53.5 -38.5t-47.5 -20.5q-29 -6 -48 4t-23 32.5t9.5 57.5t49.5 80q41 53 61 77.5t9 29.5q-9 4 -34.5 -12t-57.5 -43.5t-66.5 -62.5t-61.5 -68l-44 -63q-12 -15 -29 -24.5
t-31 -9.5h-29q-14 0 -16 10t9 24l319 456q-14 6 -23 14.5t-11 16.5t3 13.5t19 5.5h46z" />
    <glyph glyph-name="Jcircumflex" unicode="&#x134;" horiz-adv-x="485" 
d="M505 286q-49 -74 -92 -128t-87 -89.5t-92 -53t-107 -17.5q-44 0 -71.5 21.5t-38 53.5t-5 70t25.5 71t54 56t82 25q29 1 41 -14.5t12.5 -34t-8 -33.5t-20.5 -13q-39 6 -67.5 -4t-46.5 -27.5t-24.5 -40t-1 -42.5t23.5 -33.5t49 -13.5q37 0 70 19t64.5 51t61.5 75t62 90
q8 13 28.5 42.5t47 67t55.5 78t54 75.5t43 59t22 29q-55 0 -96.5 -7.5t-73 -16.5t-55 -16.5t-41.5 -7.5q-16 0 -15 13.5t11.5 30t28 30t34.5 13.5h308q14 0 16.5 -10t-8.5 -24q-3 -3 -19 -25.5t-40 -55.5t-52 -72.5t-54 -76.5t-47.5 -68t-31.5 -46zM678 728q-4 10 -7 20.5
t-5 21.5q-20 -16 -35 -31.5t-37 -28.5q-14 -8 -33 -9t-34 2t-21.5 10t5.5 15q15 10 24.5 16t19.5 11.5t24.5 12.5t41.5 20q39 18 73.5 18.5t47.5 -30.5l27 -66q3 -8 -9.5 -9.5t-30 1.5t-33 10t-18.5 16z" />
    <glyph glyph-name="Gbreve" unicode="&#x11e;" horiz-adv-x="458" 
d="M409 318q-15 0 -22.5 5t-7.5 11.5t8.5 11.5t25.5 5h84q14 0 16 -9.5t-9 -23.5q-4 -5 -18.5 -24t-33 -45.5t-38.5 -55t-35 -52.5q-19 -31 -21 -44t6 -16q10 -3 33.5 13.5t52.5 42.5t58 56.5t50 55.5q13 16 22.5 20.5t14 0t3.5 -14.5t-9 -22q-7 -10 -23.5 -30t-39 -44.5
t-49 -50.5t-54 -48.5t-54 -38.5t-48.5 -20q-35 -7 -51 6t-17 38q-25 -23 -51 -35t-55 -9q-58 5 -90.5 37t-42 80t3 108t44 121.5t81.5 120t115.5 104t145 73t170.5 27.5q14 0 26 -2t18.5 -7t7.5 -14t-7 -22q-8 -16 -26.5 -34t-41.5 -26q-11 -3 -24 -4.5t-23 0.5t-14.5 7
t3.5 14q4 6 8.5 11.5t7.5 10.5t4 9.5t-3 7.5q-71 -14 -132.5 -56t-109 -98.5t-80 -120t-45.5 -119.5t-5 -98.5t40 -55.5q26 -11 54 11.5t59 64.5q14 22 32 48.5t35 50t31 42t20 26.5zM648 796q8 10 21.5 15t24 3.5t13 -11t-10.5 -28.5q-12 -17 -29.5 -31t-36.5 -23.5
t-39 -14.5t-38 -3q-37 5 -47.5 32.5t15.5 60.5q12 15 24.5 20.5t22 5.5t14 -5t-0.5 -12q-15 -20 -16.5 -34.5t4.5 -22t17.5 -7.5t24.5 10q8 6 19 21.5t18 23.5z" />
    <glyph glyph-name="Idotaccent" unicode="&#x130;" horiz-adv-x="310" 
d="M580 637q-2 -2 -16.5 -22t-37 -51.5t-51 -72t-59 -83.5t-60.5 -86t-55 -79.5t-43.5 -63.5t-25.5 -39q-20 -30 -22 -43.5t6 -15.5q10 -3 34 13.5t53 42.5t58 56.5t49 55.5q14 16 23.5 20.5t14 0t3.5 -14.5t-9 -22q-7 -10 -23.5 -30t-39 -44.5t-49.5 -50.5t-54.5 -48.5
t-54 -38.5t-48.5 -20q-29 -6 -45 3t-20.5 27.5t1.5 44t22 53.5q6 10 23.5 36.5t42.5 62.5t55 79.5t61 88t60.5 86t53 75t39 55t18.5 25.5q-23 0 -34 5.5t-12.5 11.5t6.5 11.5t24 5.5h105q14 0 16 -10t-9 -24zM619 742q0 -20 -13 -33t-33 -13q-19 0 -32 13t-13 33q0 19 13 32
t32 13q20 0 33 -13t13 -32z" />
    <glyph glyph-name="Hcircumflex" unicode="&#x124;" horiz-adv-x="728" 
d="M401 323q17 24 39 54.5t45 63t46 63.5t41.5 56.5t31 43t15.5 21.5q11 15 25.5 27t41.5 12h40q14 0 16 -10t-9 -24q-2 -3 -14.5 -20t-31 -43t-42 -58.5t-47 -66t-45.5 -64.5t-39 -55h53q35 0 58.5 -9.5t33.5 -20.5q38 54 79 113t76.5 108.5t59.5 83.5t28 39
q11 15 28.5 24.5t31.5 9.5h28q14 0 16.5 -10t-8.5 -24q-3 -3 -27 -36.5t-59.5 -83.5t-77.5 -109t-79.5 -113.5t-66.5 -96.5t-39 -58q-19 -30 -21 -43.5t6 -15.5q10 -3 34 13.5t52.5 42.5t57.5 56.5t50 55.5q13 16 22.5 20.5t14 0t3.5 -14.5t-9 -22q-7 -10 -23.5 -30
t-39 -44.5t-49 -50.5t-54 -48.5t-54 -38.5t-48.5 -20q-29 -6 -45 3t-20.5 27.5t1.5 44t21 53.5q8 12 32.5 49.5t59.5 87.5h-164q-47 -69 -89 -119.5t-85.5 -83.5t-91.5 -49t-105 -16q-29 0 -51.5 10.5t-36.5 27.5q-8 9 -7 19t9 9q5 -1 14 -5t20.5 -8.5t26 -8t31.5 -3.5
q36 0 68.5 18t63 49t60 72.5t59.5 87.5h-27q-26 0 -44.5 9t-26.5 19.5t-5 19.5t21 9h121zM910 730q-4 10 -7 20.5t-5 21.5q-20 -16 -35 -31.5t-37 -28.5q-14 -8 -33 -9t-34 2t-21.5 10t5.5 15q15 10 24.5 16t19.5 11.5t24.5 12.5t41.5 20q39 18 73.5 18.5t47.5 -30.5l27 -66
q3 -8 -9.5 -9.5t-30 1.5t-33 10t-18.5 16z" />
    <glyph glyph-name="Hbar" unicode="&#x126;" horiz-adv-x="728" 
d="M514 481q19 27 37 51.5t32 44t23.5 32.5t12.5 16q11 15 25.5 27t41.5 12h40q14 0 16 -10t-9 -24q-2 -2 -11.5 -15t-24 -33.5t-33 -46.5t-38.5 -54h28q41 0 72.5 -5.5t51.5 -13.5l124 175q11 15 28.5 24.5t31.5 9.5h28q14 0 16.5 -10t-8.5 -24q-3 -3 -27 -36.5
t-59.5 -83.5t-77.5 -109t-79.5 -113.5t-66.5 -96.5t-39 -58q-19 -30 -21 -43.5t6 -15.5q10 -3 34 13.5t52.5 42.5t57.5 56.5t50 55.5q13 16 22.5 20.5t14 0t3.5 -14.5t-9 -22q-7 -10 -23.5 -30t-39 -44.5t-49 -50.5t-54 -48.5t-54 -38.5t-48.5 -20q-29 -6 -45 3t-20.5 27.5
t1.5 44t21 53.5q8 12 32.5 49.5t59.5 87.5h-164q-47 -69 -89 -119.5t-85.5 -83.5t-91.5 -49t-105 -16q-29 0 -51.5 10.5t-36.5 27.5q-8 9 -7 19t9 9q5 -1 14 -5t20.5 -8.5t26 -8t31.5 -3.5q36 0 68.5 18t63 49t60 72.5t59.5 87.5h-27q-26 0 -44.5 9t-26.5 19.5t-5 19.5t21 9
h121q16 23 36.5 52t43.5 60q-22 6 -36 13.5t-17 15t5 12.5t29 5h52zM752 427h-165q-20 -29 -39.5 -56t-33.5 -48h53q35 0 58.5 -9.5t33.5 -20.5z" />
    <glyph glyph-name="uni0156" unicode="&#x156;" horiz-adv-x="787" 
d="M712 673q98 -2 152 -27t71 -61t1 -78t-57.5 -80t-105.5 -66t-142 -36q-6 -35 -2 -77.5t13 -80.5t22 -64.5t26 -27.5q15 -2 40.5 16t53.5 45t55.5 57.5t47.5 55.5q14 16 23.5 20.5t14 0t3.5 -14.5t-9 -22q-7 -10 -23.5 -31t-39 -47t-50 -53.5t-55 -50.5t-54.5 -39t-49 -18
q-25 -2 -44.5 15t-35 45.5t-26 65t-16.5 73.5t-7 71.5t3 58.5h-7l-25 -37q-49 -74 -93 -128t-89 -89.5t-94 -53t-109 -17.5q-29 0 -51.5 10.5t-36.5 27.5q-8 9 -7 19t9 9q5 -1 14 -5t20.5 -8.5t26 -8t31.5 -3.5q37 0 70 19t64 51t61.5 75t61.5 90q8 13 25 36.5t37 52
t41.5 59t40 56t31.5 44t17 23.5q11 14 27 27t46 21q17 5 27.5 7t21.5 4q11 3 14.5 -8.5t-7.5 -25.5q-3 -3 -17.5 -23.5t-35.5 -50t-45.5 -64.5t-46.5 -67h45q64 0 110.5 20t75.5 50t40.5 65t5.5 65t-28.5 50t-62.5 20q-71 0 -113.5 -13t-73 -40t-57.5 -69t-66 -100
q-40 12 -54 36.5t-6 54t36.5 60t74 55.5t107 40.5t134.5 13.5zM231 -162q42 26 63.5 56.5t37.5 64.5q11 22 30 29t34 1t19.5 -22.5t-12.5 -41.5q-23 -31 -56 -59.5t-78 -46.5q-21 -9 -34 -9.5t-17.5 3.5t-1 11t14.5 14z" />
    <glyph glyph-name="uni0157" unicode="&#x157;" horiz-adv-x="298" 
d="M398 249q11 10 21 13.5t16 1.5t5.5 -10t-10.5 -21q-37 -45 -79 -71t-78 -36.5t-61.5 -7.5t-28.5 16q-2 8 8.5 25t25.5 37.5t31.5 40.5t26.5 34q-16 -4 -38.5 -19.5t-45.5 -36t-44.5 -43.5t-35.5 -43t-26 -37.5t-21 -30.5q-11 -15 -19 -27q-12 -15 -29 -24.5t-31 -9.5h-29
q-14 0 -16 10t9 24l201 285q11 15 28 24t31 9h29q14 0 16.5 -9.5t-8.5 -23.5l-35 -47q31 27 61 45.5t54.5 28.5t42 11t24.5 -6q13 -14 1 -38.5t-33 -50.5t-42 -49t-25 -34q32 11 55.5 28t48.5 42zM-220 -194q42 26 63.5 56.5t37.5 64.5q11 22 30 29t34 1t19.5 -22.5
t-12.5 -41.5q-23 -31 -56 -59.5t-78 -46.5q-21 -9 -34 -9.5t-17.5 3.5t-1 11t14.5 14z" />
    <glyph glyph-name="uni013B" unicode="&#x13b;" horiz-adv-x="401" 
d="M272 1q-21 -3 -33.5 2.5t-22.5 13t-19.5 15.5t-22.5 11q-11 2 -24.5 -2t-26.5 -11q-15 -8 -30 -19q5 9 11 19q5 8 11.5 16.5t13.5 15.5l17 12l-30 -42q-12 -15 -28.5 -24.5t-30.5 -9.5h-29q-14 0 -16.5 10t8.5 24l423 604q11 15 28 24.5t31 9.5h29q14 0 16 -10t-9 -24
l-392 -562q41 30 65.5 35t40 -1t26 -15.5t24.5 -9.5q19 0 44.5 16.5t53 41.5t54 54t47.5 54q13 16 23 20t14.5 -0.5t3.5 -14.5t-10 -21q-30 -39 -64.5 -78.5t-69.5 -72.5t-68 -55t-58 -26zM26 -162q42 26 63.5 56.5t37.5 64.5q11 22 30 29t34 1t19.5 -22.5t-12.5 -41.5
q-23 -31 -56 -59.5t-78 -46.5q-21 -9 -34 -9.5t-17.5 3.5t-1 11t14.5 14z" />
    <glyph glyph-name="uni013C" unicode="&#x13c;" horiz-adv-x="199" 
d="M470 638q-2 -3 -26 -36.5t-59.5 -83t-77.5 -109t-80 -113.5t-67 -96t-38 -58q-19 -30 -21.5 -43.5t5.5 -15.5q10 -3 34 13t52.5 42t57.5 56t49 55q13 16 22.5 20.5t14 0t3.5 -14.5t-8 -22q-7 -10 -23.5 -30t-39 -44t-49 -50t-54 -48t-53.5 -38.5t-48 -20.5
q-29 -6 -45.5 3t-21 28t2 44.5t21.5 52.5q6 10 23.5 36.5t42.5 63t55 80t61 87.5t60.5 86t53 75t39 54.5t18.5 25.5q12 15 29 24.5t31 9.5h29q14 0 16 -10t-9 -24zM-156 -183q42 26 63.5 56.5t37.5 64.5q11 22 30 29t34 1t19.5 -22.5t-12.5 -41.5q-23 -31 -56 -59.5
t-78 -46.5q-21 -9 -34 -9.5t-17.5 3.5t-1 11t14.5 14z" />
    <glyph glyph-name="uni0122" unicode="&#x122;" horiz-adv-x="552" 
d="M503 318q-15 0 -22.5 5t-7.5 11.5t8.5 11.5t25.5 5h84q14 0 16 -9.5t-9 -23.5q-4 -5 -18.5 -24t-33 -45.5t-38.5 -55t-35 -52.5q-19 -31 -21 -44t6 -16q10 -3 33.5 13.5t52.5 42.5t58 56.5t50 55.5q13 16 22.5 20.5t14 0t3.5 -14.5t-9 -22q-7 -10 -23.5 -30t-39 -44.5
t-49 -50.5t-54 -48.5t-54 -38.5t-48.5 -20q-35 -7 -51 6t-17 38q-25 -23 -51 -35t-55 -9q-58 5 -90.5 37t-42 80t3 108t44 121.5t81.5 120t115.5 104t145 73t170.5 27.5q14 0 26 -2t18.5 -7t7.5 -14t-7 -22q-8 -16 -26.5 -34t-41.5 -26q-11 -3 -24 -4.5t-23 0.5t-14.5 7
t3.5 14q4 6 8.5 11.5t7.5 10.5t4 9.5t-3 7.5q-72 -14 -133 -56t-108.5 -98.5t-80 -120t-45.5 -119.5t-5 -98.5t40 -55.5q26 -11 54 11.5t59 64.5q14 22 32 48.5t35 50t31 42t20 26.5zM96 -183q42 26 63.5 56.5t37.5 64.5q11 22 30 29t34 1t19.5 -22.5t-12.5 -41.5
q-23 -31 -56 -59.5t-78 -46.5q-21 -9 -34 -9.5t-17.5 3.5t-1 11t14.5 14z" />
    <glyph glyph-name="uni0123" unicode="&#x123;" horiz-adv-x="365" 
d="M89 240q46 45 88 71t78 35.5t64 4t46 -21.5q11 11 25 17t26 6h29q14 0 16.5 -9.5t-8.5 -23.5q-3 -3 -19.5 -25.5t-43.5 -60.5t-62.5 -89.5t-76 -111.5t-83.5 -126.5t-86 -135.5q-8 -14 -21.5 -11t-24.5 15t-15.5 30.5t4.5 36.5q5 11 25 40t48.5 68t63 83t67.5 85
q-18 -18 -40.5 -38.5t-47.5 -38t-50 -29t-48 -11.5q-28 0 -43 19t-12 51.5t27 76t74 93.5zM137 200q-24 -27 -36.5 -53.5t-12 -44t15 -20.5t45.5 17q24 15 54 43t57.5 59t50 58.5t33.5 42.5q-23 13 -51.5 7t-57 -23t-54.5 -40.5t-44 -45.5zM542 583q-42 -26 -63.5 -56.5
t-37.5 -64.5q-11 -23 -30 -29.5t-34 -0.5t-19.5 22.5t12.5 41.5q23 31 56 59.5t78 46.5q21 9 34 9.5t17.5 -3.5t1 -11t-14.5 -14z" />
    <glyph glyph-name="uni0145" unicode="&#x145;" horiz-adv-x="873" 
d="M726 182l310 455q11 15 28 24.5t31 9.5h43q14 0 16.5 -10t-8.5 -24l-422 -605q-12 -14 -26.5 -23t-28.5 -9h-1h-18q-14 0 -21 10t-2 24l79 425q-19 -27 -38 -53.5t-35 -49.5t-28.5 -41.5t-19.5 -28.5q-49 -74 -93 -128t-89 -89.5t-94 -53t-108 -17.5q-30 0 -52.5 10.5
t-36.5 27.5q-7 9 -6.5 19t8.5 9q6 -1 14.5 -5t20 -8.5t26 -8t31.5 -3.5q37 0 70 19t64 51t61.5 75t61.5 90q9 13 30.5 43.5t48.5 68.5t57 80t56 77.5t43.5 60.5t21.5 30q9 12 21 22t32 14q2 1 8 1h18q14 0 14 -11.5t-2 -22.5zM325 -162q42 26 63.5 56.5t37.5 64.5
q11 22 30 29t34 1t19.5 -22.5t-12.5 -41.5q-23 -31 -56 -59.5t-78 -46.5q-21 -9 -34 -9.5t-17.5 3.5t-1 11t14.5 14z" />
    <glyph glyph-name="uni0146" unicode="&#x146;" horiz-adv-x="387" 
d="M358 350q26 4 43 -2t18 -25.5t-17.5 -55t-63.5 -91.5q-23 -27 -33.5 -45t-14 -28.5t-1.5 -14.5t6 -5q10 -3 33.5 13t52 42t57.5 56t49 55q14 16 23.5 20.5t14 0t3.5 -14.5t-9 -22q-7 -10 -23.5 -30t-39 -44t-49 -50t-53.5 -48t-53.5 -38.5t-47.5 -20.5q-30 -6 -49 4
t-22.5 32.5t10 57.5t48.5 80q42 53 61.5 77.5t8.5 29.5q-9 5 -37.5 -14t-64.5 -50.5t-72.5 -70t-60.5 -72.5q-2 -4 -4 -5l-26 -37q-12 -15 -29 -24.5t-31 -9.5h-29q-14 0 -16 10t9 24l201 285q11 15 28 24t31 9h29q14 0 16.5 -9.5t-8.5 -23.5l-36 -51q38 32 75.5 54.5
t72.5 27.5zM-64 -162q42 26 63.5 56.5t37.5 64.5q11 22 30 29t34 1t19.5 -22.5t-12.5 -41.5q-23 -31 -56 -59.5t-78 -46.5q-21 -9 -34 -9.5t-17.5 3.5t-1 11t14.5 14z" />
    <glyph glyph-name="uni0136" unicode="&#x136;" horiz-adv-x="806" 
d="M582 286q-49 -74 -93 -128t-89 -89.5t-94 -53t-109 -17.5q-30 0 -52.5 10.5t-36.5 27.5q-7 9 -6 19t9 9q5 -1 13.5 -5t20.5 -8.5t26.5 -8t31.5 -3.5q37 0 70 19t64 51t61 75t62 90q8 13 29 42.5t47.5 67t56 78t54 75.5t42 59t21.5 29q11 15 26 27t42 12h40q14 0 16 -10
t-9 -24q-3 -3 -23 -31t-48 -67.5t-60 -84.5t-59 -83q24 4 58 20.5t73 41t80 55t80 61.5t72.5 61t57.5 54q11 11 27.5 13.5t44.5 2.5q13 0 25.5 -0.5t18 -4t1.5 -13t-22 -27.5q-26 -25 -62.5 -53.5t-78.5 -57t-87 -55.5t-86.5 -50.5t-77 -41.5t-58.5 -27q-6 -26 -10 -69.5
t-4 -86t5.5 -74t18.5 -32.5q15 -2 40 15t52.5 42.5t55 55.5t47.5 55q14 16 23.5 20.5t14 0t3.5 -14.5t-9 -22q-7 -10 -23.5 -31t-39 -46t-49.5 -52t-54.5 -49.5t-54 -37.5t-48.5 -17q-23 -2 -38.5 13t-24.5 41.5t-13 60.5t-3.5 70t3.5 70t8 60zM325 -162q42 26 63.5 56.5
t37.5 64.5q11 22 30 29t34 1t19.5 -22.5t-12.5 -41.5q-23 -31 -56 -59.5t-78 -46.5q-21 -9 -34 -9.5t-17.5 3.5t-1 11t14.5 14z" />
    <glyph glyph-name="uni0137" unicode="&#x137;" horiz-adv-x="386" 
d="M284 76q15 -2 41 16t55 44.5t57 57t49 55.5q13 16 22.5 20.5t14 0t3.5 -14.5t-9 -22q-7 -10 -23 -30.5t-38.5 -45.5t-49 -51.5t-53.5 -48.5t-53.5 -37.5t-48.5 -17.5q-26 -3 -45.5 13t-33.5 41.5t-22.5 55t-12.5 53.5l-92 -131q-12 -15 -28.5 -24.5t-30.5 -9.5h-29
q-14 0 -16.5 10t8.5 24l423 604q11 15 28 24.5t31 9.5h29q14 0 16.5 -10t-8.5 -24l-288 -411q30 5 56.5 20.5t48 33t37 33.5t22.5 22q7 7 13.5 10t13 4.5t15.5 1.5h23q13 0 26 -1t19 -5t2.5 -13.5t-23.5 -25.5t-46 -34t-53.5 -34.5t-55 -30t-51.5 -19.5q2 -15 6.5 -34.5
t11 -36.5t16.5 -29t23 -13zM-65 -162q42 26 63.5 56.5t37.5 64.5q11 22 30 29t34 1t19.5 -22.5t-12.5 -41.5q-23 -31 -56 -59.5t-78 -46.5q-21 -9 -34 -9.5t-17.5 3.5t-1 11t14.5 14z" />
    <glyph glyph-name="kgreenlandic" unicode="&#x138;" horiz-adv-x="386" 
d="M284 76q15 -2 41 16t55 44.5t57 57t49 55.5q13 16 22.5 20.5t14 0t3.5 -14.5t-9 -22q-7 -10 -23 -30.5t-38.5 -45.5t-49 -51.5t-53.5 -48.5t-53.5 -37.5t-48.5 -17.5q-26 -3 -45.5 13.5t-33.5 41.5t-22.5 55t-12.5 54l-92 -132q-12 -15 -28.5 -24.5t-30.5 -9.5h-29
q-14 0 -16.5 10t8.5 24l200 287q11 15 28 24.5t31 9.5h29q14 0 16.5 -10t-8.5 -24l-66 -94q30 5 57 20.5t48.5 33t37 33.5t22.5 22q7 7 13.5 10t13 4.5t15.5 1.5h23q13 0 26 -1t19 -5t2.5 -13.5t-23.5 -25.5t-46 -34t-53.5 -34.5t-55 -30t-51.5 -19.5q2 -15 6.5 -34.5
t11 -36.5t16.5 -29t23 -13z" />
    <glyph glyph-name="Itilde" unicode="&#x128;" horiz-adv-x="310" 
d="M580 637q-2 -2 -16.5 -22t-37 -51.5t-51 -72t-59 -83.5t-60.5 -86t-55 -79.5t-43.5 -63.5t-25.5 -39q-20 -30 -22 -43.5t6 -15.5q10 -3 34 13.5t53 42.5t58 56.5t49 55.5q14 16 23.5 20.5t14 0t3.5 -14.5t-9 -22q-7 -10 -23.5 -30t-39 -44.5t-49.5 -50.5t-54.5 -48.5
t-54 -38.5t-48.5 -20q-29 -6 -45 3t-20.5 27.5t1.5 44t22 53.5q6 10 23.5 36.5t42.5 62.5t55 79.5t61 88t60.5 86t53 75t39 55t18.5 25.5q-23 0 -34 5.5t-12.5 11.5t6.5 11.5t24 5.5h105q14 0 16 -10t-9 -24zM473 773q30 25 50.5 31.5t36 3t27.5 -14t25.5 -18t30.5 -9
t43 11.5q20 10 33.5 12t16 -4t-6.5 -19t-34 -32q-38 -29 -63.5 -37.5t-43 -5.5t-30.5 14t-26 19t-28.5 9.5t-39.5 -12.5q-11 -7 -20.5 -8t-12 5t6.5 19t35 35z" />
    <glyph glyph-name="Emacron" unicode="&#x112;" horiz-adv-x="552" 
d="M446 524q-40 -60 -10 -98.5t121 -38.5q25 0 36.5 -6.5t9.5 -14.5t-18.5 -15.5t-46.5 -8.5q-72 -3 -127.5 -21.5t-93.5 -45.5t-57 -58.5t-18.5 -61t22 -52.5t65.5 -33q46 -11 91.5 4.5t87.5 44.5t79 64.5t65 65.5q14 15 24.5 18t15.5 -0.5t3.5 -13t-11.5 -20.5
q-32 -36 -70 -77t-84.5 -75.5t-102 -57.5t-121.5 -23q-75 0 -122 21t-66.5 54t-12.5 74t40.5 81t92.5 75t144 57q-48 10 -69.5 32.5t-20.5 51t21.5 59.5t56.5 58q66 51 154.5 80t185.5 29q14 0 26 -2t19 -7t7.5 -14t-6.5 -22q-8 -16 -27 -34t-42 -26q-11 -3 -24 -4.5
t-23 0.5t-14 7t3 14q8 11 16.5 21.5t1.5 17.5q-25 -1 -53.5 -8t-56 -19t-51.5 -30t-40 -42zM674 770q33 0 57 -9t34.5 -20t7.5 -20t-24 -9h-144q-26 0 -44.5 9t-27 20t-5 20t21.5 9h124z" />
    </font>
</defs>
</svg>
